<svg width="800" height="879" viewBox="0 0 800 879" fill="none" xmlns="http://www.w3.org/2000/svg">
<path d="M182.236 779.095C179.364 779.306 177.297 780.181 176.036 781.723C174.775 783.264 174.144 785.436 174.144 788.238V790.025H181.5C186.264 790.025 188.646 792.021 188.646 796.015C188.646 799.938 186.264 801.9 181.5 801.9H174.144V834.687C174.144 837.14 173.373 838.996 171.832 840.257C170.361 841.518 168.504 842.149 166.262 842.149C163.95 842.149 162.024 841.518 160.483 840.257C159.011 838.996 158.276 837.14 158.276 834.687V801.9H154.072C149.378 801.9 147.031 799.938 147.031 796.015C147.031 792.021 149.378 790.025 154.072 790.025H158.276C158.276 783.299 160.132 778.009 163.845 774.156C167.559 770.303 172.673 768.131 179.188 767.641L181.921 767.43L183.812 767.325C188.646 767.325 191.063 769.182 191.063 772.895C191.063 776.538 189.032 778.535 184.968 778.885L182.236 779.095ZM201.677 842.254C199.365 842.254 197.439 841.623 195.898 840.362C194.426 839.101 193.691 837.245 193.691 834.793V774.471C193.691 772.019 194.426 770.163 195.898 768.902C197.439 767.641 199.365 767.01 201.677 767.01C203.919 767.01 205.776 767.641 207.247 768.902C208.788 770.163 209.559 772.019 209.559 774.471V834.793C209.559 837.245 208.788 839.101 207.247 840.362C205.776 841.623 203.919 842.254 201.677 842.254ZM263.425 788.974C265.878 788.974 267.804 789.639 269.205 790.97C270.677 792.302 271.412 794.123 271.412 796.435V835.003C271.412 837.175 270.642 838.926 269.1 840.257C267.629 841.588 265.702 842.254 263.32 842.254C261.078 842.254 259.292 841.623 257.961 840.362C256.63 839.101 255.964 837.42 255.964 835.318V834.267C254.353 836.929 252.216 838.961 249.554 840.362C246.961 841.763 244.019 842.464 240.726 842.464C234.211 842.464 229.342 840.678 226.119 837.105C222.966 833.461 221.39 827.997 221.39 820.711V796.435C221.39 794.123 222.09 792.302 223.492 790.97C224.963 789.639 226.925 788.974 229.377 788.974C231.829 788.974 233.755 789.639 235.156 790.97C236.558 792.302 237.258 794.123 237.258 796.435V821.026C237.258 824.109 237.889 826.385 239.15 827.857C240.481 829.328 242.478 830.064 245.14 830.064C248.223 830.064 250.71 829.013 252.601 826.911C254.563 824.809 255.544 822.042 255.544 818.609V796.435C255.544 794.123 256.244 792.302 257.646 790.97C259.047 789.639 260.973 788.974 263.425 788.974ZM324.994 826.28C326.395 826.28 327.516 826.841 328.357 827.962C329.267 829.083 329.723 830.519 329.723 832.27C329.723 833.461 329.372 834.582 328.672 835.633C327.971 836.614 326.99 837.455 325.729 838.155C323.347 839.416 320.58 840.467 317.427 841.308C314.275 842.079 311.367 842.464 308.705 842.464C303.1 842.464 298.196 841.378 293.992 839.206C289.859 837.034 286.671 833.952 284.429 829.958C282.187 825.895 281.066 821.131 281.066 815.666C281.066 810.412 282.152 805.753 284.324 801.69C286.496 797.626 289.509 794.473 293.362 792.231C297.215 789.92 301.594 788.764 306.498 788.764C311.192 788.764 315.29 789.814 318.793 791.916C322.366 793.948 325.134 796.89 327.095 800.744C329.057 804.527 330.038 808.976 330.038 814.09C330.038 815.631 329.653 816.822 328.882 817.663C328.181 818.434 327.166 818.819 325.834 818.819H296.409C296.9 822.953 298.161 825.965 300.193 827.857C302.224 829.678 305.132 830.589 308.915 830.589C310.947 830.589 312.768 830.344 314.38 829.853C315.991 829.363 317.778 828.697 319.739 827.857C320.72 827.436 321.666 827.086 322.577 826.806C323.487 826.455 324.293 826.28 324.994 826.28ZM306.918 799.693C303.906 799.693 301.489 800.674 299.667 802.635C297.846 804.527 296.76 807.294 296.409 810.937H316.692C316.481 807.224 315.536 804.422 313.854 802.53C312.243 800.639 309.931 799.693 306.918 799.693ZM371.99 788.764C378.155 788.764 382.744 790.585 385.756 794.228C388.769 797.801 390.275 803.231 390.275 810.517V834.793C390.275 837.105 389.54 838.926 388.068 840.257C386.667 841.588 384.741 842.254 382.289 842.254C379.836 842.254 377.91 841.588 376.509 840.257C375.107 838.926 374.407 837.105 374.407 834.793V811.253C374.407 807.75 373.741 805.192 372.41 803.581C371.149 801.97 369.152 801.164 366.42 801.164C363.127 801.164 360.465 802.215 358.433 804.317C356.472 806.419 355.491 809.221 355.491 812.724V834.793C355.491 837.105 354.79 838.926 353.389 840.257C351.988 841.588 350.061 842.254 347.609 842.254C345.157 842.254 343.195 841.588 341.724 840.257C340.323 838.926 339.622 837.105 339.622 834.793V796.225C339.622 794.053 340.358 792.302 341.829 790.97C343.371 789.639 345.332 788.974 347.714 788.974C349.886 788.974 351.638 789.639 352.969 790.97C354.37 792.231 355.07 793.878 355.07 795.91V797.381C356.892 794.578 359.239 792.442 362.111 790.97C365.054 789.499 368.347 788.764 371.99 788.764ZM430.811 830.694C432.913 830.834 434.454 831.36 435.435 832.27C436.416 833.181 436.906 834.512 436.906 836.264C436.906 838.296 436.1 839.837 434.489 840.888C432.878 841.939 430.566 842.359 427.553 842.149L424.611 841.939C412.35 840.958 406.22 834.547 406.22 822.707V801.9H402.017C399.705 801.9 397.953 801.409 396.762 800.428C395.571 799.378 394.976 797.906 394.976 796.015C394.976 794.053 395.571 792.582 396.762 791.601C397.953 790.55 399.705 790.025 402.017 790.025H406.22V781.828C406.22 779.516 406.921 777.694 408.322 776.363C409.793 775.032 411.755 774.366 414.207 774.366C416.659 774.366 418.586 775.032 419.987 776.363C421.388 777.694 422.089 779.516 422.089 781.828V790.025H429.445C434.209 790.025 436.591 792.021 436.591 796.015C436.591 797.906 435.995 799.378 434.804 800.428C433.613 801.409 431.827 801.9 429.445 801.9H422.089V823.863C422.089 825.965 422.579 827.576 423.56 828.697C424.541 829.748 425.977 830.344 427.868 830.484L430.811 830.694ZM450.748 842.254C448.436 842.254 446.51 841.623 444.968 840.362C443.497 839.101 442.762 837.245 442.762 834.793V774.471C442.762 772.019 443.497 770.163 444.968 768.902C446.51 767.641 448.436 767.01 450.748 767.01C452.99 767.01 454.847 767.641 456.318 768.902C457.859 770.163 458.63 772.019 458.63 774.471V834.793C458.63 837.245 457.859 839.101 456.318 840.362C454.847 841.623 452.99 842.254 450.748 842.254ZM512.184 826.28C513.585 826.28 514.706 826.841 515.546 827.962C516.457 829.083 516.913 830.519 516.913 832.27C516.913 833.461 516.562 834.582 515.862 835.633C515.161 836.614 514.18 837.455 512.919 838.155C510.537 839.416 507.77 840.467 504.617 841.308C501.464 842.079 498.557 842.464 495.895 842.464C490.29 842.464 485.386 841.378 481.182 839.206C477.049 837.034 473.861 833.952 471.619 829.958C469.377 825.895 468.256 821.131 468.256 815.666C468.256 810.412 469.342 805.753 471.514 801.69C473.686 797.626 476.698 794.473 480.552 792.231C484.405 789.92 488.784 788.764 493.688 788.764C498.382 788.764 502.48 789.814 505.983 791.916C509.556 793.948 512.324 796.89 514.285 800.744C516.247 804.527 517.228 808.976 517.228 814.09C517.228 815.631 516.842 816.822 516.072 817.663C515.371 818.434 514.355 818.819 513.024 818.819H483.599C484.09 822.953 485.351 825.965 487.383 827.857C489.414 829.678 492.322 830.589 496.105 830.589C498.137 830.589 499.958 830.344 501.57 829.853C503.181 829.363 504.967 828.697 506.929 827.857C507.91 827.436 508.856 827.086 509.766 826.806C510.677 826.455 511.483 826.28 512.184 826.28ZM494.108 799.693C491.096 799.693 488.679 800.674 486.857 802.635C485.036 804.527 483.95 807.294 483.599 810.937H503.882C503.671 807.224 502.726 804.422 501.044 802.53C499.433 800.639 497.121 799.693 494.108 799.693ZM560.991 793.493C561.691 792.021 562.602 790.935 563.723 790.235C564.914 789.464 566.175 789.079 567.506 789.079C569.468 789.079 571.219 789.744 572.761 791.076C574.302 792.337 575.073 793.878 575.073 795.699C575.073 796.75 574.828 797.766 574.337 798.747L555.421 837.525C554.721 839.066 553.67 840.257 552.268 841.098C550.867 841.869 549.361 842.254 547.75 842.254C546.138 842.254 544.632 841.869 543.231 841.098C541.83 840.257 540.744 839.066 539.973 837.525L521.057 798.747C520.637 797.766 520.426 796.82 520.426 795.91C520.426 794.018 521.232 792.407 522.843 791.076C524.525 789.744 526.381 789.079 528.413 789.079C529.884 789.079 531.216 789.464 532.407 790.235C533.598 790.935 534.543 792.021 535.244 793.493L548.17 821.762L560.991 793.493ZM622.301 826.28C623.702 826.28 624.823 826.841 625.664 827.962C626.575 829.083 627.03 830.519 627.03 832.27C627.03 833.461 626.68 834.582 625.979 835.633C625.279 836.614 624.298 837.455 623.037 838.155C620.655 839.416 617.888 840.467 614.735 841.308C611.582 842.079 608.675 842.464 606.012 842.464C600.408 842.464 595.504 841.378 591.3 839.206C587.167 837.034 583.979 833.952 581.737 829.958C579.495 825.895 578.374 821.131 578.374 815.666C578.374 810.412 579.46 805.753 581.632 801.69C583.804 797.626 586.816 794.473 590.669 792.231C594.523 789.92 598.901 788.764 603.806 788.764C608.5 788.764 612.598 789.814 616.101 791.916C619.674 793.948 622.441 796.89 624.403 800.744C626.365 804.527 627.346 808.976 627.346 814.09C627.346 815.631 626.96 816.822 626.19 817.663C625.489 818.434 624.473 818.819 623.142 818.819H593.717C594.207 822.953 595.469 825.965 597.5 827.857C599.532 829.678 602.439 830.589 606.223 830.589C608.254 830.589 610.076 830.344 611.687 829.853C613.299 829.363 615.085 828.697 617.047 827.857C618.028 827.436 618.973 827.086 619.884 826.806C620.795 826.455 621.601 826.28 622.301 826.28ZM604.226 799.693C601.213 799.693 598.796 800.674 596.975 802.635C595.153 804.527 594.067 807.294 593.717 810.937H613.999C613.789 807.224 612.843 804.422 611.162 802.53C609.55 800.639 607.239 799.693 604.226 799.693ZM644.917 842.254C642.605 842.254 640.678 841.623 639.137 840.362C637.666 839.101 636.93 837.245 636.93 834.793V774.471C636.93 772.019 637.666 770.163 639.137 768.902C640.678 767.641 642.605 767.01 644.917 767.01C647.159 767.01 649.015 767.641 650.486 768.902C652.028 770.163 652.798 772.019 652.798 774.471V834.793C652.798 837.245 652.028 839.101 650.486 840.362C649.015 841.623 647.159 842.254 644.917 842.254Z" fill="#4B0875"/>
<path d="M766.658 349.517H679.022C661.775 349.517 645.23 356.366 633 368.567C620.77 380.769 613.849 397.331 613.751 414.636V463.918C613.751 467.103 612.49 470.158 610.245 472.41C608.001 474.662 604.957 475.927 601.782 475.927H578.325C575.279 475.933 572.345 474.774 570.121 472.685C567.897 470.595 566.551 467.734 566.357 464.684C567.027 451.087 562.946 437.682 554.818 426.783C546.69 415.884 535.024 408.174 521.835 404.984C536.467 396.468 547.133 382.473 551.489 366.072C555.845 349.671 553.536 332.206 545.069 317.513C568.987 289.638 584.429 255.46 589.56 219.039C594.691 182.618 589.296 145.484 574.015 112.049C558.734 78.6138 534.21 50.2825 503.355 30.4203C472.501 10.5582 436.613 0 399.955 0C363.297 0 327.409 10.5582 296.555 30.4203C265.701 50.2825 241.176 78.6138 225.896 112.049C210.615 145.484 205.219 182.618 210.35 219.039C215.481 255.46 230.923 289.638 254.842 317.513C246.374 332.206 244.065 349.671 248.421 366.072C252.777 382.473 263.443 396.468 278.075 404.984C264.876 408.172 253.203 415.888 245.074 426.798C236.944 437.707 232.869 451.124 233.553 464.729C233.456 467.848 232.153 470.807 229.919 472.979C227.684 475.15 224.696 476.364 221.585 476.362H198.173C194.999 476.362 191.954 475.097 189.71 472.845C187.465 470.593 186.205 467.538 186.205 464.353V415.071C186.11 397.768 179.193 381.205 166.965 369.003C154.737 356.801 138.193 349.952 120.948 349.952H33.3418C28.9973 349.859 24.6779 350.637 20.6369 352.241C16.596 353.845 12.9148 356.242 9.80931 359.292C6.70383 362.342 4.23653 365.984 2.55209 370.003C0.867658 374.023 0 378.339 0 382.699C0 387.06 0.867658 391.376 2.55209 395.396C4.23653 399.415 6.70383 403.057 9.80931 406.107C12.9148 409.157 16.596 411.554 20.6369 413.158C24.6779 414.762 28.9973 415.54 33.3418 415.447H108.965C112.139 415.447 115.184 416.712 117.428 418.964C119.673 421.216 120.933 424.271 120.933 427.456V476.407C120.94 493.331 127.475 509.596 139.169 521.791C150.863 533.987 166.808 541.167 183.661 541.826V541.826H236.097C252.801 541.174 268.62 534.116 280.291 522.106C291.962 510.096 298.596 494.051 298.825 477.278V477.368C298.817 475.791 299.118 474.228 299.713 472.768C300.307 471.308 301.182 469.98 302.288 468.859C303.393 467.738 304.708 466.847 306.157 466.236C307.606 465.625 309.161 465.307 310.733 465.299C312.304 465.291 313.862 465.594 315.317 466.19C316.772 466.786 318.096 467.664 319.213 468.774C320.33 469.883 321.218 471.203 321.827 472.657C322.436 474.111 322.753 475.671 322.761 477.248V643.153C322.761 646.338 321.5 649.392 319.255 651.644C317.011 653.896 313.967 655.162 310.793 655.162H287.305C284.131 655.162 281.087 653.896 278.842 651.644C276.598 649.392 275.337 646.338 275.337 643.153V622.002C275.258 604.697 268.357 588.126 256.141 575.911C243.925 563.695 227.387 556.827 210.141 556.808H122.489C118.145 556.714 113.825 557.492 109.784 559.096C105.743 560.7 102.062 563.097 98.9568 566.147C95.8513 569.197 93.384 572.839 91.6996 576.858C90.0151 580.878 89.1475 585.194 89.1475 589.555C89.1475 593.915 90.0151 598.232 91.6996 602.251C93.384 606.271 95.8513 609.912 98.9568 612.962C102.062 616.012 105.743 618.41 109.784 620.013C113.825 621.617 118.145 622.395 122.489 622.302H198.173C201.347 622.302 204.391 623.567 206.635 625.819C208.88 628.071 210.141 631.126 210.141 634.311V655.162C210.153 672.513 217.026 689.152 229.253 701.423C241.479 713.694 258.059 720.595 275.352 720.611H322.716C331.289 720.613 339.778 718.92 347.699 715.63C355.619 712.339 362.817 707.515 368.879 701.433C374.942 695.351 379.751 688.131 383.032 680.184C386.313 672.236 388.002 663.719 388.002 655.117V465.329V520.961C387.992 517.776 389.243 514.717 391.481 512.458C393.718 510.199 396.759 508.924 399.933 508.914C403.107 508.904 406.155 510.16 408.406 512.405C410.658 514.65 411.928 517.701 411.938 520.886V655.026C411.926 663.634 413.605 672.159 416.879 680.114C420.153 688.07 424.958 695.3 431.019 701.391C437.079 707.482 444.277 712.314 452.2 715.612C460.123 718.91 468.617 720.609 477.194 720.611H524.573C541.884 720.611 558.486 713.71 570.727 701.428C582.967 689.145 589.844 672.487 589.844 655.117V634.236C589.844 631.051 591.105 627.996 593.35 625.744C595.594 623.492 598.638 622.227 601.812 622.227H677.436C681.78 622.32 686.1 621.542 690.141 619.938C694.182 618.335 697.863 615.937 700.968 612.887C704.074 609.837 706.541 606.196 708.226 602.176C709.91 598.157 710.778 593.84 710.778 589.48C710.778 585.119 709.91 580.803 708.226 576.783C706.541 572.764 704.074 569.122 700.968 566.072C697.863 563.022 694.182 560.625 690.141 559.021C686.1 557.417 681.78 556.639 677.436 556.733H589.844C572.585 556.732 556.028 563.592 543.796 575.809C531.564 588.027 524.652 604.609 524.573 621.927V621.927V643.077C524.573 646.262 523.312 649.317 521.068 651.569C518.823 653.821 515.779 655.086 512.605 655.086H489.147C485.973 655.086 482.929 653.821 480.685 651.569C478.44 649.317 477.179 646.262 477.179 643.077V477.068C477.218 474.191 478.284 471.424 480.184 469.27C482.084 467.116 484.691 465.717 487.532 465.329H490.718C493.582 465.721 496.207 467.138 498.11 469.321C500.013 471.503 501.065 474.303 501.071 477.203V475.927C501.079 493.297 507.96 509.954 520.202 522.235C532.444 534.516 549.046 541.417 566.357 541.421H613.736C631.048 541.421 647.651 534.521 659.894 522.239C672.138 509.957 679.018 493.299 679.022 475.927V427.005C679.022 423.82 680.283 420.766 682.527 418.514C684.771 416.261 687.816 414.996 690.99 414.996H766.658C771.003 415.09 775.322 414.312 779.363 412.708C783.404 411.104 787.085 408.707 790.191 405.657C793.296 402.607 795.763 398.965 797.448 394.946C799.132 390.926 800 386.61 800 382.249C800 377.889 799.132 373.572 797.448 369.553C795.763 365.533 793.296 361.892 790.191 358.842C787.085 355.791 783.404 353.394 779.363 351.79C775.322 350.187 771.003 349.409 766.658 349.502V349.517ZM566.372 475.927V465.299V475.927Z" fill="#49007A"/>
<path d="M572.176 203.502C570.193 203.502 568.29 202.711 566.887 201.304C565.484 199.896 564.696 197.987 564.696 195.997C564.645 150.618 546.663 107.112 514.693 75.0157C482.724 42.9197 439.375 24.8536 394.151 24.7781C392.167 24.7781 390.264 23.9873 388.862 22.5798C387.459 21.1722 386.671 19.2631 386.671 17.2725C386.671 15.2819 387.459 13.3728 388.862 11.9652C390.264 10.5576 392.167 9.76685 394.151 9.76685C443.341 9.8463 490.493 29.4953 525.267 64.4055C560.042 99.3157 579.601 146.638 579.656 195.997C579.656 197.987 578.868 199.896 577.466 201.304C576.063 202.711 574.16 203.502 572.176 203.502Z" fill="#C98EF0"/>
<path d="M310.119 381.131C327.47 381.131 341.535 367.017 341.535 349.607C341.535 332.197 327.47 318.083 310.119 318.083C292.768 318.083 278.703 332.197 278.703 349.607C278.703 367.017 292.768 381.131 310.119 381.131Z" fill="white"/>
<path d="M310.12 368.506C320.712 368.506 329.299 359.89 329.299 349.262C329.299 338.633 320.712 330.017 310.12 330.017C299.527 330.017 290.941 338.633 290.941 349.262C290.941 359.89 299.527 368.506 310.12 368.506Z" fill="#861DCB"/>
<path d="M302.43 349.607C305.735 349.607 308.414 346.919 308.414 343.603C308.414 340.286 305.735 337.598 302.43 337.598C299.125 337.598 296.446 340.286 296.446 343.603C296.446 346.919 299.125 349.607 302.43 349.607Z" fill="white"/>
<path d="M541.643 355.612C540.056 355.612 538.533 354.979 537.411 353.853C536.289 352.727 535.659 351.2 535.659 349.607C535.643 337.411 530.806 325.719 522.21 317.096C513.614 308.474 501.96 303.625 489.806 303.613C488.219 303.613 486.697 302.98 485.574 301.854C484.452 300.728 483.822 299.201 483.822 297.608C483.822 296.016 484.452 294.488 485.574 293.362C486.697 292.236 488.219 291.604 489.806 291.604C505.133 291.62 519.829 297.735 530.669 308.609C541.508 319.483 547.607 334.227 547.627 349.607C547.627 351.2 546.996 352.727 545.874 353.853C544.752 354.979 543.23 355.612 541.643 355.612V355.612Z" fill="#C98EF0"/>
<path d="M489.805 381.131C507.156 381.131 521.222 367.017 521.222 349.607C521.222 332.197 507.156 318.083 489.805 318.083C472.455 318.083 458.389 332.197 458.389 349.607C458.389 367.017 472.455 381.131 489.805 381.131Z" fill="white"/>
<path d="M489.806 368.506C500.398 368.506 508.985 359.89 508.985 349.262C508.985 338.633 500.398 330.017 489.806 330.017C479.214 330.017 470.627 338.633 470.627 349.262C470.627 359.89 479.214 368.506 489.806 368.506Z" fill="#861DCB"/>
<path d="M482.116 349.607C485.421 349.607 488.1 346.919 488.1 343.603C488.1 340.286 485.421 337.598 482.116 337.598C478.811 337.598 476.132 340.286 476.132 343.603C476.132 346.919 478.811 349.607 482.116 349.607Z" fill="white"/>
<path d="M376.199 363.838H423.847V368.506C423.847 374.848 421.336 380.931 416.867 385.415C412.397 389.9 406.336 392.419 400.015 392.419C396.886 392.417 393.787 391.797 390.896 390.593C388.006 389.39 385.38 387.627 383.168 385.405C380.957 383.183 379.203 380.545 378.007 377.643C376.811 374.741 376.197 371.632 376.199 368.491V363.823V363.838Z" fill="#C98EF0"/>
<path d="M428.005 302.907C430.641 302.907 432.778 300.763 432.778 298.119C432.778 295.474 430.641 293.33 428.005 293.33C425.37 293.33 423.233 295.474 423.233 298.119C423.233 300.763 425.37 302.907 428.005 302.907Z" fill="#FFDD33"/>
<path d="M460.753 276.863C462.653 276.863 464.194 275.317 464.194 273.41C464.194 271.503 462.653 269.957 460.753 269.957C458.853 269.957 457.312 271.503 457.312 273.41C457.312 275.317 458.853 276.863 460.753 276.863Z" fill="#FFDD33"/>
<path d="M442.532 283.257C445.655 283.257 448.187 280.717 448.187 277.583C448.187 274.449 445.655 271.909 442.532 271.909C439.409 271.909 436.877 274.449 436.877 277.583C436.877 280.717 439.409 283.257 442.532 283.257Z" fill="#FFDD33"/>
<path d="M448.186 302.217C450.558 302.217 452.48 300.288 452.48 297.908C452.48 295.529 450.558 293.6 448.186 293.6C445.815 293.6 443.893 295.529 443.893 297.908C443.893 300.288 445.815 302.217 448.186 302.217Z" fill="#FFDD33"/>
<path d="M426.674 324.493C428.574 324.493 430.115 322.948 430.115 321.041C430.115 319.134 428.574 317.588 426.674 317.588C424.773 317.588 423.233 319.134 423.233 321.041C423.233 322.948 424.773 324.493 426.674 324.493Z" fill="#FFDD33"/>
<path d="M273.961 514.896C276.596 514.896 278.733 512.752 278.733 510.108C278.733 507.463 276.596 505.319 273.961 505.319C271.325 505.319 269.188 507.463 269.188 510.108C269.188 512.752 271.325 514.896 273.961 514.896Z" fill="#FFDD33"/>
<path d="M252.314 525.074C254.33 525.074 255.964 523.421 255.964 521.381C255.964 519.342 254.33 517.688 252.314 517.688C250.298 517.688 248.663 519.342 248.663 521.381C248.663 523.421 250.298 525.074 252.314 525.074Z" fill="#FFDD33"/>
<path d="M283.73 500.455C285.63 500.455 287.171 498.909 287.171 497.003C287.171 495.096 285.63 493.55 283.73 493.55C281.83 493.55 280.289 495.096 280.289 497.003C280.289 498.909 281.83 500.455 283.73 500.455Z" fill="#FFDD33"/>
<path d="M257.789 511.774C259.689 511.774 261.23 510.228 261.23 508.321C261.23 506.414 259.689 504.869 257.789 504.869C255.889 504.869 254.348 506.414 254.348 508.321C254.348 510.228 255.889 511.774 257.789 511.774Z" fill="#FFDD33"/>
<path d="M536.152 517.823C538.788 517.823 540.925 515.679 540.925 513.035C540.925 510.39 538.788 508.246 536.152 508.246C533.517 508.246 531.38 510.39 531.38 513.035C531.38 515.679 533.517 517.823 536.152 517.823Z" fill="#FFDD33"/>
<path d="M560.562 522.018C560.653 519.981 559.094 518.256 557.08 518.166C555.066 518.075 553.36 519.654 553.269 521.691C553.178 523.729 554.737 525.453 556.751 525.544C558.765 525.634 560.472 524.056 560.562 522.018Z" fill="#FFDD33"/>
<path d="M525.097 502.617C526.997 502.617 528.537 501.071 528.537 499.164C528.537 497.257 526.997 495.712 525.097 495.712C523.196 495.712 521.656 497.257 521.656 499.164C521.656 501.071 523.196 502.617 525.097 502.617Z" fill="#FFDD33"/>
<path d="M551.995 511.984C553.896 511.984 555.436 510.438 555.436 508.532C555.436 506.625 553.896 505.079 551.995 505.079C550.095 505.079 548.554 506.625 548.554 508.532C548.554 510.438 550.095 511.984 551.995 511.984Z" fill="#FFDD33"/>
<path d="M44.532 371.073C47.2834 371.073 49.5138 368.835 49.5138 366.074C49.5138 363.314 47.2834 361.076 44.532 361.076C41.7807 361.076 39.5503 363.314 39.5503 366.074C39.5503 368.835 41.7807 371.073 44.532 371.073Z" fill="#FFDD33"/>
<path d="M80.4363 386.925C82.4192 386.925 84.0267 385.312 84.0267 383.322C84.0267 381.333 82.4192 379.72 80.4363 379.72C78.4533 379.72 76.8458 381.333 76.8458 383.322C76.8458 385.312 78.4533 386.925 80.4363 386.925Z" fill="#FFDD33"/>
<path d="M84.0272 372.424C87.2991 372.424 89.9514 369.763 89.9514 366.48C89.9514 363.197 87.2991 360.535 84.0272 360.535C80.7554 360.535 78.103 363.197 78.103 366.48C78.103 369.763 80.7554 372.424 84.0272 372.424Z" fill="#FFDD33"/>
<path d="M101.785 375.922C104.263 375.922 106.273 373.906 106.273 371.418C106.273 368.931 104.263 366.915 101.785 366.915C99.3061 366.915 97.2968 368.931 97.2968 371.418C97.2968 373.906 99.3061 375.922 101.785 375.922Z" fill="#FFDD33"/>
<path d="M61.9907 381.746C65.3039 381.746 67.9897 379.051 67.9897 375.727C67.9897 372.402 65.3039 369.707 61.9907 369.707C58.6776 369.707 55.9917 372.402 55.9917 375.727C55.9917 379.051 58.6776 381.746 61.9907 381.746Z" fill="#FFDD33"/>
<path d="M32.8031 380.065C34.786 380.065 36.3935 378.452 36.3935 376.462C36.3935 374.473 34.786 372.86 32.8031 372.86C30.8201 372.86 29.2126 374.473 29.2126 376.462C29.2126 378.452 30.8201 380.065 32.8031 380.065Z" fill="#FFDD33"/>
<path d="M281.201 131.133C284.911 131.133 287.919 128.115 287.919 124.393C287.919 120.671 284.911 117.653 281.201 117.653C277.492 117.653 274.484 120.671 274.484 124.393C274.484 128.115 277.492 131.133 281.201 131.133Z" fill="#FFDD33"/>
<path d="M257.146 131.854C259.814 131.854 261.978 129.683 261.978 127.005C261.978 124.327 259.814 122.156 257.146 122.156C254.477 122.156 252.313 124.327 252.313 127.005C252.313 129.683 254.477 131.854 257.146 131.854Z" fill="#FFDD33"/>
<path d="M246.434 153.635C250.491 153.635 253.779 150.335 253.779 146.265C253.779 142.194 250.491 138.894 246.434 138.894C242.377 138.894 239.088 142.194 239.088 146.265C239.088 150.335 242.377 153.635 246.434 153.635Z" fill="#FFDD33"/>
<path d="M289.714 78.7737C293.052 78.7737 295.758 76.0585 295.758 72.7091C295.758 69.3598 293.052 66.6446 289.714 66.6446C286.376 66.6446 283.67 69.3598 283.67 72.7091C283.67 76.0585 286.376 78.7737 289.714 78.7737Z" fill="#FFDD33"/>
<path d="M293.738 100.54C297.076 100.54 299.782 97.8249 299.782 94.4755C299.782 91.1261 297.076 88.4109 293.738 88.4109C290.4 88.4109 287.694 91.1261 287.694 94.4755C287.694 97.8249 290.4 100.54 293.738 100.54Z" fill="#FFDD33"/>
<path d="M264.117 109.577C269.091 109.577 273.123 105.531 273.123 100.54C273.123 95.5494 269.091 91.5035 264.117 91.5035C259.143 91.5035 255.111 95.5494 255.111 100.54C255.111 105.531 259.143 109.577 264.117 109.577Z" fill="#FFDD33"/>
<path d="M257.146 171.198C259.814 171.198 261.978 169.027 261.978 166.349C261.978 163.672 259.814 161.501 257.146 161.501C254.477 161.501 252.313 163.672 252.313 166.349C252.313 169.027 254.477 171.198 257.146 171.198Z" fill="#FFDD33"/>
<path d="M710.513 368.656C713.537 368.656 715.988 366.197 715.988 363.162C715.988 360.128 713.537 357.668 710.513 357.668C707.489 357.668 705.037 360.128 705.037 363.162C705.037 366.197 707.489 368.656 710.513 368.656Z" fill="#FFDD33"/>
<path d="M746.298 384.493C748.471 384.493 750.232 382.726 750.232 380.545C750.232 378.365 748.471 376.597 746.298 376.597C744.125 376.597 742.363 378.365 742.363 380.545C742.363 382.726 744.125 384.493 746.298 384.493Z" fill="#FFDD33"/>
<path d="M748.856 370.668C752.442 370.668 755.349 367.751 755.349 364.153C755.349 360.555 752.442 357.638 748.856 357.638C745.27 357.638 742.363 360.555 742.363 364.153C742.363 367.751 745.27 370.668 748.856 370.668Z" fill="#FFDD33"/>
<path d="M765.79 378.474C768.509 378.474 770.712 376.263 770.712 373.535C770.712 370.808 768.509 368.597 765.79 368.597C763.072 368.597 760.868 370.808 760.868 373.535C760.868 376.263 763.072 378.474 765.79 378.474Z" fill="#FFDD33"/>
<path d="M725.802 377.123C729.098 377.123 731.771 374.441 731.771 371.133C731.771 367.826 729.098 365.144 725.802 365.144C722.505 365.144 719.833 367.826 719.833 371.133C719.833 374.441 722.505 377.123 725.802 377.123Z" fill="#FFDD33"/>
<path d="M697.632 378.534C699.805 378.534 701.567 376.766 701.567 374.586C701.567 372.406 699.805 370.638 697.632 370.638C695.459 370.638 693.698 372.406 693.698 374.586C693.698 376.766 695.459 378.534 697.632 378.534Z" fill="#FFDD33"/>
<path d="M380.193 516.397C383.374 516.397 385.952 513.81 385.952 510.618C385.952 507.426 383.374 504.839 380.193 504.839C377.012 504.839 374.433 507.426 374.433 510.618C374.433 513.81 377.012 516.397 380.193 516.397Z" fill="#FFDD33"/>
<path d="M430.504 544.604C432.792 544.604 434.648 542.742 434.648 540.446C434.648 538.149 432.792 536.287 430.504 536.287C428.215 536.287 426.36 538.149 426.36 540.446C426.36 542.742 428.215 544.604 430.504 544.604Z" fill="#FFDD33"/>
<path d="M402.304 498.053C404.593 498.053 406.448 496.192 406.448 493.895C406.448 491.599 404.593 489.737 402.304 489.737C400.015 489.737 398.16 491.599 398.16 493.895C398.16 496.192 400.015 498.053 402.304 498.053Z" fill="#FFDD33"/>
<path d="M426.031 514.986C429.608 514.986 432.509 512.076 432.509 508.486C432.509 504.897 429.608 501.987 426.031 501.987C422.453 501.987 419.553 504.897 419.553 508.486C419.553 512.076 422.453 514.986 426.031 514.986Z" fill="#FFDD33"/>
<path d="M435.695 527.836C438.562 527.836 440.886 525.504 440.886 522.627C440.886 519.75 438.562 517.418 435.695 517.418C432.828 517.418 430.504 519.75 430.504 522.627C430.504 525.504 432.828 527.836 435.695 527.836Z" fill="#FFDD33"/>
<path d="M376.094 543.943C378.837 543.943 381.06 541.712 381.06 538.959C381.06 536.207 378.837 533.976 376.094 533.976C373.351 533.976 371.127 536.207 371.127 538.959C371.127 541.712 373.351 543.943 376.094 543.943Z" fill="#FFDD33"/>
<path d="M366.624 526.785C368.912 526.785 370.768 524.924 370.768 522.627C370.768 520.331 368.912 518.469 366.624 518.469C364.335 518.469 362.48 520.331 362.48 522.627C362.48 524.924 364.335 526.785 366.624 526.785Z" fill="#FFDD33"/>
<path d="M262.92 707.596C265.605 707.596 267.782 705.412 267.782 702.717C267.782 700.023 265.605 697.839 262.92 697.839C260.235 697.839 258.058 700.023 258.058 702.717C258.058 705.412 260.235 707.596 262.92 707.596Z" fill="#FFDD33"/>
<path d="M281.007 700.481C284.196 700.481 286.782 697.886 286.782 694.686C286.782 691.486 284.196 688.892 281.007 688.892C277.818 688.892 275.233 691.486 275.233 694.686C275.233 697.886 277.818 700.481 281.007 700.481Z" fill="#FFDD33"/>
<path d="M292.96 712.414C295.381 712.414 297.343 710.445 297.343 708.016C297.343 705.587 295.381 703.618 292.96 703.618C290.539 703.618 288.577 705.587 288.577 708.016C288.577 710.445 290.539 712.414 292.96 712.414Z" fill="#FFDD33"/>
<path d="M337.796 709.202C340.217 709.202 342.179 707.233 342.179 704.804C342.179 702.375 340.217 700.405 337.796 700.405C335.375 700.405 333.412 702.375 333.412 704.804C333.412 707.233 335.375 709.202 337.796 709.202Z" fill="#FFDD33"/>
<path d="M319.35 705.659C322.828 705.659 325.648 702.83 325.648 699.34C325.648 695.849 322.828 693.02 319.35 693.02C315.871 693.02 313.052 695.849 313.052 699.34C313.052 702.83 315.871 705.659 319.35 705.659Z" fill="#FFDD33"/>
<path d="M246.628 697.839C248.562 697.839 250.129 696.266 250.129 694.326C250.129 692.386 248.562 690.813 246.628 690.813C244.695 690.813 243.127 692.386 243.127 694.326C243.127 696.266 244.695 697.839 246.628 697.839Z" fill="#FFDD33"/>
<path d="M536.855 697.809C538.624 697.809 540.057 696.37 540.057 694.596C540.057 692.822 538.624 691.384 536.855 691.384C535.087 691.384 533.654 692.822 533.654 694.596C533.654 696.37 535.087 697.809 536.855 697.809Z" fill="#FFDD33"/>
<path d="M502.088 703.933C504.592 703.933 506.621 701.897 506.621 699.385C506.621 696.873 504.592 694.836 502.088 694.836C499.585 694.836 497.555 696.873 497.555 699.385C497.555 701.897 499.585 703.933 502.088 703.933Z" fill="#FFDD33"/>
<path d="M552.1 702.087C555.016 702.087 557.381 699.714 557.381 696.788C557.381 693.861 555.016 691.489 552.1 691.489C549.183 691.489 546.819 693.861 546.819 696.788C546.819 699.714 549.183 702.087 552.1 702.087Z" fill="#FFDD33"/>
<path d="M565.519 690.303C567.725 690.303 569.513 688.509 569.513 686.295C569.513 684.081 567.725 682.287 565.519 682.287C563.313 682.287 561.525 684.081 561.525 686.295C561.525 688.509 563.313 690.303 565.519 690.303Z" fill="#FFDD33"/>
<path d="M471.031 706.08C473.782 706.08 476.012 703.842 476.012 701.081C476.012 698.32 473.782 696.082 471.031 696.082C468.279 696.082 466.049 698.32 466.049 701.081C466.049 703.842 468.279 706.08 471.031 706.08Z" fill="#FFDD33"/>
<path d="M487.487 710.358C489.255 710.358 490.688 708.92 490.688 707.145C490.688 705.371 489.255 703.933 487.487 703.933C485.719 703.933 484.285 705.371 484.285 707.145C484.285 708.92 485.719 710.358 487.487 710.358Z" fill="#FFDD33"/>
<path d="M515.687 713.03C518.108 713.03 520.07 711.061 520.07 708.632C520.07 706.203 518.108 704.233 515.687 704.233C513.266 704.233 511.304 706.203 511.304 708.632C511.304 711.061 513.266 713.03 515.687 713.03Z" fill="#FFDD33"/>
<path d="M127.74 607.831C130.731 607.831 133.156 605.398 133.156 602.397C133.156 599.396 130.731 596.963 127.74 596.963C124.749 596.963 122.325 599.396 122.325 602.397C122.325 605.398 124.749 607.831 127.74 607.831Z" fill="#FFDD33"/>
<path d="M140.696 591.799C142.629 591.799 144.197 590.226 144.197 588.286C144.197 586.346 142.629 584.774 140.696 584.774C138.763 584.774 137.195 586.346 137.195 588.286C137.195 590.226 138.763 591.799 140.696 591.799Z" fill="#FFDD33"/>
<path d="M165.5 610.728C168.127 610.728 170.257 608.591 170.257 605.955C170.257 603.318 168.127 601.181 165.5 601.181C162.872 601.181 160.743 603.318 160.743 605.955C160.743 608.591 162.872 610.728 165.5 610.728Z" fill="#FFDD33"/>
<path d="M182.839 605.084C185.26 605.084 187.222 603.115 187.222 600.686C187.222 598.256 185.26 596.287 182.839 596.287C180.418 596.287 178.456 598.256 178.456 600.686C178.456 603.115 180.418 605.084 182.839 605.084Z" fill="#FFDD33"/>
<path d="M150.689 603.808C153.077 603.808 155.013 601.866 155.013 599.47C155.013 597.074 153.077 595.132 150.689 595.132C148.302 595.132 146.366 597.074 146.366 599.47C146.366 601.866 148.302 603.808 150.689 603.808Z" fill="#FFDD33"/>
<path d="M117.298 593.15C119.232 593.15 120.799 591.577 120.799 589.637C120.799 587.697 119.232 586.125 117.298 586.125C115.365 586.125 113.798 587.697 113.798 589.637C113.798 591.577 115.365 593.15 117.298 593.15Z" fill="#FFDD33"/>
<path d="M637.717 611.869C639.865 611.869 641.606 610.122 641.606 607.966C641.606 605.811 639.865 604.063 637.717 604.063C635.568 604.063 633.827 605.811 633.827 607.966C633.827 610.122 635.568 611.869 637.717 611.869Z" fill="#FFDD33"/>
<path d="M680.398 610.233C682.273 610.233 683.794 608.707 683.794 606.825C683.794 604.943 682.273 603.418 680.398 603.418C678.522 603.418 677.002 604.943 677.002 606.825C677.002 608.707 678.522 610.233 680.398 610.233Z" fill="#FFDD33"/>
<path d="M670.509 603.403C673.203 603.403 675.386 601.212 675.386 598.509C675.386 595.806 673.203 593.615 670.509 593.615C667.816 593.615 665.632 595.806 665.632 598.509C665.632 601.212 667.816 603.403 670.509 603.403Z" fill="#FFDD33"/>
<path d="M694.789 604.694C697.136 604.694 699.038 602.785 699.038 600.43C699.038 598.076 697.136 596.167 694.789 596.167C692.443 596.167 690.541 598.076 690.541 600.43C690.541 602.785 692.443 604.694 694.789 604.694Z" fill="#FFDD33"/>
<path d="M658.676 614.361C661.262 614.361 663.359 612.257 663.359 609.662C663.359 607.068 661.262 604.964 658.676 604.964C656.09 604.964 653.994 607.068 653.994 609.662C653.994 612.257 656.09 614.361 658.676 614.361Z" fill="#FFDD33"/>
<path d="M650.029 604.228C651.904 604.228 653.425 602.703 653.425 600.821C653.425 598.939 651.904 597.413 650.029 597.413C648.153 597.413 646.633 598.939 646.633 600.821C646.633 602.703 648.153 604.228 650.029 604.228Z" fill="#FFDD33"/>
</svg>
