<svg width="42" height="42" viewBox="0 0 42 42" fill="none" xmlns="http://www.w3.org/2000/svg">
<rect width="42" height="42" rx="16" fill="white"/>
<g clip-path="url(#clip0)">
<path d="M29.5641 21.1969C29.5641 20.6208 29.513 20.0739 29.4255 19.5417H21.1859V22.8302H25.9037C25.6922 23.9094 25.0724 24.8208 24.1537 25.4406V27.6281H26.9682C28.6162 26.1042 29.5641 23.8583 29.5641 21.1969Z" fill="#4285F4"/>
<path d="M21.1859 29.75C23.5484 29.75 25.5245 28.9625 26.9682 27.6281L24.1537 25.4406C23.3662 25.9656 22.3672 26.2865 21.1859 26.2865C18.9037 26.2865 16.9714 24.7479 16.2787 22.6698H13.3766V24.9229C14.813 27.7813 17.7662 29.75 21.1859 29.75Z" fill="#34A853"/>
<path d="M16.2787 22.6698C16.0964 22.1448 16.0016 21.5833 16.0016 21C16.0016 20.4167 16.1037 19.8552 16.2787 19.3302V17.0771H13.3766C12.7787 18.2583 12.4359 19.5854 12.4359 21C12.4359 22.4146 12.7787 23.7417 13.3766 24.9229L16.2787 22.6698Z" fill="#FBBC05"/>
<path d="M21.1859 15.7135C22.4766 15.7135 23.6287 16.1583 24.5401 17.026L27.0339 14.5323C25.5245 13.1177 23.5484 12.25 21.1859 12.25C17.7662 12.25 14.813 14.2188 13.3766 17.0771L16.2787 19.3302C16.9714 17.2521 18.9037 15.7135 21.1859 15.7135Z" fill="#EA4335"/>
</g>
<defs>
<clipPath id="clip0">
<rect x="12.25" y="12.25" width="17.5" height="17.5" rx="8.75" fill="white"/>
</clipPath>
</defs>
</svg>
