<svg width="40" height="40" viewBox="0 0 40 40" fill="none" xmlns="http://www.w3.org/2000/svg">
<rect width="40" height="40" rx="16" fill="white"/>
<g clip-path="url(#clip0)">
<path d="M28.1562 20.1875C28.1562 19.6389 28.1076 19.1181 28.0243 18.6111H20.1771V21.7431H24.6701C24.4687 22.7708 23.8785 23.6389 23.0035 24.2292V26.3125H25.684C27.2535 24.8611 28.1562 22.7222 28.1562 20.1875Z" fill="#4285F4"/>
<path d="M20.1771 28.3333C22.4271 28.3333 24.309 27.5833 25.684 26.3125L23.0035 24.2292C22.2535 24.7292 21.3021 25.0347 20.1771 25.0347C18.0035 25.0347 16.1632 23.5694 15.5035 21.5903H12.7396V23.7361C14.1076 26.4583 16.9201 28.3333 20.1771 28.3333Z" fill="#34A853"/>
<path d="M15.5035 21.5903C15.3299 21.0903 15.2396 20.5556 15.2396 20C15.2396 19.4444 15.3368 18.9097 15.5035 18.4097V16.2639H12.7396C12.1701 17.3889 11.8438 18.6528 11.8438 20C11.8438 21.3472 12.1701 22.6111 12.7396 23.7361L15.5035 21.5903Z" fill="#FBBC05"/>
<path d="M20.1771 14.9653C21.4062 14.9653 22.5035 15.3889 23.3715 16.2153L25.7465 13.8403C24.309 12.493 22.4271 11.6667 20.1771 11.6667C16.9201 11.6667 14.1076 13.5417 12.7396 16.2639L15.5035 18.4097C16.1632 16.4305 18.0035 14.9653 20.1771 14.9653Z" fill="#EA4335"/>
</g>
<defs>
<clipPath id="clip0">
<rect x="11.6667" y="11.6667" width="16.6667" height="16.6667" rx="8.33333" fill="white"/>
</clipPath>
</defs>
</svg>
