<svg width="140" height="28" viewBox="0 0 140 28" fill="none" xmlns="http://www.w3.org/2000/svg">
<path d="M22.3863 7.4678C22.3866 6.26344 22.104 5.0769 21.5627 4.0094C21.0214 2.94191 20.2375 2.02515 19.2778 1.33734C18.318 0.649536 17.2111 0.211098 16.0513 0.0594368C14.8915 -0.0922247 13.7132 0.0473917 12.6172 0.466374C11.5211 0.885356 10.5396 1.57127 9.75661 2.46559C8.97357 3.35991 8.41217 4.43609 8.1203 5.60231C7.82843 6.76854 7.81476 7.99019 8.08045 9.16303C8.34614 10.3359 8.88331 11.4251 9.64613 12.3378C9.48808 12.6214 9.3858 12.9343 9.34514 13.2586C9.30448 13.583 9.32623 13.9124 9.40915 14.228C9.49207 14.5437 9.63453 14.8395 9.8284 15.0984C10.0223 15.3574 10.2638 15.5745 10.5391 15.7373C10.8144 15.9001 11.1181 16.0054 11.433 16.0473C11.7478 16.0892 12.0676 16.0668 12.374 15.9814C12.6804 15.896 12.9675 15.7492 13.2189 15.5495C13.4703 15.3498 13.681 15.101 13.8391 14.8174C14.6985 14.9768 15.5787 14.9768 16.4381 14.8174C16.5944 15.104 16.8044 15.3559 17.0557 15.5585C17.3071 15.7611 17.5949 15.9105 17.9026 15.9979C18.2103 16.0853 18.5317 16.1091 18.8484 16.0679C19.165 16.0267 19.4706 15.9213 19.7475 15.7578C20.0244 15.5943 20.2671 15.3759 20.4617 15.1152C20.6562 14.8546 20.7987 14.5568 20.8809 14.2391C20.9632 13.9214 20.9835 13.5901 20.9408 13.2643C20.8981 12.9384 20.7932 12.6245 20.6321 12.3407C21.7666 10.9865 22.3894 9.25655 22.3863 7.4678Z" fill="#4B0875"/>
<path d="M14.9184 0.669998C16.7057 0.671081 18.4195 1.40322 19.683 2.70549C20.9465 4.00775 21.6564 5.77357 21.6565 7.61478" fill="#4B0875"/>
<path d="M11.7378 14.8086C12.3945 14.8086 12.9269 14.2602 12.9269 13.5837C12.9269 12.9072 12.3945 12.3588 11.7378 12.3588C11.0811 12.3588 10.5487 12.9072 10.5487 13.5837C10.5487 14.2602 11.0811 14.8086 11.7378 14.8086Z" fill="#4B0875"/>
<path d="M11.7378 14.3181C12.1387 14.3181 12.4637 13.9833 12.4637 13.5703C12.4637 13.1573 12.1387 12.8225 11.7378 12.8225C11.3369 12.8225 11.0119 13.1573 11.0119 13.5703C11.0119 13.9833 11.3369 14.3181 11.7378 14.3181Z" fill="#4B0875"/>
<path d="M11.4468 13.5837C11.5718 13.5837 11.6732 13.4792 11.6732 13.3504C11.6732 13.2215 11.5718 13.1171 11.4468 13.1171C11.3217 13.1171 11.2203 13.2215 11.2203 13.3504C11.2203 13.4792 11.3217 13.5837 11.4468 13.5837Z" fill="#4B0875"/>
<path d="M18.5388 11.5631C18.7964 11.5631 19.0515 11.6153 19.2895 11.7168C19.5276 11.8183 19.7439 11.9671 19.9261 12.1547C20.1083 12.3424 20.2528 12.5651 20.3514 12.8103C20.45 13.0555 20.5008 13.3183 20.5008 13.5837" fill="#4B0875"/>
<path d="M18.5388 14.8086C19.1956 14.8086 19.7279 14.2602 19.7279 13.5837C19.7279 12.9072 19.1956 12.3588 18.5388 12.3588C17.8821 12.3588 17.3498 12.9072 17.3498 13.5837C17.3498 14.2602 17.8821 14.8086 18.5388 14.8086Z" fill="#4B0875"/>
<path d="M18.5388 14.3181C18.9398 14.3181 19.2648 13.9833 19.2648 13.5703C19.2648 13.1573 18.9398 12.8225 18.5388 12.8225C18.1379 12.8225 17.8129 13.1573 17.8129 13.5703C17.8129 13.9833 18.1379 14.3181 18.5388 14.3181Z" fill="#4B0875"/>
<path d="M18.2478 13.5837C18.3729 13.5837 18.4743 13.4792 18.4743 13.3504C18.4743 13.2215 18.3729 13.1171 18.2478 13.1171C18.1227 13.1171 18.0213 13.2215 18.0213 13.3504C18.0213 13.4792 18.1227 13.5837 18.2478 13.5837Z" fill="#4B0875"/>
<path d="M19.7234 14.8022H10.5539V16.5533H19.7234V14.8022Z" fill="#4B0875"/>
<path d="M14.2388 14.1367H16.0423V14.3181C16.0423 14.5645 15.9473 14.8009 15.7781 14.9752C15.6089 15.1494 15.3795 15.2473 15.1403 15.2473C15.0218 15.2472 14.9046 15.2231 14.7951 15.1764C14.6857 15.1296 14.5863 15.0611 14.5026 14.9747C14.4189 14.8884 14.3526 14.7859 14.3073 14.6732C14.262 14.5604 14.2388 14.4395 14.2388 14.3175V14.1367Z" fill="#4B0875"/>
<path d="M29.0175 13.5802H25.7005C25.0477 13.5802 24.4215 13.8463 23.9586 14.3204C23.4957 14.7946 23.2338 15.4381 23.23 16.1106V18.0255C23.23 18.1493 23.1823 18.268 23.0974 18.3555C23.0124 18.443 22.8972 18.4922 22.7771 18.4922H21.8892C21.7739 18.4924 21.6629 18.4474 21.5787 18.3662C21.4945 18.285 21.4436 18.1738 21.4362 18.0553C21.4968 16.772 20.5076 15.6719 19.2511 15.6766H11.0244C9.76676 15.6719 8.77812 16.7726 8.83927 18.057C8.83559 18.1783 8.78625 18.2932 8.70169 18.3776C8.61714 18.462 8.50401 18.5092 8.38629 18.5091H7.5007C7.38056 18.5091 7.26534 18.4599 7.18039 18.3724C7.09544 18.2849 7.04772 18.1662 7.04772 18.0425V16.1275C7.04413 15.4551 6.78232 14.8115 6.31951 14.3374C5.8567 13.8633 5.23053 13.5971 4.57782 13.5971H1.26196C1.09753 13.5935 0.93404 13.6237 0.781093 13.686C0.628146 13.7484 0.488816 13.8415 0.371276 13.96C0.253735 14.0786 0.16035 14.2201 0.096595 14.3762C0.0328403 14.5324 0 14.7002 0 14.8696C0 15.039 0.0328403 15.2068 0.096595 15.3629C0.16035 15.5191 0.253735 15.6606 0.371276 15.7792C0.488816 15.8977 0.628146 15.9908 0.781093 16.0531C0.93404 16.1155 1.09753 16.1457 1.26196 16.1421H4.12426C4.2444 16.1421 4.35962 16.1912 4.44457 16.2787C4.52952 16.3663 4.57725 16.4849 4.57725 16.6087V18.5109C4.5775 19.1685 4.82485 19.8005 5.26746 20.2744C5.71006 20.7483 6.31356 21.0273 6.95146 21.0529H8.9361C9.56836 21.0275 10.1671 20.7533 10.6088 20.2866C11.0506 19.8199 11.3016 19.1964 11.3103 18.5447V18.5482C11.31 18.4869 11.3214 18.4262 11.3439 18.3694C11.3664 18.3127 11.3995 18.2611 11.4414 18.2175C11.4832 18.174 11.533 18.1394 11.5878 18.1156C11.6427 18.0919 11.7015 18.0795 11.761 18.0792C11.8205 18.0789 11.8795 18.0907 11.9345 18.1138C11.9896 18.137 12.0397 18.1711 12.082 18.2142C12.1243 18.2573 12.1579 18.3086 12.1809 18.3651C12.204 18.4216 12.216 18.4822 12.2163 18.5435V24.9902C12.2163 25.1139 12.1685 25.2326 12.0836 25.3201C11.9986 25.4076 11.8834 25.4568 11.7633 25.4568H10.8743C10.7542 25.4568 10.6389 25.4076 10.554 25.3201C10.469 25.2326 10.4213 25.1139 10.4213 24.9902V24.1683C10.4183 23.4959 10.1571 22.852 9.69475 22.3773C9.23238 21.9026 8.60645 21.6358 7.95369 21.635H4.63614C4.4717 21.6314 4.30821 21.6616 4.15527 21.7239C4.00232 21.7863 3.86299 21.8794 3.74545 21.9979C3.62791 22.1164 3.53452 22.2579 3.47077 22.4141C3.40701 22.5703 3.37417 22.7381 3.37417 22.9075C3.37417 23.0769 3.40701 23.2446 3.47077 23.4008C3.53452 23.557 3.62791 23.6985 3.74545 23.817C3.86299 23.9356 4.00232 24.0287 4.15527 24.091C4.30821 24.1534 4.4717 24.1836 4.63614 24.18H7.5007C7.62084 24.18 7.73606 24.2291 7.82101 24.3166C7.90596 24.4041 7.95369 24.5228 7.95369 24.6466V25.4568C7.95414 26.1311 8.2143 26.7776 8.67707 27.2544C9.13983 27.7312 9.76737 27.9994 10.4219 28H12.2146C12.5391 28.0001 12.8604 27.9343 13.1602 27.8064C13.46 27.6786 13.7324 27.4911 13.9618 27.2548C14.1913 27.0185 14.3733 26.7379 14.4975 26.4291C14.6217 26.1203 14.6856 25.7893 14.6856 25.4551V18.0804V20.2421C14.6852 20.1183 14.7326 19.9995 14.8173 19.9117C14.902 19.8239 15.017 19.7744 15.1372 19.774C15.2573 19.7736 15.3727 19.8224 15.4579 19.9096C15.5431 19.9969 15.5912 20.1154 15.5916 20.2392V25.4516C15.5911 25.786 15.6547 26.1173 15.7786 26.4264C15.9025 26.7355 16.0844 27.0165 16.3138 27.2532C16.5431 27.4898 16.8156 27.6776 17.1155 27.8058C17.4154 27.9339 17.7368 27.9999 18.0615 28H19.8547C20.5099 28 21.1383 27.7319 21.6016 27.2546C22.0649 26.7773 22.3252 26.13 22.3252 25.4551V24.6437C22.3252 24.5199 22.3729 24.4012 22.4579 24.3137C22.5428 24.2262 22.6581 24.177 22.7782 24.177H25.6405C25.8049 24.1807 25.9684 24.1504 26.1214 24.0881C26.2743 24.0258 26.4136 23.9326 26.5312 23.8141C26.6487 23.6956 26.7421 23.5541 26.8059 23.3979C26.8696 23.2417 26.9025 23.074 26.9025 22.9046C26.9025 22.7351 26.8696 22.5674 26.8059 22.4112C26.7421 22.255 26.6487 22.1135 26.5312 21.995C26.4136 21.8765 26.2743 21.7833 26.1214 21.721C25.9684 21.6587 25.8049 21.6285 25.6405 21.6321H22.3252C21.672 21.6321 21.0453 21.8986 20.5823 22.3734C20.1193 22.8481 19.8577 23.4924 19.8547 24.1654V24.9872C19.8547 25.111 19.807 25.2297 19.7221 25.3172C19.6371 25.4047 19.5219 25.4539 19.4018 25.4539H18.5139C18.3938 25.4539 18.2785 25.4047 18.1936 25.3172C18.1086 25.2297 18.0609 25.111 18.0609 24.9872V18.5365C18.0624 18.4247 18.1027 18.3172 18.1746 18.2335C18.2465 18.1498 18.3452 18.0955 18.4527 18.0804H18.5734C18.6817 18.0956 18.7811 18.1507 18.8531 18.2355C18.9252 18.3203 18.965 18.4291 18.9652 18.5418V18.4922C18.9655 19.1672 19.2259 19.8144 19.6893 20.2916C20.1527 20.7688 20.781 21.037 21.4362 21.0371H23.2295C23.8847 21.0371 24.5132 20.769 24.9766 20.2918C25.44 19.8145 25.7004 19.1672 25.7005 18.4922V16.5912C25.7005 16.4674 25.7482 16.3488 25.8332 16.2612C25.9181 16.1737 26.0334 16.1246 26.1535 16.1246H29.0175C29.1819 16.1282 29.3454 16.098 29.4984 16.0356C29.6513 15.9733 29.7906 15.8802 29.9082 15.7617C30.0257 15.6431 30.1191 15.5016 30.1829 15.3454C30.2466 15.1893 30.2795 15.0215 30.2795 14.8521C30.2795 14.6827 30.2466 14.5149 30.1829 14.3587C30.1191 14.2026 30.0257 14.0611 29.9082 13.9425C29.7906 13.824 29.6513 13.7309 29.4984 13.6685C29.3454 13.6062 29.1819 13.5766 29.0175 13.5802Z" fill="#4B0875"/>
<path d="M16.1352 11.7691C16.235 11.7691 16.3159 11.6858 16.3159 11.583C16.3159 11.4802 16.235 11.3969 16.1352 11.3969C16.0355 11.3969 15.9546 11.4802 15.9546 11.583C15.9546 11.6858 16.0355 11.7691 16.1352 11.7691Z" fill="#4B0875"/>
<path d="M17.3747 10.757C17.4466 10.757 17.5049 10.697 17.5049 10.6229C17.5049 10.5488 17.4466 10.4887 17.3747 10.4887C17.3028 10.4887 17.2445 10.5488 17.2445 10.6229C17.2445 10.697 17.3028 10.757 17.3747 10.757Z" fill="#4B0875"/>
<path d="M16.6845 11.0055C16.8027 11.0055 16.8985 10.9068 16.8985 10.7851C16.8985 10.6633 16.8027 10.5646 16.6845 10.5646C16.5663 10.5646 16.4704 10.6633 16.4704 10.7851C16.4704 10.9068 16.5663 11.0055 16.6845 11.0055Z" fill="#4B0875"/>
<path d="M16.899 11.7423C16.9887 11.7423 17.0615 11.6673 17.0615 11.5748C17.0615 11.4824 16.9887 11.4074 16.899 11.4074C16.8092 11.4074 16.7365 11.4824 16.7365 11.5748C16.7365 11.6673 16.8092 11.7423 16.899 11.7423Z" fill="#4B0875"/>
<path d="M16.0842 12.6079C16.1562 12.6079 16.2145 12.5478 16.2145 12.4737C16.2145 12.3996 16.1562 12.3396 16.0842 12.3396C16.0123 12.3396 15.954 12.3996 15.954 12.4737C15.954 12.5478 16.0123 12.6079 16.0842 12.6079Z" fill="#4B0875"/>
<path d="M10.3046 20.0064C10.4044 20.0064 10.4853 19.9231 10.4853 19.8204C10.4853 19.7176 10.4044 19.6343 10.3046 19.6343C10.2049 19.6343 10.124 19.7176 10.124 19.8204C10.124 19.9231 10.2049 20.0064 10.3046 20.0064Z" fill="#4B0875"/>
<path d="M9.48474 20.4019C9.56104 20.4019 9.6229 20.3377 9.6229 20.2584C9.6229 20.1792 9.56104 20.1149 9.48474 20.1149C9.40843 20.1149 9.34658 20.1792 9.34658 20.2584C9.34658 20.3377 9.40843 20.4019 9.48474 20.4019Z" fill="#4B0875"/>
<path d="M10.6744 19.4453C10.7463 19.4453 10.8046 19.3852 10.8046 19.3111C10.8046 19.237 10.7463 19.177 10.6744 19.177C10.6024 19.177 10.5441 19.237 10.5441 19.3111C10.5441 19.3852 10.6024 19.4453 10.6744 19.4453Z" fill="#4B0875"/>
<path d="M9.69255 19.8851C9.76448 19.8851 9.82278 19.825 9.82278 19.751C9.82278 19.6769 9.76448 19.6168 9.69255 19.6168C9.62062 19.6168 9.56232 19.6769 9.56232 19.751C9.56232 19.825 9.62062 19.8851 9.69255 19.8851Z" fill="#4B0875"/>
<path d="M20.2284 20.1202C20.3281 20.1202 20.409 20.0369 20.409 19.9341C20.409 19.8314 20.3281 19.748 20.2284 19.748C20.1286 19.748 20.0478 19.8314 20.0478 19.9341C20.0478 20.0369 20.1286 20.1202 20.2284 20.1202Z" fill="#4B0875"/>
<path d="M21.1523 20.2831C21.1557 20.2039 21.0967 20.1369 21.0205 20.1334C20.9443 20.1299 20.8797 20.1912 20.8762 20.2704C20.8728 20.3496 20.9318 20.4166 21.008 20.4201C21.0843 20.4236 21.1489 20.3623 21.1523 20.2831Z" fill="#4B0875"/>
<path d="M19.8101 19.5293C19.882 19.5293 19.9403 19.4692 19.9403 19.3951C19.9403 19.321 19.882 19.261 19.8101 19.261C19.7381 19.261 19.6798 19.321 19.6798 19.3951C19.6798 19.4692 19.7381 19.5293 19.8101 19.5293Z" fill="#4B0875"/>
<path d="M20.8282 19.8933C20.9001 19.8933 20.9584 19.8332 20.9584 19.7591C20.9584 19.685 20.9001 19.625 20.8282 19.625C20.7562 19.625 20.6979 19.685 20.6979 19.7591C20.6979 19.8332 20.7562 19.8933 20.8282 19.8933Z" fill="#4B0875"/>
<path d="M1.62102 14.4178C1.72516 14.4178 1.80958 14.3309 1.80958 14.2236C1.80958 14.1163 1.72516 14.0294 1.62102 14.0294C1.51689 14.0294 1.43247 14.1163 1.43247 14.2236C1.43247 14.3309 1.51689 14.4178 1.62102 14.4178Z" fill="#4B0875"/>
<path d="M2.97989 15.0338C3.05494 15.0338 3.11579 14.9711 3.11579 14.8938C3.11579 14.8165 3.05494 14.7538 2.97989 14.7538C2.90484 14.7538 2.84399 14.8165 2.84399 14.8938C2.84399 14.9711 2.90484 15.0338 2.97989 15.0338Z" fill="#4B0875"/>
<path d="M3.11585 14.4703C3.23969 14.4703 3.34008 14.3669 3.34008 14.2393C3.34008 14.1118 3.23969 14.0084 3.11585 14.0084C2.99202 14.0084 2.89163 14.1118 2.89163 14.2393C2.89163 14.3669 2.99202 14.4703 3.11585 14.4703Z" fill="#4B0875"/>
<path d="M3.7879 14.6063C3.88172 14.6063 3.95777 14.5279 3.95777 14.4313C3.95777 14.3346 3.88172 14.2563 3.7879 14.2563C3.69409 14.2563 3.61803 14.3346 3.61803 14.4313C3.61803 14.5279 3.69409 14.6063 3.7879 14.6063Z" fill="#4B0875"/>
<path d="M2.28168 14.8325C2.40708 14.8325 2.50874 14.7278 2.50874 14.5986C2.50874 14.4695 2.40708 14.3647 2.28168 14.3647C2.15628 14.3647 2.05462 14.4695 2.05462 14.5986C2.05462 14.7278 2.15628 14.8325 2.28168 14.8325Z" fill="#4B0875"/>
<path d="M1.17699 14.7672C1.25205 14.7672 1.31289 14.7046 1.31289 14.6272C1.31289 14.5499 1.25205 14.4873 1.17699 14.4873C1.10194 14.4873 1.0411 14.5499 1.0411 14.6272C1.0411 14.7046 1.10194 14.7672 1.17699 14.7672Z" fill="#4B0875"/>
<path d="M10.5788 5.09435C10.7192 5.09435 10.833 4.97709 10.833 4.83245C10.833 4.68781 10.7192 4.57055 10.5788 4.57055C10.4384 4.57055 10.3246 4.68781 10.3246 4.83245C10.3246 4.97709 10.4384 5.09435 10.5788 5.09435Z" fill="#4B0875"/>
<path d="M9.66823 5.12236C9.76924 5.12236 9.85113 5.03801 9.85113 4.93395C9.85113 4.8299 9.76924 4.74555 9.66823 4.74555C9.56722 4.74555 9.48534 4.8299 9.48534 4.93395C9.48534 5.03801 9.56722 5.12236 9.66823 5.12236Z" fill="#4B0875"/>
<path d="M9.26287 5.96871C9.41641 5.96871 9.54089 5.84049 9.54089 5.68231C9.54089 5.52414 9.41641 5.39591 9.26287 5.39591C9.10932 5.39591 8.98485 5.52414 8.98485 5.68231C8.98485 5.84049 9.10932 5.96871 9.26287 5.96871Z" fill="#4B0875"/>
<path d="M10.9003 3.05977C11.0266 3.05977 11.1291 2.95427 11.1291 2.82412C11.1291 2.69397 11.0266 2.58847 10.9003 2.58847C10.774 2.58847 10.6715 2.69397 10.6715 2.82412C10.6715 2.95427 10.774 3.05977 10.9003 3.05977Z" fill="#4B0875"/>
<path d="M11.0532 3.90557C11.1796 3.90557 11.282 3.80006 11.282 3.66992C11.282 3.53977 11.1796 3.43426 11.0532 3.43426C10.9269 3.43426 10.8245 3.53977 10.8245 3.66992C10.8245 3.80006 10.9269 3.90557 11.0532 3.90557Z" fill="#4B0875"/>
<path d="M9.93209 4.25672C10.1203 4.25672 10.273 4.0995 10.273 3.90557C10.273 3.71164 10.1203 3.55442 9.93209 3.55442C9.74383 3.55442 9.59122 3.71164 9.59122 3.90557C9.59122 4.0995 9.74383 4.25672 9.93209 4.25672Z" fill="#4B0875"/>
<path d="M9.66823 6.65118C9.76924 6.65118 9.85113 6.56683 9.85113 6.46277C9.85113 6.35872 9.76924 6.27437 9.66823 6.27437C9.56722 6.27437 9.48534 6.35872 9.48534 6.46277C9.48534 6.56683 9.56722 6.65118 9.66823 6.65118Z" fill="#4B0875"/>
<path d="M26.8279 14.3239C26.9424 14.3239 27.0352 14.2283 27.0352 14.1104C27.0352 13.9925 26.9424 13.8969 26.8279 13.8969C26.7135 13.8969 26.6207 13.9925 26.6207 14.1104C26.6207 14.2283 26.7135 14.3239 26.8279 14.3239Z" fill="#4B0875"/>
<path d="M28.1817 14.9393C28.264 14.9393 28.3306 14.8706 28.3306 14.7859C28.3306 14.7012 28.264 14.6325 28.1817 14.6325C28.0995 14.6325 28.0328 14.7012 28.0328 14.7859C28.0328 14.8706 28.0995 14.9393 28.1817 14.9393Z" fill="#4B0875"/>
<path d="M28.2785 14.4021C28.4143 14.4021 28.5243 14.2888 28.5243 14.1489C28.5243 14.0091 28.4143 13.8958 28.2785 13.8958C28.1428 13.8958 28.0328 14.0091 28.0328 14.1489C28.0328 14.2888 28.1428 14.4021 28.2785 14.4021Z" fill="#4B0875"/>
<path d="M28.9201 14.7054C29.023 14.7054 29.1064 14.6195 29.1064 14.5135C29.1064 14.4075 29.023 14.3216 28.9201 14.3216C28.8173 14.3216 28.7338 14.4075 28.7338 14.5135C28.7338 14.6195 28.8173 14.7054 28.9201 14.7054Z" fill="#4B0875"/>
<path d="M27.4059 14.6529C27.5307 14.6529 27.6319 14.5487 27.6319 14.4202C27.6319 14.2916 27.5307 14.1874 27.4059 14.1874C27.2812 14.1874 27.18 14.2916 27.18 14.4202C27.18 14.5487 27.2812 14.6529 27.4059 14.6529Z" fill="#4B0875"/>
<path d="M26.3403 14.7078C26.4226 14.7078 26.4893 14.6391 26.4893 14.5543C26.4893 14.4696 26.4226 14.4009 26.3403 14.4009C26.2581 14.4009 26.1914 14.4696 26.1914 14.5543C26.1914 14.6391 26.2581 14.7078 26.3403 14.7078Z" fill="#4B0875"/>
<path d="M14.3249 20.0648C14.4453 20.0648 14.5429 19.9643 14.5429 19.8402C14.5429 19.7162 14.4453 19.6157 14.3249 19.6157C14.2045 19.6157 14.1069 19.7162 14.1069 19.8402C14.1069 19.9643 14.2045 20.0648 14.3249 20.0648Z" fill="#4B0875"/>
<path d="M16.2297 21.1608C16.3163 21.1608 16.3866 21.0885 16.3866 20.9992C16.3866 20.91 16.3163 20.8377 16.2297 20.8377C16.1431 20.8377 16.0729 20.91 16.0729 20.9992C16.0729 21.0885 16.1431 21.1608 16.2297 21.1608Z" fill="#4B0875"/>
<path d="M15.1624 19.352C15.249 19.352 15.3192 19.2796 15.3192 19.1904C15.3192 19.1012 15.249 19.0288 15.1624 19.0288C15.0757 19.0288 15.0055 19.1012 15.0055 19.1904C15.0055 19.2796 15.0757 19.352 15.1624 19.352Z" fill="#4B0875"/>
<path d="M16.0604 20.0099C16.1958 20.0099 16.3056 19.8969 16.3056 19.7574C16.3056 19.6179 16.1958 19.5048 16.0604 19.5048C15.925 19.5048 15.8152 19.6179 15.8152 19.7574C15.8152 19.8969 15.925 20.0099 16.0604 20.0099Z" fill="#4B0875"/>
<path d="M16.4262 20.5093C16.5348 20.5093 16.6227 20.4187 16.6227 20.3069C16.6227 20.1951 16.5348 20.1045 16.4262 20.1045C16.3177 20.1045 16.2298 20.1951 16.2298 20.3069C16.2298 20.4187 16.3177 20.5093 16.4262 20.5093Z" fill="#4B0875"/>
<path d="M14.1704 21.1351C14.2742 21.1351 14.3584 21.0484 14.3584 20.9415C14.3584 20.8345 14.2742 20.7478 14.1704 20.7478C14.0666 20.7478 13.9824 20.8345 13.9824 20.9415C13.9824 21.0484 14.0666 21.1351 14.1704 21.1351Z" fill="#4B0875"/>
<path d="M13.8119 20.4684C13.8985 20.4684 13.9687 20.3961 13.9687 20.3069C13.9687 20.2176 13.8985 20.1453 13.8119 20.1453C13.7253 20.1453 13.655 20.2176 13.655 20.3069C13.655 20.3961 13.7253 20.4684 13.8119 20.4684Z" fill="#4B0875"/>
<path d="M9.88688 27.4943C9.98851 27.4943 10.0709 27.4094 10.0709 27.3047C10.0709 27.2 9.98851 27.1151 9.88688 27.1151C9.78524 27.1151 9.70285 27.2 9.70285 27.3047C9.70285 27.4094 9.78524 27.4943 9.88688 27.4943Z" fill="#4B0875"/>
<path d="M10.5708 27.2178C10.6916 27.2178 10.7894 27.117 10.7894 26.9926C10.7894 26.8683 10.6916 26.7675 10.5708 26.7675C10.4501 26.7675 10.3523 26.8683 10.3523 26.9926C10.3523 27.117 10.4501 27.2178 10.5708 27.2178Z" fill="#4B0875"/>
<path d="M11.0233 27.6815C11.1149 27.6815 11.1892 27.605 11.1892 27.5106C11.1892 27.4162 11.1149 27.3397 11.0233 27.3397C10.9316 27.3397 10.8573 27.4162 10.8573 27.5106C10.8573 27.605 10.9316 27.6815 11.0233 27.6815Z" fill="#4B0875"/>
<path d="M12.7207 27.5567C12.8123 27.5567 12.8866 27.4802 12.8866 27.3858C12.8866 27.2914 12.8123 27.2149 12.7207 27.2149C12.6291 27.2149 12.5548 27.2914 12.5548 27.3858C12.5548 27.4802 12.6291 27.5567 12.7207 27.5567Z" fill="#4B0875"/>
<path d="M12.0227 27.4191C12.1543 27.4191 12.2611 27.3091 12.2611 27.1735C12.2611 27.0379 12.1543 26.9279 12.0227 26.9279C11.891 26.9279 11.7843 27.0379 11.7843 27.1735C11.7843 27.3091 11.891 27.4191 12.0227 27.4191Z" fill="#4B0875"/>
<path d="M9.27012 27.1151C9.34329 27.1151 9.40262 27.054 9.40262 26.9786C9.40262 26.9033 9.34329 26.8422 9.27012 26.8422C9.19694 26.8422 9.13762 26.9033 9.13762 26.9786C9.13762 27.054 9.19694 27.1151 9.27012 27.1151Z" fill="#4B0875"/>
<path d="M20.2551 27.114C20.322 27.114 20.3762 27.0581 20.3762 26.9892C20.3762 26.9202 20.322 26.8643 20.2551 26.8643C20.1881 26.8643 20.1339 26.9202 20.1339 26.9892C20.1339 27.0581 20.1881 27.114 20.2551 27.114Z" fill="#4B0875"/>
<path d="M18.9392 27.352C19.0339 27.352 19.1108 27.2728 19.1108 27.1752C19.1108 27.0776 19.0339 26.9985 18.9392 26.9985C18.8444 26.9985 18.7676 27.0776 18.7676 27.1752C18.7676 27.2728 18.8444 27.352 18.9392 27.352Z" fill="#4B0875"/>
<path d="M20.832 27.2802C20.9424 27.2802 21.0319 27.188 21.0319 27.0743C21.0319 26.9606 20.9424 26.8684 20.832 26.8684C20.7216 26.8684 20.6322 26.9606 20.6322 27.0743C20.6322 27.188 20.7216 27.2802 20.832 27.2802Z" fill="#4B0875"/>
<path d="M21.3394 26.8223C21.4229 26.8223 21.4906 26.7526 21.4906 26.6666C21.4906 26.5806 21.4229 26.5108 21.3394 26.5108C21.2559 26.5108 21.1882 26.5806 21.1882 26.6666C21.1882 26.7526 21.2559 26.8223 21.3394 26.8223Z" fill="#4B0875"/>
<path d="M17.7636 27.4354C17.8678 27.4354 17.9522 27.3484 17.9522 27.2411C17.9522 27.1339 17.8678 27.0469 17.7636 27.0469C17.6595 27.0469 17.5751 27.1339 17.5751 27.2411C17.5751 27.3484 17.6595 27.4354 17.7636 27.4354Z" fill="#4B0875"/>
<path d="M18.3865 27.6016C18.4535 27.6016 18.5077 27.5457 18.5077 27.4768C18.5077 27.4079 18.4535 27.352 18.3865 27.352C18.3196 27.352 18.2654 27.4079 18.2654 27.4768C18.2654 27.5457 18.3196 27.6016 18.3865 27.6016Z" fill="#4B0875"/>
<path d="M19.4538 27.7054C19.5454 27.7054 19.6197 27.6289 19.6197 27.5345C19.6197 27.4401 19.5454 27.3636 19.4538 27.3636C19.3622 27.3636 19.2879 27.4401 19.2879 27.5345C19.2879 27.6289 19.3622 27.7054 19.4538 27.7054Z" fill="#4B0875"/>
<path d="M4.77032 23.6177C4.88353 23.6177 4.9753 23.5231 4.9753 23.4065C4.9753 23.2899 4.88353 23.1954 4.77032 23.1954C4.65711 23.1954 4.56534 23.2899 4.56534 23.4065C4.56534 23.5231 4.65711 23.6177 4.77032 23.6177Z" fill="#4B0875"/>
<path d="M5.26071 22.9947C5.33389 22.9947 5.39321 22.9336 5.39321 22.8582C5.39321 22.7828 5.33389 22.7217 5.26071 22.7217C5.18754 22.7217 5.12822 22.7828 5.12822 22.8582C5.12822 22.9336 5.18754 22.9947 5.26071 22.9947Z" fill="#4B0875"/>
<path d="M6.19955 23.7302C6.299 23.7302 6.37961 23.6472 6.37961 23.5447C6.37961 23.4423 6.299 23.3592 6.19955 23.3592C6.10011 23.3592 6.01949 23.4423 6.01949 23.5447C6.01949 23.6472 6.10011 23.7302 6.19955 23.7302Z" fill="#4B0875"/>
<path d="M6.85518 23.5109C6.9468 23.5109 7.02108 23.4344 7.02108 23.34C7.02108 23.2456 6.9468 23.1691 6.85518 23.1691C6.76355 23.1691 6.68927 23.2456 6.68927 23.34C6.68927 23.4344 6.76355 23.5109 6.85518 23.5109Z" fill="#4B0875"/>
<path d="M5.63899 23.4613C5.72936 23.4613 5.80263 23.3859 5.80263 23.2928C5.80263 23.1997 5.72936 23.1242 5.63899 23.1242C5.54861 23.1242 5.47535 23.1997 5.47535 23.2928C5.47535 23.3859 5.54861 23.4613 5.63899 23.4613Z" fill="#4B0875"/>
<path d="M4.37504 23.0472C4.44822 23.0472 4.50754 22.9861 4.50754 22.9107C4.50754 22.8353 4.44822 22.7742 4.37504 22.7742C4.30187 22.7742 4.24255 22.8353 4.24255 22.9107C4.24255 22.9861 4.30187 23.0472 4.37504 23.0472Z" fill="#4B0875"/>
<path d="M24.0725 23.7746C24.1539 23.7746 24.2198 23.7067 24.2198 23.6229C24.2198 23.5392 24.1539 23.4713 24.0725 23.4713C23.9912 23.4713 23.9253 23.5392 23.9253 23.6229C23.9253 23.7067 23.9912 23.7746 24.0725 23.7746Z" fill="#4B0875"/>
<path d="M25.6875 23.711C25.7585 23.711 25.816 23.6517 25.816 23.5786C25.816 23.5055 25.7585 23.4462 25.6875 23.4462C25.6165 23.4462 25.5589 23.5055 25.5589 23.5786C25.5589 23.6517 25.6165 23.711 25.6875 23.711Z" fill="#4B0875"/>
<path d="M25.3138 23.4456C25.4158 23.4456 25.4984 23.3605 25.4984 23.2555C25.4984 23.1504 25.4158 23.0653 25.3138 23.0653C25.2119 23.0653 25.1292 23.1504 25.1292 23.2555C25.1292 23.3605 25.2119 23.4456 25.3138 23.4456Z" fill="#4B0875"/>
<path d="M26.2328 23.4958C26.3216 23.4958 26.3936 23.4216 26.3936 23.3301C26.3936 23.2386 26.3216 23.1645 26.2328 23.1645C26.144 23.1645 26.072 23.2386 26.072 23.3301C26.072 23.4216 26.144 23.4958 26.2328 23.4958Z" fill="#4B0875"/>
<path d="M24.8658 23.8714C24.9637 23.8714 25.0431 23.7897 25.0431 23.6888C25.0431 23.588 24.9637 23.5063 24.8658 23.5063C24.768 23.5063 24.6886 23.588 24.6886 23.6888C24.6886 23.7897 24.768 23.8714 24.8658 23.8714Z" fill="#4B0875"/>
<path d="M24.538 23.4777C24.609 23.4777 24.6665 23.4184 24.6665 23.3453C24.6665 23.2721 24.609 23.2128 24.538 23.2128C24.467 23.2128 24.4095 23.2721 24.4095 23.3453C24.4095 23.4184 24.467 23.4777 24.538 23.4777Z" fill="#4B0875"/>
<path d="M42.593 21.16C41.753 21.16 41.333 20.7333 41.333 19.88V13.1H40.413C39.7464 13.1 39.413 12.7867 39.413 12.16C39.413 11.5333 39.7464 11.22 40.413 11.22H41.333V11.2C41.333 9.82667 41.6797 8.8 42.373 8.12C43.0664 7.42667 44.0664 7.02 45.373 6.9L46.053 6.84C46.3997 6.81333 46.653 6.88667 46.813 7.06C46.973 7.23333 47.053 7.44667 47.053 7.7C47.0664 7.94 47.0064 8.16 46.873 8.36C46.7397 8.54667 46.5464 8.65333 46.293 8.68L46.013 8.7C45.253 8.75333 44.6997 8.94667 44.353 9.28C44.0064 9.61333 43.833 10.12 43.833 10.8V11.22H45.533C46.1997 11.22 46.533 11.5333 46.533 12.16C46.533 12.7867 46.1997 13.1 45.533 13.1H43.833V19.88C43.833 20.7333 43.4197 21.16 42.593 21.16ZM51.293 21.2C49.0664 21.2 47.953 19.9533 47.953 17.46V8C47.953 7.16 48.3664 6.74 49.193 6.74C50.033 6.74 50.453 7.16 50.453 8V17.34C50.453 18.54 50.953 19.14 51.953 19.14C52.0597 19.14 52.1597 19.14 52.253 19.14C52.3464 19.1267 52.4397 19.1133 52.533 19.1C52.7197 19.0733 52.8464 19.1267 52.913 19.26C52.9797 19.38 53.013 19.6333 53.013 20.02C53.013 20.3533 52.9464 20.6133 52.813 20.8C52.6797 20.9867 52.4597 21.1 52.153 21.14C51.873 21.18 51.5864 21.2 51.293 21.2ZM57.8654 21.2C55.4654 21.2 54.2654 19.8533 54.2654 17.16V12.32C54.2654 11.48 54.6787 11.06 55.5054 11.06C56.3454 11.06 56.7654 11.48 56.7654 12.32V17.2C56.7654 17.8933 56.9054 18.4067 57.1854 18.74C57.4654 19.0733 57.9121 19.24 58.5254 19.24C59.1921 19.24 59.7387 19.0133 60.1654 18.56C60.5921 18.0933 60.8054 17.48 60.8054 16.72V12.32C60.8054 11.48 61.2187 11.06 62.0454 11.06C62.8854 11.06 63.3054 11.48 63.3054 12.32V19.88C63.3054 20.7333 62.8987 21.16 62.0854 21.16C61.2721 21.16 60.8654 20.7333 60.8654 19.88V19.54C60.2121 20.6467 59.2121 21.2 57.8654 21.2ZM70.7274 21.2C69.6208 21.2 68.6674 20.9933 67.8674 20.58C67.0674 20.1667 66.4474 19.58 66.0074 18.82C65.5808 18.06 65.3674 17.16 65.3674 16.12C65.3674 15.1067 65.5741 14.22 65.9874 13.46C66.4141 12.7 66.9941 12.1067 67.7274 11.68C68.4741 11.24 69.3208 11.02 70.2674 11.02C71.6541 11.02 72.7474 11.46 73.5474 12.34C74.3608 13.22 74.7674 14.42 74.7674 15.94C74.7674 16.4333 74.4474 16.68 73.8074 16.68H67.7674C67.9541 18.4267 68.9541 19.3 70.7674 19.3C71.1141 19.3 71.5008 19.26 71.9274 19.18C72.3674 19.0867 72.7808 18.9333 73.1674 18.72C73.5141 18.52 73.8074 18.46 74.0474 18.54C74.2874 18.6067 74.4541 18.7467 74.5474 18.96C74.6541 19.1733 74.6674 19.4133 74.5874 19.68C74.5208 19.9333 74.3341 20.1533 74.0274 20.34C73.5608 20.6333 73.0208 20.8533 72.4074 21C71.8074 21.1333 71.2474 21.2 70.7274 21.2ZM70.3674 12.72C69.6341 12.72 69.0408 12.9467 68.5874 13.4C68.1341 13.8533 67.8608 14.4667 67.7674 15.24H72.6874C72.6341 14.4267 72.4074 13.8067 72.0074 13.38C71.6208 12.94 71.0741 12.72 70.3674 12.72ZM77.9873 21.16C77.1606 21.16 76.7473 20.7333 76.7473 19.88V12.32C76.7473 11.48 77.1539 11.06 77.9673 11.06C78.7806 11.06 79.1873 11.48 79.1873 12.32V12.74C79.5206 12.18 79.9673 11.7533 80.5273 11.46C81.1006 11.1667 81.7406 11.02 82.4473 11.02C84.7539 11.02 85.9073 12.36 85.9073 15.04V19.88C85.9073 20.7333 85.4939 21.16 84.6673 21.16C83.8273 21.16 83.4073 20.7333 83.4073 19.88V15.16C83.4073 14.4 83.2606 13.8467 82.9673 13.5C82.6873 13.1533 82.2473 12.98 81.6473 12.98C80.9139 12.98 80.3273 13.2133 79.8873 13.68C79.4606 14.1333 79.2473 14.74 79.2473 15.5V19.88C79.2473 20.7333 78.8273 21.16 77.9873 21.16ZM92.9265 21.2C90.3398 21.2 89.0465 19.92 89.0465 17.36V13.1H88.0065C87.3398 13.1 87.0065 12.7867 87.0065 12.16C87.0065 11.5333 87.3398 11.22 88.0065 11.22H89.0465V9.4C89.0465 8.56 89.4665 8.14 90.3065 8.14C91.1332 8.14 91.5465 8.56 91.5465 9.4V11.22H93.6665C94.3332 11.22 94.6665 11.5333 94.6665 12.16C94.6665 12.7867 94.3332 13.1 93.6665 13.1H91.5465V17.22C91.5465 17.86 91.6865 18.34 91.9665 18.66C92.2465 18.98 92.6998 19.14 93.3265 19.14C93.5532 19.14 93.7532 19.12 93.9265 19.08C94.0998 19.04 94.2532 19.0133 94.3865 19C94.5465 18.9867 94.6798 19.04 94.7865 19.16C94.8932 19.2667 94.9465 19.4933 94.9465 19.84C94.9465 20.1067 94.8998 20.3467 94.8065 20.56C94.7265 20.76 94.5732 20.9 94.3465 20.98C94.1732 21.0333 93.9465 21.08 93.6665 21.12C93.3865 21.1733 93.1398 21.2 92.9265 21.2ZM99.7162 21.2C97.4895 21.2 96.3762 19.9533 96.3762 17.46V8C96.3762 7.16 96.7895 6.74 97.6162 6.74C98.4562 6.74 98.8762 7.16 98.8762 8V17.34C98.8762 18.54 99.3762 19.14 100.376 19.14C100.483 19.14 100.583 19.14 100.676 19.14C100.77 19.1267 100.863 19.1133 100.956 19.1C101.143 19.0733 101.27 19.1267 101.336 19.26C101.403 19.38 101.436 19.6333 101.436 20.02C101.436 20.3533 101.37 20.6133 101.236 20.8C101.103 20.9867 100.883 21.1 100.576 21.14C100.296 21.18 100.01 21.2 99.7162 21.2ZM107.485 21.2C106.379 21.2 105.425 20.9933 104.625 20.58C103.825 20.1667 103.205 19.58 102.765 18.82C102.339 18.06 102.125 17.16 102.125 16.12C102.125 15.1067 102.332 14.22 102.745 13.46C103.172 12.7 103.752 12.1067 104.485 11.68C105.232 11.24 106.079 11.02 107.025 11.02C108.412 11.02 109.505 11.46 110.305 12.34C111.119 13.22 111.525 14.42 111.525 15.94C111.525 16.4333 111.205 16.68 110.565 16.68H104.525C104.712 18.4267 105.712 19.3 107.525 19.3C107.872 19.3 108.259 19.26 108.685 19.18C109.125 19.0867 109.539 18.9333 109.925 18.72C110.272 18.52 110.565 18.46 110.805 18.54C111.045 18.6067 111.212 18.7467 111.305 18.96C111.412 19.1733 111.425 19.4133 111.345 19.68C111.279 19.9333 111.092 20.1533 110.785 20.34C110.319 20.6333 109.779 20.8533 109.165 21C108.565 21.1333 108.005 21.2 107.485 21.2ZM107.125 12.72C106.392 12.72 105.799 12.9467 105.345 13.4C104.892 13.8533 104.619 14.4667 104.525 15.24H109.445C109.392 14.4267 109.165 13.8067 108.765 13.38C108.379 12.94 107.832 12.72 107.125 12.72ZM117.309 21.16C116.642 21.16 116.149 20.8067 115.829 20.1L112.649 12.72C112.462 12.28 112.455 11.8933 112.629 11.56C112.815 11.2267 113.182 11.06 113.729 11.06C114.035 11.06 114.282 11.1333 114.469 11.28C114.655 11.4133 114.822 11.6733 114.969 12.06L117.369 18.06L119.849 12.04C119.995 11.6667 120.162 11.4133 120.349 11.28C120.549 11.1333 120.815 11.06 121.149 11.06C121.575 11.06 121.875 11.2267 122.049 11.56C122.222 11.8933 122.215 12.2733 122.029 12.7L118.789 20.1C118.495 20.8067 118.002 21.16 117.309 21.16ZM128.52 21.2C127.414 21.2 126.46 20.9933 125.66 20.58C124.86 20.1667 124.24 19.58 123.8 18.82C123.374 18.06 123.16 17.16 123.16 16.12C123.16 15.1067 123.367 14.22 123.78 13.46C124.207 12.7 124.787 12.1067 125.52 11.68C126.267 11.24 127.114 11.02 128.06 11.02C129.447 11.02 130.54 11.46 131.34 12.34C132.154 13.22 132.56 14.42 132.56 15.94C132.56 16.4333 132.24 16.68 131.6 16.68H125.56C125.747 18.4267 126.747 19.3 128.56 19.3C128.907 19.3 129.294 19.26 129.72 19.18C130.16 19.0867 130.574 18.9333 130.96 18.72C131.307 18.52 131.6 18.46 131.84 18.54C132.08 18.6067 132.247 18.7467 132.34 18.96C132.447 19.1733 132.46 19.4133 132.38 19.68C132.314 19.9333 132.127 20.1533 131.82 20.34C131.354 20.6333 130.814 20.8533 130.2 21C129.6 21.1333 129.04 21.2 128.52 21.2ZM128.16 12.72C127.427 12.72 126.834 12.9467 126.38 13.4C125.927 13.8533 125.654 14.4667 125.56 15.24H130.48C130.427 14.4267 130.2 13.8067 129.8 13.38C129.414 12.94 128.867 12.72 128.16 12.72ZM137.88 21.2C135.654 21.2 134.54 19.9533 134.54 17.46V8C134.54 7.16 134.954 6.74 135.78 6.74C136.62 6.74 137.04 7.16 137.04 8V17.34C137.04 18.54 137.54 19.14 138.54 19.14C138.647 19.14 138.747 19.14 138.84 19.14C138.934 19.1267 139.027 19.1133 139.12 19.1C139.307 19.0733 139.434 19.1267 139.5 19.26C139.567 19.38 139.6 19.6333 139.6 20.02C139.6 20.3533 139.534 20.6133 139.4 20.8C139.267 20.9867 139.047 21.1 138.74 21.14C138.46 21.18 138.174 21.2 137.88 21.2Z" fill="#4B0875"/>
</svg>
