<svg width="214" height="234" viewBox="0 0 214 234" fill="none" xmlns="http://www.w3.org/2000/svg">
<path d="M39.8473 224.252C39.1566 224.252 38.6246 224.065 38.2513 223.692C37.8966 223.319 37.7193 222.787 37.7193 222.096V213.416H36.7113C35.6099 213.416 35.0593 212.893 35.0593 211.848C35.0593 210.784 35.6099 210.252 36.7113 210.252H37.7193C37.7566 208.348 38.2699 206.92 39.2593 205.968C40.2673 204.997 41.7233 204.419 43.6273 204.232L44.5233 204.148C45.1393 204.092 45.5873 204.213 45.8673 204.512C46.1659 204.792 46.3246 205.137 46.3433 205.548C46.3806 205.959 46.2873 206.332 46.0633 206.668C45.8579 206.985 45.5499 207.163 45.1393 207.2L44.7473 207.228C43.7393 207.303 43.0206 207.545 42.5913 207.956C42.1619 208.348 41.9473 208.955 41.9473 209.776V210.252H43.9353C45.0366 210.252 45.5873 210.784 45.5873 211.848C45.5873 212.893 45.0366 213.416 43.9353 213.416H41.9473V222.096C41.9473 223.533 41.2473 224.252 39.8473 224.252ZM52.3073 224.308C49.0033 224.308 47.3513 222.469 47.3513 218.792V206.164C47.3513 204.727 48.0606 204.008 49.4793 204.008C50.8793 204.008 51.5793 204.727 51.5793 206.164V218.624C51.5793 219.389 51.7379 219.959 52.0553 220.332C52.3913 220.687 52.8299 220.864 53.3713 220.864C53.5206 220.864 53.6606 220.855 53.7913 220.836C53.9406 220.817 54.0806 220.808 54.2113 220.808C54.5099 220.789 54.7153 220.883 54.8273 221.088C54.9579 221.293 55.0233 221.713 55.0233 222.348C55.0233 223.431 54.5659 224.047 53.6513 224.196C53.4646 224.215 53.2499 224.233 53.0073 224.252C52.7646 224.289 52.5313 224.308 52.3073 224.308ZM61.7662 224.308C60.0116 224.308 58.7142 223.823 57.8742 222.852C57.0529 221.881 56.6422 220.425 56.6422 218.484V212.156C56.6422 210.737 57.3422 210.028 58.7422 210.028C60.1609 210.028 60.8702 210.737 60.8702 212.156V218.596C60.8702 220.22 61.5702 221.032 62.9702 221.032C63.7729 221.032 64.4262 220.752 64.9302 220.192C65.4529 219.613 65.7142 218.857 65.7142 217.924V212.156C65.7142 210.737 66.4142 210.028 67.8142 210.028C69.2329 210.028 69.9422 210.737 69.9422 212.156V222.096C69.9422 223.533 69.2609 224.252 67.8982 224.252C67.2262 224.252 66.7129 224.065 66.3582 223.692C66.0036 223.319 65.8262 222.796 65.8262 222.124C64.9116 223.58 63.5582 224.308 61.7662 224.308ZM80.3538 224.308C78.7298 224.308 77.3298 224.019 76.1538 223.44C74.9965 222.843 74.1005 222.012 73.4658 220.948C72.8498 219.865 72.5418 218.596 72.5418 217.14C72.5418 215.721 72.8405 214.48 73.4378 213.416C74.0538 212.333 74.8845 211.493 75.9298 210.896C76.9938 210.28 78.2165 209.972 79.5978 209.972C81.5952 209.972 83.1818 210.607 84.3578 211.876C85.5338 213.127 86.1218 214.825 86.1218 216.972C86.1218 217.681 85.6832 218.036 84.8058 218.036H76.5738C76.7232 219.119 77.1152 219.912 77.7498 220.416C78.4032 220.901 79.2992 221.144 80.4378 221.144C80.8858 221.144 81.3898 221.097 81.9498 221.004C82.5285 220.892 83.0792 220.705 83.6018 220.444C84.1432 220.183 84.6005 220.136 84.9738 220.304C85.3472 220.453 85.5992 220.715 85.7298 221.088C85.8792 221.461 85.8792 221.853 85.7298 222.264C85.5992 222.656 85.2912 222.983 84.8058 223.244C84.1525 223.599 83.4245 223.86 82.6218 224.028C81.8378 224.215 81.0818 224.308 80.3538 224.308ZM79.7658 212.772C78.8698 212.772 78.1418 213.043 77.5818 213.584C77.0405 214.125 76.7045 214.881 76.5738 215.852H82.6218C82.5098 213.799 81.5578 212.772 79.7658 212.772ZM90.709 224.252C89.2904 224.252 88.581 223.533 88.581 222.096V212.156C88.581 210.737 89.2717 210.028 90.653 210.028C92.0344 210.028 92.725 210.737 92.725 212.156V212.268C93.1917 211.521 93.817 210.952 94.601 210.56C95.385 210.168 96.2624 209.972 97.233 209.972C98.857 209.972 100.07 210.448 100.873 211.4C101.676 212.333 102.077 213.78 102.077 215.74V222.096C102.077 223.533 101.368 224.252 99.949 224.252C99.277 224.252 98.7544 224.065 98.381 223.692C98.0264 223.319 97.849 222.787 97.849 222.096V215.936C97.849 214.984 97.6717 214.303 97.317 213.892C96.9624 213.463 96.4397 213.248 95.749 213.248C94.853 213.248 94.1344 213.528 93.593 214.088C93.0704 214.648 92.809 215.395 92.809 216.328V222.096C92.809 223.533 92.109 224.252 90.709 224.252ZM111.981 224.308C108.117 224.308 106.185 222.432 106.185 218.68V213.416H105.009C103.908 213.416 103.357 212.893 103.357 211.848C103.357 210.784 103.908 210.252 105.009 210.252H106.185V208.124C106.185 206.687 106.895 205.968 108.313 205.968C109.713 205.968 110.413 206.687 110.413 208.124V210.252H113.073C114.156 210.252 114.697 210.784 114.697 211.848C114.697 212.893 114.156 213.416 113.073 213.416H110.413V218.512C110.413 219.296 110.591 219.884 110.945 220.276C111.319 220.668 111.907 220.864 112.709 220.864C112.989 220.864 113.251 220.836 113.493 220.78C113.736 220.724 113.96 220.687 114.165 220.668C114.427 220.649 114.641 220.733 114.809 220.92C114.977 221.107 115.061 221.489 115.061 222.068C115.061 222.535 114.987 222.936 114.837 223.272C114.688 223.589 114.427 223.823 114.053 223.972C113.811 224.065 113.475 224.14 113.045 224.196C112.635 224.271 112.28 224.308 111.981 224.308ZM121.92 224.308C118.616 224.308 116.964 222.469 116.964 218.792V206.164C116.964 204.727 117.673 204.008 119.092 204.008C120.492 204.008 121.192 204.727 121.192 206.164V218.624C121.192 219.389 121.351 219.959 121.668 220.332C122.004 220.687 122.443 220.864 122.984 220.864C123.133 220.864 123.273 220.855 123.404 220.836C123.553 220.817 123.693 220.808 123.824 220.808C124.123 220.789 124.328 220.883 124.44 221.088C124.571 221.293 124.636 221.713 124.636 222.348C124.636 223.431 124.179 224.047 123.264 224.196C123.077 224.215 122.863 224.233 122.62 224.252C122.377 224.289 122.144 224.308 121.92 224.308ZM133.291 224.308C131.667 224.308 130.267 224.019 129.091 223.44C127.934 222.843 127.038 222.012 126.403 220.948C125.787 219.865 125.479 218.596 125.479 217.14C125.479 215.721 125.778 214.48 126.375 213.416C126.991 212.333 127.822 211.493 128.867 210.896C129.931 210.28 131.154 209.972 132.535 209.972C134.533 209.972 136.119 210.607 137.295 211.876C138.471 213.127 139.059 214.825 139.059 216.972C139.059 217.681 138.621 218.036 137.743 218.036H129.511C129.661 219.119 130.053 219.912 130.687 220.416C131.341 220.901 132.237 221.144 133.375 221.144C133.823 221.144 134.327 221.097 134.887 221.004C135.466 220.892 136.017 220.705 136.539 220.444C137.081 220.183 137.538 220.136 137.911 220.304C138.285 220.453 138.537 220.715 138.667 221.088C138.817 221.461 138.817 221.853 138.667 222.264C138.537 222.656 138.229 222.983 137.743 223.244C137.09 223.599 136.362 223.86 135.559 224.028C134.775 224.215 134.019 224.308 133.291 224.308ZM132.703 212.772C131.807 212.772 131.079 213.043 130.519 213.584C129.978 214.125 129.642 214.881 129.511 215.852H135.559C135.447 213.799 134.495 212.772 132.703 212.772ZM147.096 224.252C145.995 224.252 145.192 223.673 144.688 222.516L140.46 212.772C140.143 212.044 140.134 211.409 140.432 210.868C140.731 210.308 141.347 210.028 142.28 210.028C142.784 210.028 143.195 210.149 143.512 210.392C143.83 210.616 144.11 211.055 144.352 211.708L147.236 218.988L150.204 211.68C150.466 211.045 150.755 210.616 151.072 210.392C151.39 210.149 151.828 210.028 152.388 210.028C153.098 210.028 153.602 210.308 153.9 210.868C154.199 211.409 154.18 212.035 153.844 212.744L149.532 222.516C149.047 223.673 148.235 224.252 147.096 224.252ZM163.041 224.308C161.417 224.308 160.017 224.019 158.841 223.44C157.684 222.843 156.788 222.012 156.153 220.948C155.537 219.865 155.229 218.596 155.229 217.14C155.229 215.721 155.528 214.48 156.125 213.416C156.741 212.333 157.572 211.493 158.617 210.896C159.681 210.28 160.904 209.972 162.285 209.972C164.283 209.972 165.869 210.607 167.045 211.876C168.221 213.127 168.809 214.825 168.809 216.972C168.809 217.681 168.371 218.036 167.493 218.036H159.261C159.411 219.119 159.803 219.912 160.437 220.416C161.091 220.901 161.987 221.144 163.125 221.144C163.573 221.144 164.077 221.097 164.637 221.004C165.216 220.892 165.767 220.705 166.289 220.444C166.831 220.183 167.288 220.136 167.661 220.304C168.035 220.453 168.287 220.715 168.417 221.088C168.567 221.461 168.567 221.853 168.417 222.264C168.287 222.656 167.979 222.983 167.493 223.244C166.84 223.599 166.112 223.86 165.309 224.028C164.525 224.215 163.769 224.308 163.041 224.308ZM162.453 212.772C161.557 212.772 160.829 213.043 160.269 213.584C159.728 214.125 159.392 214.881 159.261 215.852H165.309C165.197 213.799 164.245 212.772 162.453 212.772ZM176.225 224.308C172.921 224.308 171.269 222.469 171.269 218.792V206.164C171.269 204.727 171.978 204.008 173.397 204.008C174.797 204.008 175.497 204.727 175.497 206.164V218.624C175.497 219.389 175.655 219.959 175.973 220.332C176.309 220.687 176.747 220.864 177.289 220.864C177.438 220.864 177.578 220.855 177.709 220.836C177.858 220.817 177.998 220.808 178.129 220.808C178.427 220.789 178.633 220.883 178.745 221.088C178.875 221.293 178.941 221.713 178.941 222.348C178.941 223.431 178.483 224.047 177.569 224.196C177.382 224.215 177.167 224.233 176.925 224.252C176.682 224.289 176.449 224.308 176.225 224.308Z" fill="#4B0875"/>
<path d="M204.269 93.1256H180.919C176.324 93.1255 171.915 94.9503 168.657 98.2012C165.398 101.452 163.554 105.865 163.528 110.476V123.607C163.528 124.455 163.192 125.269 162.594 125.869C161.996 126.469 161.185 126.806 160.339 126.806H154.089C153.278 126.808 152.496 126.499 151.903 125.942C151.311 125.386 150.952 124.623 150.9 123.811C151.079 120.188 149.992 116.616 147.826 113.712C145.66 110.808 142.552 108.754 139.038 107.904C142.937 105.635 145.778 101.906 146.939 97.5365C148.1 93.1667 147.484 88.5133 145.228 84.5984C151.601 77.1714 155.716 68.065 157.083 58.3609C158.45 48.6568 157.012 38.7629 152.941 29.8544C148.869 20.9459 142.335 13.3973 134.114 8.10521C125.893 2.81313 116.332 0 106.564 0C96.7971 0 87.2352 2.81313 79.0143 8.10521C70.7935 13.3973 64.2592 20.9459 60.1878 29.8544C56.1163 38.7629 54.6788 48.6568 56.0459 58.3609C57.413 68.065 61.5274 77.1714 67.9002 84.5984C65.6441 88.5133 65.0289 93.1667 66.1895 97.5365C67.3502 101.906 70.1919 105.635 74.0904 107.904C70.5739 108.754 67.4637 110.81 65.2976 113.716C63.1316 116.623 62.0459 120.198 62.2281 123.823C62.2022 124.654 61.8549 125.442 61.2596 126.021C60.6644 126.599 59.8681 126.923 59.0393 126.922H52.8013C51.9555 126.922 51.1445 126.585 50.5465 125.985C49.9484 125.385 49.6125 124.571 49.6125 123.723V110.592C49.5872 105.981 47.7442 101.569 44.4863 98.3175C41.2283 95.0664 36.8203 93.2415 32.2256 93.2416H8.88362C7.72605 93.2167 6.57518 93.424 5.49851 93.8513C4.42184 94.2786 3.44103 94.9173 2.6136 95.73C1.78617 96.5426 1.12878 97.5129 0.679981 98.5839C0.231179 99.6548 0 100.805 0 101.967C0 103.129 0.231179 104.279 0.679981 105.35C1.12878 106.421 1.78617 107.391 2.6136 108.203C3.44103 109.016 4.42184 109.655 5.49851 110.082C6.57518 110.509 7.72605 110.717 8.88362 110.692H29.0328C29.8785 110.692 30.6896 111.029 31.2876 111.629C31.8856 112.229 32.2216 113.043 32.2216 113.892V126.934C32.2233 131.444 33.9646 135.777 37.0803 139.026C40.1961 142.276 44.4444 144.189 48.9349 144.365H62.9058C67.3566 144.191 71.5713 142.31 74.6809 139.11C77.7906 135.91 79.5581 131.635 79.619 127.166V127.19C79.6169 126.77 79.6973 126.354 79.8556 125.965C80.014 125.576 80.2471 125.222 80.5417 124.923C80.8363 124.624 81.1867 124.387 81.5728 124.224C81.9589 124.062 82.3731 123.977 82.7919 123.975C83.2106 123.972 83.6257 124.053 84.0134 124.212C84.4011 124.371 84.7538 124.605 85.0513 124.9C85.3489 125.196 85.5856 125.548 85.7478 125.935C85.91 126.322 85.9945 126.738 85.9966 127.158V171.362C85.9966 172.211 85.6606 173.024 85.0626 173.625C84.4646 174.225 83.6535 174.562 82.8078 174.562H76.5498C75.7041 174.562 74.893 174.225 74.295 173.625C73.697 173.024 73.361 172.211 73.361 171.362V165.727C73.3399 161.116 71.5011 156.701 68.2463 153.446C64.9915 150.191 60.5852 148.361 55.9901 148.356H32.6361C31.4786 148.331 30.3277 148.539 29.251 148.966C28.1744 149.393 27.1936 150.032 26.3661 150.845C25.5387 151.657 24.8813 152.628 24.4325 153.699C23.9837 154.769 23.7525 155.92 23.7525 157.081C23.7525 158.243 23.9837 159.393 24.4325 160.464C24.8813 161.535 25.5387 162.505 26.3661 163.318C27.1936 164.131 28.1744 164.769 29.251 165.197C30.3277 165.624 31.4786 165.831 32.6361 165.807H52.8013C53.647 165.807 54.4581 166.144 55.0561 166.744C55.6541 167.344 55.9901 168.158 55.9901 169.006V174.562C55.9932 179.185 57.8247 183.618 61.0823 186.888C64.3399 190.157 68.7575 191.996 73.365 192H85.9846C88.2688 192.001 90.5306 191.55 92.6411 190.673C94.7515 189.796 96.6691 188.511 98.2844 186.89C99.8997 185.27 101.181 183.346 102.055 181.229C102.93 179.111 103.38 176.842 103.38 174.55V123.983V138.805C103.377 137.957 103.71 137.142 104.306 136.54C104.903 135.938 105.713 135.598 106.558 135.595C107.404 135.593 108.216 135.927 108.816 136.526C109.416 137.124 109.754 137.937 109.757 138.785V174.526C109.754 176.819 110.201 179.09 111.074 181.21C111.946 183.33 113.226 185.256 114.841 186.879C116.456 188.502 118.373 189.79 120.484 190.668C122.596 191.547 124.859 191.999 127.144 192H139.768C144.38 192 148.803 190.161 152.065 186.889C155.326 183.616 157.159 179.178 157.159 174.55V168.986C157.159 168.138 157.494 167.324 158.092 166.724C158.69 166.124 159.502 165.787 160.347 165.787H180.496C181.654 165.811 182.805 165.604 183.882 165.177C184.958 164.749 185.939 164.111 186.766 163.298C187.594 162.485 188.251 161.515 188.7 160.444C189.149 159.373 189.38 158.223 189.38 157.061C189.38 155.9 189.149 154.749 188.7 153.679C188.251 152.608 187.594 151.637 186.766 150.825C185.939 150.012 184.958 149.373 183.882 148.946C182.805 148.519 181.654 148.311 180.496 148.336H157.159C152.56 148.336 148.149 150.164 144.889 153.419C141.63 156.674 139.789 161.092 139.768 165.707V171.342C139.768 172.191 139.432 173.004 138.834 173.605C138.236 174.205 137.425 174.542 136.579 174.542H130.329C129.483 174.542 128.672 174.205 128.074 173.605C127.476 173.004 127.14 172.191 127.14 171.342V127.11C127.15 126.344 127.434 125.607 127.94 125.033C128.447 124.459 129.141 124.086 129.898 123.983H130.747C131.51 124.087 132.21 124.465 132.717 125.046C133.224 125.628 133.504 126.374 133.506 127.146V126.806C133.508 131.434 135.341 135.872 138.603 139.145C141.865 142.417 146.288 144.256 150.9 144.257H163.524C168.137 144.257 172.561 142.418 175.823 139.146C179.085 135.873 180.918 131.435 180.919 126.806V113.772C180.919 112.923 181.255 112.109 181.853 111.509C182.451 110.909 183.262 110.572 184.108 110.572H204.269C205.426 110.597 206.577 110.389 207.654 109.962C208.731 109.535 209.712 108.896 210.539 108.083C211.366 107.271 212.024 106.301 212.473 105.23C212.921 104.159 213.153 103.009 213.153 101.847C213.153 100.685 212.921 99.5348 212.473 98.4639C212.024 97.3929 211.366 96.4227 210.539 95.61C209.712 94.7973 208.731 94.1586 207.654 93.7313C206.577 93.304 205.426 93.0967 204.269 93.1216V93.1256ZM150.904 126.806V123.975V126.806Z" fill="#49007A"/>
<path d="M152.451 54.2213C151.922 54.2213 151.416 54.0106 151.042 53.6356C150.668 53.2606 150.458 52.7519 150.458 52.2215C150.444 40.1308 145.653 28.5389 137.135 19.9873C128.617 11.4356 117.067 6.62205 105.018 6.60194C104.489 6.60194 103.982 6.39124 103.609 6.01621C103.235 5.64117 103.025 5.13251 103.025 4.60213C103.025 4.07175 103.235 3.56309 103.609 3.18806C103.982 2.81302 104.489 2.60233 105.018 2.60233C118.124 2.62349 130.687 7.85878 139.953 17.1603C149.218 26.4618 154.429 39.0704 154.444 52.2215C154.444 52.7519 154.234 53.2606 153.86 53.6356C153.487 54.0106 152.98 54.2213 152.451 54.2213Z" fill="#D699FF"/>
<path d="M82.6284 101.549C87.2514 101.549 90.999 97.7883 90.999 93.1496C90.999 88.5108 87.2514 84.7504 82.6284 84.7504C78.0055 84.7504 74.2579 88.5108 74.2579 93.1496C74.2579 97.7883 78.0055 101.549 82.6284 101.549Z" fill="white"/>
<path d="M82.6284 98.1851C85.4506 98.1851 87.7385 95.8894 87.7385 93.0576C87.7385 90.2257 85.4506 87.9301 82.6284 87.9301C79.8062 87.9301 77.5184 90.2257 77.5184 93.0576C77.5184 95.8894 79.8062 98.1851 82.6284 98.1851Z" fill="#7A00CC"/>
<path d="M80.5796 93.1496C81.4602 93.1496 82.174 92.4333 82.174 91.5497C82.174 90.6662 81.4602 89.9499 80.5796 89.9499C79.6991 89.9499 78.9852 90.6662 78.9852 91.5497C78.9852 92.4333 79.6991 93.1496 80.5796 93.1496Z" fill="white"/>
<path d="M144.316 94.7494C143.893 94.7494 143.487 94.5809 143.188 94.2808C142.889 93.9808 142.721 93.5739 142.721 93.1496C142.717 89.9 141.428 86.7848 139.138 84.4874C136.848 82.19 133.743 80.8979 130.504 80.8948C130.081 80.8948 129.676 80.7262 129.377 80.4262C129.078 80.1261 128.91 79.7192 128.91 79.2949C128.91 78.8706 129.078 78.4637 129.377 78.1637C129.676 77.8636 130.081 77.6951 130.504 77.6951C134.588 77.6993 138.504 79.3288 141.392 82.226C144.28 85.1233 145.905 89.0517 145.91 93.1496C145.91 93.5739 145.742 93.9808 145.443 94.2808C145.144 94.5809 144.738 94.7494 144.316 94.7494Z" fill="#D699FF"/>
<path d="M130.504 101.549C135.127 101.549 138.875 97.7883 138.875 93.1496C138.875 88.5108 135.127 84.7504 130.504 84.7504C125.881 84.7504 122.134 88.5108 122.134 93.1496C122.134 97.7883 125.881 101.549 130.504 101.549Z" fill="white"/>
<path d="M130.504 98.1851C133.326 98.1851 135.614 95.8894 135.614 93.0576C135.614 90.2257 133.326 87.9301 130.504 87.9301C127.682 87.9301 125.394 90.2257 125.394 93.0576C125.394 95.8894 127.682 98.1851 130.504 98.1851Z" fill="#7A00CC"/>
<path d="M128.455 93.1496C129.336 93.1496 130.05 92.4333 130.05 91.5497C130.05 90.6662 129.336 89.9499 128.455 89.9499C127.575 89.9499 126.861 90.6662 126.861 91.5497C126.861 92.4333 127.575 93.1496 128.455 93.1496Z" fill="white"/>
<path d="M100.235 96.9412H112.93V98.1851C112.93 99.8749 112.261 101.495 111.07 102.69C109.879 103.885 108.264 104.556 106.58 104.556C105.746 104.556 104.921 104.391 104.151 104.07C103.38 103.749 102.681 103.279 102.092 102.687C101.502 102.095 101.035 101.393 100.716 100.62C100.398 99.8464 100.234 99.0178 100.235 98.1811V96.9372V96.9412Z" fill="#D699FF"/>
<path d="M114.038 80.7068C114.74 80.7068 115.31 80.1356 115.31 79.4309C115.31 78.7263 114.74 78.155 114.038 78.155C113.336 78.155 112.767 78.7263 112.767 79.4309C112.767 80.1356 113.336 80.7068 114.038 80.7068Z" fill="#FFDD33"/>
<path d="M122.763 73.7674C123.27 73.7674 123.68 73.3556 123.68 72.8475C123.68 72.3395 123.27 71.9276 122.763 71.9276C122.257 71.9276 121.847 72.3395 121.847 72.8475C121.847 73.3556 122.257 73.7674 122.763 73.7674Z" fill="#FFDD33"/>
<path d="M117.908 75.4713C118.741 75.4713 119.415 74.7944 119.415 73.9594C119.415 73.1245 118.741 72.4476 117.908 72.4476C117.076 72.4476 116.402 73.1245 116.402 73.9594C116.402 74.7944 117.076 75.4713 117.908 75.4713Z" fill="#FFDD33"/>
<path d="M119.415 80.5228C120.047 80.5228 120.559 80.0089 120.559 79.3749C120.559 78.7409 120.047 78.227 119.415 78.227C118.783 78.227 118.271 78.7409 118.271 79.3749C118.271 80.0089 118.783 80.5228 119.415 80.5228Z" fill="#FFDD33"/>
<path d="M113.683 86.4582C114.19 86.4582 114.6 86.0464 114.6 85.5383C114.6 85.0303 114.19 84.6184 113.683 84.6184C113.177 84.6184 112.767 85.0303 112.767 85.5383C112.767 86.0464 113.177 86.4582 113.683 86.4582Z" fill="#FFDD33"/>
<path d="M72.9943 137.189C73.6965 137.189 74.2658 136.618 74.2658 135.913C74.2658 135.209 73.6965 134.638 72.9943 134.638C72.292 134.638 71.7228 135.209 71.7228 135.913C71.7228 136.618 72.292 137.189 72.9943 137.189Z" fill="#FFDD33"/>
<path d="M67.2266 139.901C67.7637 139.901 68.1992 139.461 68.1992 138.917C68.1992 138.374 67.7637 137.933 67.2266 137.933C66.6894 137.933 66.254 138.374 66.254 138.917C66.254 139.461 66.6894 139.901 67.2266 139.901Z" fill="#FFDD33"/>
<path d="M75.5972 133.342C76.1035 133.342 76.5139 132.93 76.5139 132.422C76.5139 131.914 76.1035 131.502 75.5972 131.502C75.0908 131.502 74.6804 131.914 74.6804 132.422C74.6804 132.93 75.0908 133.342 75.5972 133.342Z" fill="#FFDD33"/>
<path d="M68.6854 136.357C69.1918 136.357 69.6022 135.946 69.6022 135.437C69.6022 134.929 69.1918 134.518 68.6854 134.518C68.1791 134.518 67.7687 134.929 67.7687 135.437C67.7687 135.946 68.1791 136.357 68.6854 136.357Z" fill="#FFDD33"/>
<path d="M142.853 137.969C143.555 137.969 144.124 137.398 144.124 136.693C144.124 135.989 143.555 135.417 142.853 135.417C142.151 135.417 141.581 135.989 141.581 136.693C141.581 137.398 142.151 137.969 142.853 137.969Z" fill="#FFDD33"/>
<path d="M149.357 139.087C149.381 138.544 148.965 138.084 148.429 138.06C147.892 138.036 147.438 138.457 147.413 139C147.389 139.543 147.805 140.002 148.341 140.026C148.878 140.05 149.332 139.63 149.357 139.087Z" fill="#FFDD33"/>
<path d="M139.907 133.918C140.413 133.918 140.824 133.506 140.824 132.998C140.824 132.49 140.413 132.078 139.907 132.078C139.401 132.078 138.99 132.49 138.99 132.998C138.99 133.506 139.401 133.918 139.907 133.918Z" fill="#FFDD33"/>
<path d="M147.074 136.413C147.58 136.413 147.991 136.002 147.991 135.493C147.991 134.985 147.58 134.574 147.074 134.574C146.568 134.574 146.157 134.985 146.157 135.493C146.157 136.002 146.568 136.413 147.074 136.413Z" fill="#FFDD33"/>
<path d="M11.8651 98.869C12.5982 98.869 13.1925 98.2727 13.1925 97.5371C13.1925 96.8016 12.5982 96.2053 11.8651 96.2053C11.1321 96.2053 10.5378 96.8016 10.5378 97.5371C10.5378 98.2727 11.1321 98.869 11.8651 98.869Z" fill="#FFDD33"/>
<path d="M21.4315 103.093C21.9598 103.093 22.3881 102.663 22.3881 102.133C22.3881 101.603 21.9598 101.173 21.4315 101.173C20.9032 101.173 20.4749 101.603 20.4749 102.133C20.4749 102.663 20.9032 103.093 21.4315 103.093Z" fill="#FFDD33"/>
<path d="M22.3882 99.229C23.2599 99.229 23.9666 98.5199 23.9666 97.6451C23.9666 96.7704 23.2599 96.0613 22.3882 96.0613C21.5164 96.0613 20.8097 96.7704 20.8097 97.6451C20.8097 98.5199 21.5164 99.229 22.3882 99.229Z" fill="#FFDD33"/>
<path d="M27.1195 100.161C27.7799 100.161 28.3153 99.6237 28.3153 98.961C28.3153 98.2983 27.7799 97.7611 27.1195 97.7611C26.4591 97.7611 25.9237 98.2983 25.9237 98.961C25.9237 99.6237 26.4591 100.161 27.1195 100.161Z" fill="#FFDD33"/>
<path d="M16.5168 101.713C17.3995 101.713 18.1152 100.995 18.1152 100.109C18.1152 99.2231 17.3995 98.505 16.5168 98.505C15.634 98.505 14.9184 99.2231 14.9184 100.109C14.9184 100.995 15.634 101.713 16.5168 101.713Z" fill="#FFDD33"/>
<path d="M8.74012 101.265C9.26845 101.265 9.69675 100.835 9.69675 100.305C9.69675 99.7748 9.26845 99.345 8.74012 99.345C8.21178 99.345 7.78348 99.7748 7.78348 100.305C7.78348 100.835 8.21178 101.265 8.74012 101.265Z" fill="#FFDD33"/>
<path d="M74.9235 34.9392C75.9119 34.9392 76.7132 34.1352 76.7132 33.1434C76.7132 32.1516 75.9119 31.3476 74.9235 31.3476C73.9351 31.3476 73.1338 32.1516 73.1338 33.1434C73.1338 34.1352 73.9351 34.9392 74.9235 34.9392Z" fill="#FFDD33"/>
<path d="M68.514 35.1312C69.2251 35.1312 69.8015 34.5528 69.8015 33.8393C69.8015 33.1258 69.2251 32.5474 68.514 32.5474C67.803 32.5474 67.2266 33.1258 67.2266 33.8393C67.2266 34.5528 67.803 35.1312 68.514 35.1312Z" fill="#FFDD33"/>
<path d="M65.6601 40.9346C66.741 40.9346 67.6172 40.0554 67.6172 38.9708C67.6172 37.8862 66.741 37.007 65.6601 37.007C64.5792 37.007 63.7029 37.8862 63.7029 38.9708C63.7029 40.0554 64.5792 40.9346 65.6601 40.9346Z" fill="#FFDD33"/>
<path d="M77.1915 20.9886C78.0809 20.9886 78.8019 20.2651 78.8019 19.3727C78.8019 18.4803 78.0809 17.7569 77.1915 17.7569C76.3022 17.7569 75.5812 18.4803 75.5812 19.3727C75.5812 20.2651 76.3022 20.9886 77.1915 20.9886Z" fill="#FFDD33"/>
<path d="M78.2638 26.788C79.1532 26.788 79.8741 26.0646 79.8741 25.1722C79.8741 24.2797 79.1532 23.5563 78.2638 23.5563C77.3744 23.5563 76.6534 24.2797 76.6534 25.1722C76.6534 26.0646 77.3744 26.788 78.2638 26.788Z" fill="#FFDD33"/>
<path d="M70.3715 29.1958C71.6968 29.1958 72.7711 28.1178 72.7711 26.788C72.7711 25.4582 71.6968 24.3802 70.3715 24.3802C69.0463 24.3802 67.972 25.4582 67.972 26.788C67.972 28.1178 69.0463 29.1958 70.3715 29.1958Z" fill="#FFDD33"/>
<path d="M68.514 45.6142C69.2251 45.6142 69.8015 45.0358 69.8015 44.3223C69.8015 43.6088 69.2251 43.0304 68.514 43.0304C67.803 43.0304 67.2266 43.6088 67.2266 44.3223C67.2266 45.0358 67.803 45.6142 68.514 45.6142Z" fill="#FFDD33"/>
<path d="M189.31 98.2251C190.115 98.2251 190.768 97.5697 190.768 96.7612C190.768 95.9527 190.115 95.2973 189.31 95.2973C188.504 95.2973 187.851 95.9527 187.851 96.7612C187.851 97.5697 188.504 98.2251 189.31 98.2251Z" fill="#FFDD33"/>
<path d="M198.844 102.445C199.423 102.445 199.892 101.974 199.892 101.393C199.892 100.812 199.423 100.341 198.844 100.341C198.265 100.341 197.796 100.812 197.796 101.393C197.796 101.974 198.265 102.445 198.844 102.445Z" fill="#FFDD33"/>
<path d="M199.526 98.761C200.481 98.761 201.256 97.9839 201.256 97.0252C201.256 96.0665 200.481 95.2894 199.526 95.2894C198.57 95.2894 197.796 96.0665 197.796 97.0252C197.796 97.9839 198.57 98.761 199.526 98.761Z" fill="#FFDD33"/>
<path d="M204.038 100.841C204.762 100.841 205.349 100.252 205.349 99.525C205.349 98.7982 204.762 98.2091 204.038 98.2091C203.313 98.2091 202.726 98.7982 202.726 99.525C202.726 100.252 203.313 100.841 204.038 100.841Z" fill="#FFDD33"/>
<path d="M193.383 100.481C194.262 100.481 194.974 99.7664 194.974 98.885C194.974 98.0037 194.262 97.2892 193.383 97.2892C192.505 97.2892 191.793 98.0037 191.793 98.885C191.793 99.7664 192.505 100.481 193.383 100.481Z" fill="#FFDD33"/>
<path d="M185.878 100.857C186.457 100.857 186.926 100.386 186.926 99.8049C186.926 99.224 186.457 98.753 185.878 98.753C185.299 98.753 184.829 99.224 184.829 99.8049C184.829 100.386 185.299 100.857 185.878 100.857Z" fill="#FFDD33"/>
<path d="M101.299 137.589C102.146 137.589 102.833 136.9 102.833 136.049C102.833 135.199 102.146 134.51 101.299 134.51C100.451 134.51 99.7642 135.199 99.7642 136.049C99.7642 136.9 100.451 137.589 101.299 137.589Z" fill="#FFDD33"/>
<path d="M114.704 145.105C115.313 145.105 115.808 144.609 115.808 143.997C115.808 143.385 115.313 142.889 114.704 142.889C114.094 142.889 113.6 143.385 113.6 143.997C113.6 144.609 114.094 145.105 114.704 145.105Z" fill="#FFDD33"/>
<path d="M107.19 132.702C107.8 132.702 108.294 132.206 108.294 131.594C108.294 130.982 107.8 130.486 107.19 130.486C106.58 130.486 106.086 130.982 106.086 131.594C106.086 132.206 106.58 132.702 107.19 132.702Z" fill="#FFDD33"/>
<path d="M113.512 137.213C114.465 137.213 115.238 136.438 115.238 135.481C115.238 134.525 114.465 133.75 113.512 133.75C112.559 133.75 111.786 134.525 111.786 135.481C111.786 136.438 112.559 137.213 113.512 137.213Z" fill="#FFDD33"/>
<path d="M116.087 140.637C116.851 140.637 117.47 140.016 117.47 139.249C117.47 138.483 116.851 137.861 116.087 137.861C115.323 137.861 114.704 138.483 114.704 139.249C114.704 140.016 115.323 140.637 116.087 140.637Z" fill="#FFDD33"/>
<path d="M100.207 144.929C100.938 144.929 101.53 144.334 101.53 143.601C101.53 142.867 100.938 142.273 100.207 142.273C99.4758 142.273 98.8833 142.867 98.8833 143.601C98.8833 144.334 99.4758 144.929 100.207 144.929Z" fill="#FFDD33"/>
<path d="M97.6835 140.357C98.2933 140.357 98.7876 139.861 98.7876 139.249C98.7876 138.637 98.2933 138.141 97.6835 138.141C97.0737 138.141 96.5794 138.637 96.5794 139.249C96.5794 139.861 97.0737 140.357 97.6835 140.357Z" fill="#FFDD33"/>
<path d="M70.0526 188.532C70.7681 188.532 71.3481 187.95 71.3481 187.232C71.3481 186.515 70.7681 185.933 70.0526 185.933C69.3372 185.933 68.7572 186.515 68.7572 187.232C68.7572 187.95 69.3372 188.532 70.0526 188.532Z" fill="#FFDD33"/>
<path d="M74.8717 186.637C75.7214 186.637 76.4103 185.945 76.4103 185.093C76.4103 184.24 75.7214 183.549 74.8717 183.549C74.022 183.549 73.3331 184.24 73.3331 185.093C73.3331 185.945 74.022 186.637 74.8717 186.637Z" fill="#FFDD33"/>
<path d="M78.0565 189.816C78.7015 189.816 79.2244 189.292 79.2244 188.644C79.2244 187.997 78.7015 187.472 78.0565 187.472C77.4115 187.472 76.8886 187.997 76.8886 188.644C76.8886 189.292 77.4115 189.816 78.0565 189.816Z" fill="#FFDD33"/>
<path d="M90.0025 188.96C90.6475 188.96 91.1704 188.436 91.1704 187.788C91.1704 187.141 90.6475 186.617 90.0025 186.617C89.3575 186.617 88.8346 187.141 88.8346 187.788C88.8346 188.436 89.3575 188.96 90.0025 188.96Z" fill="#FFDD33"/>
<path d="M85.0878 188.016C86.0146 188.016 86.7659 187.263 86.7659 186.333C86.7659 185.403 86.0146 184.649 85.0878 184.649C84.161 184.649 83.4097 185.403 83.4097 186.333C83.4097 187.263 84.161 188.016 85.0878 188.016Z" fill="#FFDD33"/>
<path d="M65.7119 185.933C66.227 185.933 66.6446 185.514 66.6446 184.997C66.6446 184.48 66.227 184.061 65.7119 184.061C65.1967 184.061 64.7791 184.48 64.7791 184.997C64.7791 185.514 65.1967 185.933 65.7119 185.933Z" fill="#FFDD33"/>
<path d="M143.04 185.925C143.511 185.925 143.893 185.541 143.893 185.069C143.893 184.596 143.511 184.213 143.04 184.213C142.569 184.213 142.187 184.596 142.187 185.069C142.187 185.541 142.569 185.925 143.04 185.925Z" fill="#FFDD33"/>
<path d="M133.777 187.556C134.444 187.556 134.984 187.014 134.984 186.345C134.984 185.675 134.444 185.133 133.777 185.133C133.11 185.133 132.569 185.675 132.569 186.345C132.569 187.014 133.11 187.556 133.777 187.556Z" fill="#FFDD33"/>
<path d="M147.102 187.064C147.879 187.064 148.509 186.432 148.509 185.653C148.509 184.873 147.879 184.241 147.102 184.241C146.325 184.241 145.695 184.873 145.695 185.653C145.695 186.432 146.325 187.064 147.102 187.064Z" fill="#FFDD33"/>
<path d="M150.677 183.925C151.265 183.925 151.742 183.447 151.742 182.857C151.742 182.267 151.265 181.789 150.677 181.789C150.089 181.789 149.613 182.267 149.613 182.857C149.613 183.447 150.089 183.925 150.677 183.925Z" fill="#FFDD33"/>
<path d="M125.502 188.128C126.235 188.128 126.829 187.532 126.829 186.796C126.829 186.061 126.235 185.465 125.502 185.465C124.769 185.465 124.174 186.061 124.174 186.796C124.174 187.532 124.769 188.128 125.502 188.128Z" fill="#FFDD33"/>
<path d="M129.886 189.268C130.357 189.268 130.739 188.885 130.739 188.412C130.739 187.94 130.357 187.556 129.886 187.556C129.415 187.556 129.033 187.94 129.033 188.412C129.033 188.885 129.415 189.268 129.886 189.268Z" fill="#FFDD33"/>
<path d="M137.4 189.98C138.045 189.98 138.568 189.456 138.568 188.808C138.568 188.161 138.045 187.636 137.4 187.636C136.755 187.636 136.232 188.161 136.232 188.808C136.232 189.456 136.755 189.98 137.4 189.98Z" fill="#FFDD33"/>
<path d="M34.0352 161.951C34.8321 161.951 35.4782 161.303 35.4782 160.503C35.4782 159.703 34.8321 159.055 34.0352 159.055C33.2383 159.055 32.5923 159.703 32.5923 160.503C32.5923 161.303 33.2383 161.951 34.0352 161.951Z" fill="#FFDD33"/>
<path d="M37.4871 157.679C38.0022 157.679 38.4198 157.26 38.4198 156.743C38.4198 156.227 38.0022 155.808 37.4871 155.808C36.972 155.808 36.5544 156.227 36.5544 156.743C36.5544 157.26 36.972 157.679 37.4871 157.679Z" fill="#FFDD33"/>
<path d="M44.0959 162.723C44.7959 162.723 45.3634 162.153 45.3634 161.451C45.3634 160.749 44.7959 160.179 44.0959 160.179C43.3958 160.179 42.8283 160.749 42.8283 161.451C42.8283 162.153 43.3958 162.723 44.0959 162.723Z" fill="#FFDD33"/>
<path d="M48.7156 161.219C49.3606 161.219 49.8835 160.694 49.8835 160.047C49.8835 159.4 49.3606 158.875 48.7156 158.875C48.0706 158.875 47.5477 159.4 47.5477 160.047C47.5477 160.694 48.0706 161.219 48.7156 161.219Z" fill="#FFDD33"/>
<path d="M40.1497 160.879C40.7859 160.879 41.3017 160.362 41.3017 159.723C41.3017 159.085 40.7859 158.567 40.1497 158.567C39.5135 158.567 38.9978 159.085 38.9978 159.723C38.9978 160.362 39.5135 160.879 40.1497 160.879Z" fill="#FFDD33"/>
<path d="M31.253 158.039C31.7681 158.039 32.1857 157.62 32.1857 157.103C32.1857 156.586 31.7681 156.167 31.253 156.167C30.7379 156.167 30.3203 156.586 30.3203 157.103C30.3203 157.62 30.7379 158.039 31.253 158.039Z" fill="#FFDD33"/>
<path d="M169.914 163.027C170.486 163.027 170.95 162.561 170.95 161.987C170.95 161.413 170.486 160.947 169.914 160.947C169.341 160.947 168.877 161.413 168.877 161.987C168.877 162.561 169.341 163.027 169.914 163.027Z" fill="#FFDD33"/>
<path d="M181.286 162.591C181.785 162.591 182.191 162.184 182.191 161.683C182.191 161.182 181.785 160.775 181.286 160.775C180.786 160.775 180.381 161.182 180.381 161.683C180.381 162.184 180.786 162.591 181.286 162.591Z" fill="#FFDD33"/>
<path d="M178.651 160.771C179.369 160.771 179.95 160.187 179.95 159.467C179.95 158.747 179.369 158.163 178.651 158.163C177.933 158.163 177.352 158.747 177.352 159.467C177.352 160.187 177.933 160.771 178.651 160.771Z" fill="#FFDD33"/>
<path d="M185.12 161.115C185.745 161.115 186.252 160.606 186.252 159.979C186.252 159.352 185.745 158.843 185.12 158.843C184.495 158.843 183.988 159.352 183.988 159.979C183.988 160.606 184.495 161.115 185.12 161.115Z" fill="#FFDD33"/>
<path d="M175.498 163.691C176.187 163.691 176.746 163.13 176.746 162.439C176.746 161.747 176.187 161.187 175.498 161.187C174.809 161.187 174.25 161.747 174.25 162.439C174.25 163.13 174.809 163.691 175.498 163.691Z" fill="#FFDD33"/>
<path d="M173.194 160.991C173.694 160.991 174.099 160.585 174.099 160.083C174.099 159.582 173.694 159.175 173.194 159.175C172.694 159.175 172.289 159.582 172.289 160.083C172.289 160.585 172.694 160.991 173.194 160.991Z" fill="#FFDD33"/>
</svg>
