<svg width="112" height="112" viewBox="0 0 112 112" fill="none" xmlns="http://www.w3.org/2000/svg">
<g clip-path="url(#clip0)">
<path d="M52.8889 112C82.0986 112 105.778 88.3209 105.778 59.1112C105.778 29.9015 82.0986 6.22229 52.8889 6.22229C23.6792 6.22229 0 29.9015 0 59.1112C0 88.3209 23.6792 112 52.8889 112Z" fill="#FFCC4D"/>
<path d="M55.9969 88.6666C59.4333 88.6666 62.2191 85.1844 62.2191 80.8889C62.2191 76.5933 59.4333 73.1111 55.9969 73.1111C52.5604 73.1111 49.7747 76.5933 49.7747 80.8889C49.7747 85.1844 52.5604 88.6666 55.9969 88.6666Z" fill="#664500"/>
<path d="M25.2344 66.5247C24.6682 66.5247 24.0926 66.3691 23.5793 66.0456C22.1264 65.1309 21.6908 63.2114 22.6055 61.7554C25.4553 57.2349 34.1197 49.5038 46.5299 52.5402C48.1975 52.9478 49.2179 54.634 48.8104 56.3016C48.3997 57.9691 46.7073 58.9834 45.049 58.582C33.8366 55.838 27.9317 64.9785 27.8726 65.0718C27.2784 66.0114 26.2673 66.5247 25.2344 66.5247ZM62.4837 54.8829C61.5815 54.8829 60.6917 54.494 60.0757 53.7442C58.9868 52.4158 59.1797 50.4527 60.5113 49.3638C70.3921 41.2625 81.5486 44.5042 86.069 47.354C87.5219 48.2687 87.9575 50.1914 87.0397 51.6442C86.1281 53.0909 84.2148 53.5327 82.7588 52.6242C82.3295 52.3629 73.2637 46.9527 64.453 54.1767C63.8744 54.6527 63.1775 54.8829 62.4837 54.8829Z" fill="#664500"/>
<path d="M41.521 97.2937C41.3094 97.2937 41.0947 97.2657 40.8832 97.2066C39.645 96.855 38.9232 95.567 39.2747 94.3257C40.6343 89.5346 40.0774 84.9022 37.7503 81.6137C36.2041 79.4297 34.0014 78.095 31.7054 77.9488C30.4174 77.871 29.4405 76.7604 29.5214 75.4755C29.6023 74.1906 30.7067 73.139 31.9947 73.2946C35.7063 73.5248 39.1907 75.575 41.5552 78.9164C44.7005 83.3622 45.5063 89.4413 43.761 95.595C43.4716 96.6248 42.5352 97.2937 41.521 97.2937ZM75.8583 87.7706C75.4165 87.7706 74.9716 87.6461 74.5765 87.3848C70.9458 84.9893 68.9143 80.7986 69.0014 75.8893C69.0916 70.8026 71.5183 66.0799 75.1738 63.8524C76.2721 63.1804 77.7063 63.5288 78.3783 64.6333C79.0503 65.7346 78.7018 67.1657 77.5974 67.8377C75.3107 69.2315 73.7272 72.5013 73.6649 75.9702C73.6027 79.2524 74.8752 81.9933 77.1432 83.4897C78.2196 84.199 78.5152 85.6457 77.8058 86.7222C77.3578 87.4035 76.6174 87.7706 75.8583 87.7706Z" fill="#E2A62D"/>
<path d="M53.4458 8.46211C53.3121 8.30967 53.1036 8.22567 52.8578 8.179C52.8578 8.179 3.3165 -1.22589 1.17294 0.665668C-0.967501 2.56033 2.30228 52.8825 2.30228 52.8825C2.31783 53.1345 2.37383 53.3492 2.51072 53.5017C4.38983 55.6297 17.3134 47.267 31.3787 34.8319C45.4472 22.3937 55.325 10.5901 53.4458 8.46211Z" fill="#DD2E44"/>
<path d="M1.08587 0.843162C1.03921 0.936496 0.998762 1.06405 0.967651 1.22583C1.46232 5.49116 6.24099 40.5876 9.21832 51.5574C13.6859 49.0592 18.225 45.6649 23.5574 41.4369C19.0277 33.1458 3.60276 0.454273 1.08587 0.843162Z" fill="#EA596E"/>
<path d="M93.0283 90.9346L60.1346 86.8809C56.619 86.5635 50.4372 86.5324 50.7546 80.9635C51.0439 75.9142 57.1012 76.692 61.5781 77.3546L94.6741 82.8737L93.0283 90.9346Z" fill="#3B88C3"/>
<path d="M94.6709 82.877L81.5358 80.6246C79.9989 80.3477 78.63 82.6375 78.5615 85.061C78.4838 87.7553 79.2678 89.1179 80.8202 89.4353L93.7126 91.0282L94.6709 82.877Z" fill="#88C9F9"/>
<path d="M108.634 81.9497L100.476 89.4506L85.8947 73.5933L94.052 66.0924C98.2862 62.1973 104.938 62.4773 108.833 66.7115L109.253 67.1688C113.145 71.4062 112.868 78.0546 108.634 81.9497Z" fill="#3B88C3"/>
<path d="M100.471 89.455C103.975 86.2336 103.551 80.0724 99.5251 75.6935C95.499 71.3147 89.3949 70.3763 85.8913 73.5977C82.3877 76.8191 82.8113 82.9803 86.8375 87.3592C90.8636 91.738 96.9677 92.6764 100.471 89.455Z" fill="#88C9F9"/>
<path d="M97.5552 86.2831C99.307 84.6724 98.769 81.237 96.3535 78.6099C93.9381 75.9829 90.5598 75.1589 88.808 76.7696C87.0562 78.3803 87.5942 81.8157 90.0097 84.4428C92.4251 87.0698 95.8034 87.8938 97.5552 86.2831Z" fill="#226699"/>
<path d="M7.77775 108.889C10.3551 108.889 12.4444 106.799 12.4444 104.222C12.4444 101.645 10.3551 99.5554 7.77775 99.5554C5.20042 99.5554 3.11108 101.645 3.11108 104.222C3.11108 106.799 5.20042 108.889 7.77775 108.889Z" fill="#55ACEE"/>
<path d="M90.2222 12.4444C93.6587 12.4444 96.4444 9.65866 96.4444 6.22222C96.4444 2.78578 93.6587 0 90.2222 0C86.7858 0 84 2.78578 84 6.22222C84 9.65866 86.7858 12.4444 90.2222 12.4444Z" fill="#55ACEE"/>
<path d="M15.1323 90.9876L7.8585 73.5156L1.28162 92.3223L15.1323 90.9876ZM80.8887 15.5556L68.4443 18.6667L71.5554 6.22229L80.8887 15.5556Z" fill="#EA596E"/>
<path d="M99.5525 40.4445L112 24.8859L102.667 18.6667L99.5525 40.4445Z" fill="#77B255"/>
</g>
<defs>
<clipPath id="clip0">
<rect width="112" height="112" fill="white"/>
</clipPath>
</defs>
</svg>
