<svg width="80" height="80" viewBox="0 0 80 80" fill="none" xmlns="http://www.w3.org/2000/svg">
<path d="M14 1H66C73.1797 1 79 6.8203 79 14V66C79 73.1797 73.1797 79 66 79H14C6.8203 79 1 73.1797 1 66V14C1 6.8203 6.8203 1 14 1Z" fill="#D699FF" stroke="#FCFAFC" stroke-width="2"/>
<path d="M51.1777 29.3761C51.1781 27.4174 50.7185 25.4876 49.8382 23.7515C48.9578 22.0154 47.6829 20.5244 46.122 19.4057C44.5612 18.2871 42.7608 17.574 40.8746 17.3274C38.9883 17.0807 37.0721 17.3078 35.2894 17.9892C33.5068 18.6706 31.9106 19.7862 30.6371 21.2407C29.3636 22.6952 28.4505 24.4454 27.9758 26.3422C27.5012 28.2389 27.4789 30.2257 27.911 32.1332C28.3432 34.0407 29.2168 35.8122 30.4574 37.2966C30.2004 37.7578 30.034 38.2667 29.9679 38.7942C29.9018 39.3217 29.9371 39.8574 30.072 40.3708C30.2069 40.8842 30.4385 41.3652 30.7539 41.7864C31.0692 42.2075 31.4619 42.5606 31.9097 42.8254C32.3574 43.0902 32.8514 43.2615 33.3635 43.3297C33.8755 43.3978 34.3956 43.3613 34.894 43.2224C35.3923 43.0835 35.8593 42.8448 36.2681 42.52C36.6769 42.1952 37.0197 41.7906 37.2767 41.3293C38.6744 41.5886 40.1059 41.5886 41.5036 41.3293C41.758 41.7955 42.0994 42.2052 42.5082 42.5347C42.917 42.8642 43.3851 43.1071 43.8855 43.2493C44.3859 43.3915 44.9087 43.4302 45.4237 43.3631C45.9387 43.2961 46.4357 43.1247 46.886 42.8587C47.3363 42.5928 47.7311 42.2376 48.0475 41.8137C48.3639 41.3898 48.5957 40.9055 48.7294 40.3888C48.8632 39.8722 48.8963 39.3333 48.8268 38.8034C48.7574 38.2734 48.5868 37.7629 48.3248 37.3013C50.1699 35.0989 51.1827 32.2853 51.1777 29.3761Z" fill="#FCFAFC"/>
<path d="M39.032 18.3204C41.9389 18.3221 44.7262 19.5129 46.7811 21.6308C48.8361 23.7488 49.9905 26.6207 49.9908 29.6152" fill="#FCFAFC"/>
<path d="M33.8592 41.3151C34.9273 41.3151 35.7931 40.4231 35.7931 39.3229C35.7931 38.2226 34.9273 37.3307 33.8592 37.3307C32.7912 37.3307 31.9253 38.2226 31.9253 39.3229C31.9253 40.4231 32.7912 41.3151 33.8592 41.3151Z" fill="#FCFAFC"/>
<path d="M33.8592 40.5173C34.5113 40.5173 35.0398 39.9728 35.0398 39.3011C35.0398 38.6294 34.5113 38.0849 33.8592 38.0849C33.2072 38.0849 32.6787 38.6294 32.6787 39.3011C32.6787 39.9728 33.2072 40.5173 33.8592 40.5173Z" fill="#FCFAFC"/>
<path d="M33.3859 39.3229C33.5893 39.3229 33.7543 39.153 33.7543 38.9434C33.7543 38.7339 33.5893 38.564 33.3859 38.564C33.1825 38.564 33.0175 38.7339 33.0175 38.9434C33.0175 39.153 33.1825 39.3229 33.3859 39.3229Z" fill="#FCFAFC"/>
<path d="M44.9201 36.0367C45.3391 36.0366 45.7541 36.1215 46.1412 36.2866C46.5283 36.4517 46.8801 36.6937 47.1764 36.9989C47.4727 37.304 47.7078 37.6663 47.8682 38.0651C48.0285 38.4639 48.1111 38.8913 48.1111 39.3229" fill="#FCFAFC"/>
<path d="M44.9203 41.3151C45.9883 41.3151 46.8542 40.4231 46.8542 39.3229C46.8542 38.2226 45.9883 37.3307 44.9203 37.3307C43.8522 37.3307 42.9864 38.2226 42.9864 39.3229C42.9864 40.4231 43.8522 41.3151 44.9203 41.3151Z" fill="#FCFAFC"/>
<path d="M44.9203 40.5173C45.5723 40.5173 46.1009 39.9728 46.1009 39.3011C46.1009 38.6294 45.5723 38.0849 44.9203 38.0849C44.2683 38.0849 43.7397 38.6294 43.7397 39.3011C43.7397 39.9728 44.2683 40.5173 44.9203 40.5173Z" fill="#FCFAFC"/>
<path d="M44.4469 39.3229C44.6504 39.3229 44.8153 39.153 44.8153 38.9434C44.8153 38.7339 44.6504 38.564 44.4469 38.564C44.2435 38.564 44.0786 38.7339 44.0786 38.9434C44.0786 39.153 44.2435 39.3229 44.4469 39.3229Z" fill="#FCFAFC"/>
<path d="M46.8468 41.3047H31.9337V44.1526H46.8468V41.3047Z" fill="#FCFAFC"/>
<path d="M37.9269 40.2223H40.86V40.5173C40.86 40.9181 40.7054 41.3025 40.4303 41.5859C40.1552 41.8693 39.782 42.0285 39.393 42.0285C39.2003 42.0284 39.0096 41.9892 38.8316 41.9131C38.6537 41.8371 38.4921 41.7256 38.3559 41.5852C38.2198 41.4448 38.1118 41.2781 38.0382 41.0947C37.9646 40.9113 37.9268 40.7148 37.9269 40.5163V40.2223Z" fill="#FCFAFC"/>
<path d="M61.9625 39.3172H56.5678C55.5062 39.3172 54.4877 39.75 53.7348 40.5211C52.982 41.2922 52.556 42.3389 52.5499 43.4325V46.547C52.5499 46.7483 52.4723 46.9413 52.3341 47.0836C52.196 47.226 52.0086 47.3059 51.8132 47.3059H50.3692C50.1817 47.3063 50.0011 47.233 49.8642 47.101C49.7273 46.969 49.6445 46.7881 49.6325 46.5954C49.731 44.5083 48.1222 42.7191 46.0787 42.7267H32.6989C30.6536 42.7191 29.0457 44.5092 29.1452 46.5982C29.1392 46.7953 29.0589 46.9823 28.9214 47.1196C28.7839 47.2568 28.5999 47.3335 28.4084 47.3334H26.9681C26.7728 47.3334 26.5854 47.2535 26.4472 47.1111C26.309 46.9688 26.2314 46.7758 26.2314 46.5745V43.46C26.2256 42.3665 25.7998 41.3198 25.0471 40.5487C24.2944 39.7775 23.276 39.3447 22.2144 39.3447H16.8216C16.5542 39.3388 16.2883 39.388 16.0396 39.4893C15.7908 39.5907 15.5642 39.7422 15.373 39.9349C15.1819 40.1277 15.03 40.3578 14.9263 40.6118C14.8226 40.8659 14.7692 41.1387 14.7692 41.4142C14.7692 41.6898 14.8226 41.9626 14.9263 42.2166C15.03 42.4706 15.1819 42.7008 15.373 42.8935C15.5642 43.0863 15.7908 43.2378 16.0396 43.3391C16.2883 43.4405 16.5542 43.4896 16.8216 43.4837H21.4768C21.6722 43.4837 21.8596 43.5637 21.9977 43.706C22.1359 43.8483 22.2135 44.0414 22.2135 44.2427V47.3363C22.2139 48.4058 22.6162 49.4337 23.3361 50.2044C24.0559 50.9751 25.0374 51.4289 26.0749 51.4706H29.3026C30.3309 51.4293 31.3047 50.9833 32.0231 50.2243C32.7415 49.4653 33.1499 48.4513 33.164 47.3913V47.397C33.1635 47.2973 33.1821 47.1985 33.2187 47.1063C33.2552 47.014 33.3091 46.9301 33.3772 46.8592C33.4452 46.7884 33.5262 46.7321 33.6154 46.6935C33.7046 46.6549 33.8003 46.6348 33.897 46.6343C33.9938 46.6338 34.0897 46.6529 34.1792 46.6906C34.2688 46.7282 34.3503 46.7837 34.419 46.8539C34.4878 46.924 34.5425 47.0074 34.5799 47.0992C34.6174 47.1911 34.6369 47.2897 34.6374 47.3894V57.874C34.6374 58.0753 34.5598 58.2684 34.4216 58.4107C34.2835 58.553 34.0961 58.633 33.9007 58.633H32.4549C32.2595 58.633 32.0721 58.553 31.9339 58.4107C31.7958 58.2684 31.7182 58.0753 31.7182 57.874V56.5374C31.7133 55.4437 31.2885 54.3966 30.5365 53.6246C29.7845 52.8526 28.7665 52.4186 27.7049 52.4173H22.3093C22.0419 52.4114 21.776 52.4606 21.5272 52.5619C21.2785 52.6633 21.0519 52.8148 20.8607 53.0075C20.6695 53.2003 20.5177 53.4304 20.414 53.6845C20.3103 53.9385 20.2569 54.2113 20.2569 54.4868C20.2569 54.7624 20.3103 55.0352 20.414 55.2892C20.5177 55.5432 20.6695 55.7734 20.8607 55.9661C21.0519 56.1589 21.2785 56.3104 21.5272 56.4117C21.776 56.5131 22.0419 56.5622 22.3093 56.5563H26.9681C27.1635 56.5563 27.3509 56.6363 27.4891 56.7786C27.6273 56.921 27.7049 57.114 27.7049 57.3153V58.633C27.7056 59.7296 28.1287 60.781 28.8814 61.5565C29.634 62.332 30.6546 62.7682 31.7191 62.7692H34.6347C35.1624 62.7693 35.685 62.6623 36.1725 62.4544C36.6601 62.2464 37.1032 61.9416 37.4763 61.5572C37.8495 61.1728 38.1456 60.7165 38.3476 60.2143C38.5495 59.7121 38.6535 59.1738 38.6535 58.6301V46.6362V50.1519C38.6529 49.9506 38.7299 49.7573 38.8676 49.6146C39.0054 49.4718 39.1925 49.3912 39.3879 49.3906C39.5833 49.39 39.7709 49.4693 39.9095 49.6112C40.0481 49.7531 40.1263 49.9459 40.1269 50.1472V58.6244C40.1262 59.1684 40.2296 59.7071 40.4311 60.2099C40.6326 60.7127 40.9284 61.1696 41.3015 61.5545C41.6745 61.9395 42.1176 62.2449 42.6053 62.4533C43.0931 62.6617 43.6159 62.769 44.1439 62.7692H47.0604C48.126 62.7692 49.148 62.3331 49.9015 61.5569C50.655 60.7806 51.0783 59.7279 51.0783 58.6301V57.3105C51.0783 57.1093 51.1559 56.9162 51.2941 56.7739C51.4323 56.6316 51.6197 56.5516 51.815 56.5516H56.4702C56.7376 56.5575 57.0035 56.5083 57.2523 56.407C57.501 56.3056 57.7276 56.1541 57.9188 55.9614C58.11 55.7686 58.2618 55.5385 58.3655 55.2845C58.4692 55.0304 58.5226 54.7577 58.5226 54.4821C58.5226 54.2065 58.4692 53.9337 58.3655 53.6797C58.2618 53.4257 58.11 53.1956 57.9188 53.0028C57.7276 52.81 57.501 52.6586 57.2523 52.5572C57.0035 52.4558 56.7376 52.4067 56.4702 52.4126H51.0783C50.0159 52.4126 48.9967 52.846 48.2437 53.6182C47.4907 54.3903 47.0653 55.4382 47.0604 56.5326V57.8693C47.0604 58.0706 46.9828 58.2636 46.8446 58.406C46.7065 58.5483 46.5191 58.6282 46.3237 58.6282H44.8797C44.6843 58.6282 44.4969 58.5483 44.3588 58.406C44.2206 58.2636 44.143 58.0706 44.143 57.8693V47.378C44.1454 47.1962 44.211 47.0213 44.3279 46.8852C44.4449 46.7491 44.6054 46.6607 44.7803 46.6362H44.9764C45.1527 46.6609 45.3143 46.7505 45.4314 46.8884C45.5486 47.0264 45.6133 47.2033 45.6137 47.3865V47.3059C45.6142 48.4037 46.0378 49.4563 46.7914 50.2324C47.545 51.0086 48.5669 51.4447 49.6325 51.4449H52.549C53.6147 51.4449 54.6368 51.0089 55.3904 50.2327C56.1441 49.4565 56.5676 48.4037 56.5678 47.3059V44.2142C56.5678 44.0129 56.6454 43.8199 56.7836 43.6776C56.9218 43.5352 57.1092 43.4553 57.3045 43.4553H61.9625C62.2299 43.4612 62.4958 43.412 62.7445 43.3107C62.9933 43.2093 63.2199 43.0578 63.4111 42.865C63.6022 42.6723 63.7541 42.4422 63.8578 42.1881C63.9615 41.9341 64.0149 41.6613 64.0149 41.3858C64.0149 41.1102 63.9615 40.8374 63.8578 40.5834C63.7541 40.3294 63.6022 40.0992 63.4111 39.9065C63.2199 39.7137 62.9933 39.5622 62.7445 39.4609C62.4958 39.3595 62.2299 39.3113 61.9625 39.3172Z" fill="#FCFAFC"/>
<path d="M41.0111 36.3716C41.1733 36.3716 41.3049 36.2361 41.3049 36.069C41.3049 35.9018 41.1733 35.7664 41.0111 35.7664C40.8489 35.7664 40.7173 35.9018 40.7173 36.069C40.7173 36.2361 40.8489 36.3716 41.0111 36.3716Z" fill="#FCFAFC"/>
<path d="M43.027 34.7257C43.1439 34.7257 43.2388 34.628 43.2388 34.5075C43.2388 34.387 43.1439 34.2893 43.027 34.2893C42.91 34.2893 42.8151 34.387 42.8151 34.5075C42.8151 34.628 42.91 34.7257 43.027 34.7257Z" fill="#FCFAFC"/>
<path d="M41.9044 35.1298C42.0966 35.1298 42.2525 34.9693 42.2525 34.7712C42.2525 34.5732 42.0966 34.4126 41.9044 34.4126C41.7121 34.4126 41.5563 34.5732 41.5563 34.7712C41.5563 34.9693 41.7121 35.1298 41.9044 35.1298Z" fill="#FCFAFC"/>
<path d="M42.2532 36.328C42.3992 36.328 42.5175 36.2061 42.5175 36.0557C42.5175 35.9054 42.3992 35.7835 42.2532 35.7835C42.1073 35.7835 41.9889 35.9054 41.9889 36.0557C41.9889 36.2061 42.1073 36.328 42.2532 36.328Z" fill="#FCFAFC"/>
<path d="M40.9282 37.7358C41.0452 37.7358 41.14 37.6381 41.14 37.5176C41.14 37.3971 41.0452 37.2994 40.9282 37.2994C40.8112 37.2994 40.7164 37.3971 40.7164 37.5176C40.7164 37.6381 40.8112 37.7358 40.9282 37.7358Z" fill="#FCFAFC"/>
<path d="M31.5284 49.7687C31.6906 49.7687 31.8222 49.6332 31.8222 49.466C31.8222 49.2989 31.6906 49.1634 31.5284 49.1634C31.3661 49.1634 31.2346 49.2989 31.2346 49.466C31.2346 49.6332 31.3661 49.7687 31.5284 49.7687Z" fill="#FCFAFC"/>
<path d="M30.1949 50.4119C30.319 50.4119 30.4196 50.3074 30.4196 50.1785C30.4196 50.0496 30.319 49.9451 30.1949 49.9451C30.0708 49.9451 29.9702 50.0496 29.9702 50.1785C29.9702 50.3074 30.0708 50.4119 30.1949 50.4119Z" fill="#FCFAFC"/>
<path d="M32.1297 48.856C32.2467 48.856 32.3415 48.7583 32.3415 48.6378C32.3415 48.5173 32.2467 48.4196 32.1297 48.4196C32.0127 48.4196 31.9179 48.5173 31.9179 48.6378C31.9179 48.7583 32.0127 48.856 32.1297 48.856Z" fill="#FCFAFC"/>
<path d="M30.5329 49.5713C30.6499 49.5713 30.7447 49.4736 30.7447 49.3531C30.7447 49.2326 30.6499 49.1349 30.5329 49.1349C30.4159 49.1349 30.3211 49.2326 30.3211 49.3531C30.3211 49.4736 30.4159 49.5713 30.5329 49.5713Z" fill="#FCFAFC"/>
<path d="M47.6681 49.9537C47.8304 49.9537 47.9619 49.8182 47.9619 49.651C47.9619 49.4839 47.8304 49.3484 47.6681 49.3484C47.5059 49.3484 47.3743 49.4839 47.3743 49.651C47.3743 49.8182 47.5059 49.9537 47.6681 49.9537Z" fill="#FCFAFC"/>
<path d="M49.1707 50.2186C49.1763 50.0899 49.0803 49.9809 48.9564 49.9751C48.8324 49.9694 48.7274 50.0692 48.7218 50.1979C48.7162 50.3267 48.8121 50.4357 48.9361 50.4414C49.0601 50.4471 49.1651 50.3474 49.1707 50.2186Z" fill="#FCFAFC"/>
<path d="M46.9878 48.9926C47.1048 48.9926 47.1996 48.895 47.1996 48.7745C47.1996 48.654 47.1048 48.5563 46.9878 48.5563C46.8708 48.5563 46.776 48.654 46.776 48.7745C46.776 48.895 46.8708 48.9926 46.9878 48.9926Z" fill="#FCFAFC"/>
<path d="M48.6436 49.5846C48.7605 49.5846 48.8554 49.4869 48.8554 49.3664C48.8554 49.2459 48.7605 49.1482 48.6436 49.1482C48.5266 49.1482 48.4318 49.2459 48.4318 49.3664C48.4318 49.4869 48.5266 49.5846 48.6436 49.5846Z" fill="#FCFAFC"/>
<path d="M17.4056 40.6795C17.575 40.6795 17.7123 40.5381 17.7123 40.3636C17.7123 40.1891 17.575 40.0477 17.4056 40.0477C17.2362 40.0477 17.0989 40.1891 17.0989 40.3636C17.0989 40.5381 17.2362 40.6795 17.4056 40.6795Z" fill="#FCFAFC"/>
<path d="M19.6156 41.6813C19.7377 41.6813 19.8366 41.5794 19.8366 41.4536C19.8366 41.3279 19.7377 41.2259 19.6156 41.2259C19.4936 41.2259 19.3946 41.3279 19.3946 41.4536C19.3946 41.5794 19.4936 41.6813 19.6156 41.6813Z" fill="#FCFAFC"/>
<path d="M19.8368 40.7649C20.0382 40.7649 20.2014 40.5967 20.2014 40.3892C20.2014 40.1817 20.0382 40.0135 19.8368 40.0135C19.6353 40.0135 19.4721 40.1817 19.4721 40.3892C19.4721 40.5967 19.6353 40.7649 19.8368 40.7649Z" fill="#FCFAFC"/>
<path d="M20.9298 40.9859C21.0823 40.9859 21.206 40.8585 21.206 40.7013C21.206 40.5442 21.0823 40.4167 20.9298 40.4167C20.7772 40.4167 20.6535 40.5442 20.6535 40.7013C20.6535 40.8585 20.7772 40.9859 20.9298 40.9859Z" fill="#FCFAFC"/>
<path d="M18.4801 41.354C18.684 41.354 18.8494 41.1837 18.8494 40.9736C18.8494 40.7635 18.684 40.5931 18.4801 40.5931C18.2761 40.5931 18.1108 40.7635 18.1108 40.9736C18.1108 41.1837 18.2761 41.354 18.4801 41.354Z" fill="#FCFAFC"/>
<path d="M16.6834 41.2478C16.8055 41.2478 16.9045 41.1458 16.9045 41.0201C16.9045 40.8943 16.8055 40.7924 16.6834 40.7924C16.5614 40.7924 16.4624 40.8943 16.4624 41.0201C16.4624 41.1458 16.5614 41.2478 16.6834 41.2478Z" fill="#FCFAFC"/>
<path d="M31.9743 25.516C32.2026 25.516 32.3878 25.3253 32.3878 25.0901C32.3878 24.8548 32.2026 24.6641 31.9743 24.6641C31.7459 24.6641 31.5608 24.8548 31.5608 25.0901C31.5608 25.3253 31.7459 25.516 31.9743 25.516Z" fill="#FCFAFC"/>
<path d="M30.4934 25.5616C30.6576 25.5616 30.7908 25.4244 30.7908 25.2552C30.7908 25.0859 30.6576 24.9487 30.4934 24.9487C30.3291 24.9487 30.1959 25.0859 30.1959 25.2552C30.1959 25.4244 30.3291 25.5616 30.4934 25.5616Z" fill="#FCFAFC"/>
<path d="M29.8341 26.9381C30.0838 26.9381 30.2862 26.7295 30.2862 26.4723C30.2862 26.215 30.0838 26.0065 29.8341 26.0065C29.5844 26.0065 29.3819 26.215 29.3819 26.4723C29.3819 26.7295 29.5844 26.9381 29.8341 26.9381Z" fill="#FCFAFC"/>
<path d="M32.4972 22.207C32.7026 22.207 32.8692 22.0355 32.8692 21.8238C32.8692 21.6121 32.7026 21.4405 32.4972 21.4405C32.2917 21.4405 32.1251 21.6121 32.1251 21.8238C32.1251 22.0355 32.2917 22.207 32.4972 22.207Z" fill="#FCFAFC"/>
<path d="M32.7459 23.5826C32.9513 23.5826 33.1179 23.411 33.1179 23.1994C33.1179 22.9877 32.9513 22.8161 32.7459 22.8161C32.5404 22.8161 32.3738 22.9877 32.3738 23.1994C32.3738 23.411 32.5404 23.5826 32.7459 23.5826Z" fill="#FCFAFC"/>
<path d="M30.9225 24.1537C31.2287 24.1537 31.4769 23.898 31.4769 23.5826C31.4769 23.2672 31.2287 23.0115 30.9225 23.0115C30.6163 23.0115 30.3681 23.2672 30.3681 23.5826C30.3681 23.898 30.6163 24.1537 30.9225 24.1537Z" fill="#FCFAFC"/>
<path d="M30.4934 28.048C30.6576 28.048 30.7908 27.9108 30.7908 27.7416C30.7908 27.5724 30.6576 27.4352 30.4934 27.4352C30.3291 27.4352 30.1959 27.5724 30.1959 27.7416C30.1959 27.9108 30.3291 28.048 30.4934 28.048Z" fill="#FCFAFC"/>
<path d="M58.4014 40.5267C58.5876 40.5267 58.7385 40.3713 58.7385 40.1795C58.7385 39.9878 58.5876 39.8323 58.4014 39.8323C58.2153 39.8323 58.0644 39.9878 58.0644 40.1795C58.0644 40.3713 58.2153 40.5267 58.4014 40.5267Z" fill="#FCFAFC"/>
<path d="M60.6032 41.5276C60.737 41.5276 60.8454 41.4159 60.8454 41.2781C60.8454 41.1403 60.737 41.0286 60.6032 41.0286C60.4694 41.0286 60.361 41.1403 60.361 41.2781C60.361 41.4159 60.4694 41.5276 60.6032 41.5276Z" fill="#FCFAFC"/>
<path d="M60.7607 40.6539C60.9814 40.6539 61.1603 40.4696 61.1603 40.2422C61.1603 40.0148 60.9814 39.8305 60.7607 39.8305C60.5399 39.8305 60.361 40.0148 60.361 40.2422C60.361 40.4696 60.5399 40.6539 60.7607 40.6539Z" fill="#FCFAFC"/>
<path d="M61.8041 41.1472C61.9715 41.1472 62.1071 41.0075 62.1071 40.8351C62.1071 40.6627 61.9715 40.523 61.8041 40.523C61.6368 40.523 61.5012 40.6627 61.5012 40.8351C61.5012 41.0075 61.6368 41.1472 61.8041 41.1472Z" fill="#FCFAFC"/>
<path d="M59.3415 41.0618C59.5444 41.0618 59.7089 40.8923 59.7089 40.6833C59.7089 40.4742 59.5444 40.3048 59.3415 40.3048C59.1386 40.3048 58.9741 40.4742 58.9741 40.6833C58.9741 40.8923 59.1386 41.0618 59.3415 41.0618Z" fill="#FCFAFC"/>
<path d="M57.6084 41.151C57.7422 41.151 57.8506 41.0393 57.8506 40.9015C57.8506 40.7637 57.7422 40.652 57.6084 40.652C57.4747 40.652 57.3662 40.7637 57.3662 40.9015C57.3662 41.0393 57.4747 41.151 57.6084 41.151Z" fill="#FCFAFC"/>
<path d="M38.0668 49.8636C38.2626 49.8636 38.4213 49.7 38.4213 49.4983C38.4213 49.2966 38.2626 49.1331 38.0668 49.1331C37.871 49.1331 37.7122 49.2966 37.7122 49.4983C37.7122 49.7 37.871 49.8636 38.0668 49.8636Z" fill="#FCFAFC"/>
<path d="M41.1648 51.6461C41.3057 51.6461 41.4199 51.5284 41.4199 51.3833C41.4199 51.2382 41.3057 51.1205 41.1648 51.1205C41.0239 51.1205 40.9097 51.2382 40.9097 51.3833C40.9097 51.5284 41.0239 51.6461 41.1648 51.6461Z" fill="#FCFAFC"/>
<path d="M39.4289 48.7042C39.5697 48.7042 39.684 48.5866 39.684 48.4415C39.684 48.2963 39.5697 48.1787 39.4289 48.1787C39.288 48.1787 39.1738 48.2963 39.1738 48.4415C39.1738 48.5866 39.288 48.7042 39.4289 48.7042Z" fill="#FCFAFC"/>
<path d="M40.8894 49.7743C41.1097 49.7743 41.2882 49.5904 41.2882 49.3636C41.2882 49.1367 41.1097 48.9528 40.8894 48.9528C40.6692 48.9528 40.4907 49.1367 40.4907 49.3636C40.4907 49.5904 40.6692 49.7743 40.8894 49.7743Z" fill="#FCFAFC"/>
<path d="M41.4844 50.5864C41.6609 50.5864 41.804 50.4391 41.804 50.2573C41.804 50.0755 41.6609 49.9281 41.4844 49.9281C41.3079 49.9281 41.1649 50.0755 41.1649 50.2573C41.1649 50.4391 41.3079 50.5864 41.4844 50.5864Z" fill="#FCFAFC"/>
<path d="M37.8156 51.6044C37.9844 51.6044 38.1213 51.4633 38.1213 51.2894C38.1213 51.1155 37.9844 50.9744 37.8156 50.9744C37.6467 50.9744 37.5098 51.1155 37.5098 51.2894C37.5098 51.4633 37.6467 51.6044 37.8156 51.6044Z" fill="#FCFAFC"/>
<path d="M37.2325 50.52C37.3734 50.52 37.4876 50.4024 37.4876 50.2572C37.4876 50.1121 37.3734 49.9945 37.2325 49.9945C37.0916 49.9945 36.9774 50.1121 36.9774 50.2572C36.9774 50.4024 37.0916 50.52 37.2325 50.52Z" fill="#FCFAFC"/>
<path d="M30.849 61.9467C31.0143 61.9467 31.1483 61.8086 31.1483 61.6384C31.1483 61.4681 31.0143 61.33 30.849 61.33C30.6837 61.33 30.5497 61.4681 30.5497 61.6384C30.5497 61.8086 30.6837 61.9467 30.849 61.9467Z" fill="#FCFAFC"/>
<path d="M31.9614 61.497C32.1577 61.497 32.3168 61.3331 32.3168 61.1308C32.3168 60.9286 32.1577 60.7646 31.9614 60.7646C31.765 60.7646 31.6059 60.9286 31.6059 61.1308C31.6059 61.3331 31.765 61.497 31.9614 61.497Z" fill="#FCFAFC"/>
<path d="M32.6971 62.2512C32.8462 62.2512 32.967 62.1267 32.967 61.9732C32.967 61.8197 32.8462 61.6953 32.6971 61.6953C32.5481 61.6953 32.4273 61.8197 32.4273 61.9732C32.4273 62.1267 32.5481 62.2512 32.6971 62.2512Z" fill="#FCFAFC"/>
<path d="M35.4578 62.0482C35.6069 62.0482 35.7277 61.9238 35.7277 61.7703C35.7277 61.6168 35.6069 61.4923 35.4578 61.4923C35.3088 61.4923 35.188 61.6168 35.188 61.7703C35.188 61.9238 35.3088 62.0482 35.4578 62.0482Z" fill="#FCFAFC"/>
<path d="M34.3226 61.8243C34.5367 61.8243 34.7103 61.6455 34.7103 61.4249C34.7103 61.2044 34.5367 61.0255 34.3226 61.0255C34.1085 61.0255 33.9349 61.2044 33.9349 61.4249C33.9349 61.6455 34.1085 61.8243 34.3226 61.8243Z" fill="#FCFAFC"/>
<path d="M29.8459 61.3301C29.9649 61.3301 30.0614 61.2307 30.0614 61.1081C30.0614 60.9855 29.9649 60.8861 29.8459 60.8861C29.7269 60.8861 29.6304 60.9855 29.6304 61.1081C29.6304 61.2307 29.7269 61.3301 29.8459 61.3301Z" fill="#FCFAFC"/>
<path d="M47.7115 61.3282C47.8203 61.3282 47.9086 61.2373 47.9086 61.1252C47.9086 61.013 47.8203 60.9221 47.7115 60.9221C47.6026 60.9221 47.5144 61.013 47.5144 61.1252C47.5144 61.2373 47.6026 61.3282 47.7115 61.3282Z" fill="#FCFAFC"/>
<path d="M45.5714 61.7152C45.7255 61.7152 45.8504 61.5865 45.8504 61.4277C45.8504 61.269 45.7255 61.1403 45.5714 61.1403C45.4173 61.1403 45.2924 61.269 45.2924 61.4277C45.2924 61.5865 45.4173 61.7152 45.5714 61.7152Z" fill="#FCFAFC"/>
<path d="M48.6499 61.5985C48.8294 61.5985 48.975 61.4486 48.975 61.2636C48.975 61.0787 48.8294 60.9288 48.6499 60.9288C48.4703 60.9288 48.3248 61.0787 48.3248 61.2636C48.3248 61.4486 48.4703 61.5985 48.6499 61.5985Z" fill="#FCFAFC"/>
<path d="M49.4751 60.8538C49.6109 60.8538 49.721 60.7404 49.721 60.6005C49.721 60.4606 49.6109 60.3472 49.4751 60.3472C49.3393 60.3472 49.2292 60.4606 49.2292 60.6005C49.2292 60.7404 49.3393 60.8538 49.4751 60.8538Z" fill="#FCFAFC"/>
<path d="M43.6595 61.8509C43.8289 61.8509 43.9662 61.7094 43.9662 61.535C43.9662 61.3605 43.8289 61.2191 43.6595 61.2191C43.4901 61.2191 43.3528 61.3605 43.3528 61.535C43.3528 61.7094 43.4901 61.8509 43.6595 61.8509Z" fill="#FCFAFC"/>
<path d="M44.6726 62.1212C44.7814 62.1212 44.8696 62.0303 44.8696 61.9182C44.8696 61.8061 44.7814 61.7152 44.6726 61.7152C44.5637 61.7152 44.4755 61.8061 44.4755 61.9182C44.4755 62.0303 44.5637 62.1212 44.6726 62.1212Z" fill="#FCFAFC"/>
<path d="M46.4083 62.2901C46.5573 62.2901 46.6781 62.1657 46.6781 62.0121C46.6781 61.8586 46.5573 61.7342 46.4083 61.7342C46.2593 61.7342 46.1385 61.8586 46.1385 62.0121C46.1385 62.1657 46.2593 62.2901 46.4083 62.2901Z" fill="#FCFAFC"/>
<path d="M22.5275 55.6419C22.7116 55.6419 22.8609 55.4881 22.8609 55.2985C22.8609 55.1088 22.7116 54.955 22.5275 54.955C22.3434 54.955 22.1942 55.1088 22.1942 55.2985C22.1942 55.4881 22.3434 55.6419 22.5275 55.6419Z" fill="#FCFAFC"/>
<path d="M23.3251 54.6287C23.4441 54.6287 23.5406 54.5293 23.5406 54.4067C23.5406 54.2841 23.4441 54.1847 23.3251 54.1847C23.2061 54.1847 23.1096 54.2841 23.1096 54.4067C23.1096 54.5293 23.2061 54.6287 23.3251 54.6287Z" fill="#FCFAFC"/>
<path d="M24.852 55.8249C25.0137 55.8249 25.1448 55.6898 25.1448 55.5232C25.1448 55.3566 25.0137 55.2216 24.852 55.2216C24.6903 55.2216 24.5591 55.3566 24.5591 55.5232C24.5591 55.6898 24.6903 55.8249 24.852 55.8249Z" fill="#FCFAFC"/>
<path d="M25.9183 55.4682C26.0673 55.4682 26.1881 55.3438 26.1881 55.1903C26.1881 55.0367 26.0673 54.9123 25.9183 54.9123C25.7693 54.9123 25.6485 55.0367 25.6485 55.1903C25.6485 55.3438 25.7693 55.4682 25.9183 55.4682Z" fill="#FCFAFC"/>
<path d="M23.9403 55.3876C24.0873 55.3876 24.2064 55.2649 24.2064 55.1135C24.2064 54.962 24.0873 54.8393 23.9403 54.8393C23.7933 54.8393 23.6742 54.962 23.6742 55.1135C23.6742 55.2649 23.7933 55.3876 23.9403 55.3876Z" fill="#FCFAFC"/>
<path d="M21.8847 54.714C22.0037 54.714 22.1002 54.6147 22.1002 54.4921C22.1002 54.3695 22.0037 54.2701 21.8847 54.2701C21.7657 54.2701 21.6692 54.3695 21.6692 54.4921C21.6692 54.6147 21.7657 54.714 21.8847 54.714Z" fill="#FCFAFC"/>
<path d="M53.9202 55.8971C54.0524 55.8971 54.1596 55.7866 54.1596 55.6504C54.1596 55.5142 54.0524 55.4038 53.9202 55.4038C53.7879 55.4038 53.6807 55.5142 53.6807 55.6504C53.6807 55.7866 53.7879 55.8971 53.9202 55.8971Z" fill="#FCFAFC"/>
<path d="M56.5466 55.7936C56.6621 55.7936 56.7557 55.6972 56.7557 55.5783C56.7557 55.4594 56.6621 55.3629 56.5466 55.3629C56.4312 55.3629 56.3376 55.4594 56.3376 55.5783C56.3376 55.6972 56.4312 55.7936 56.5466 55.7936Z" fill="#FCFAFC"/>
<path d="M55.9389 55.362C56.1047 55.362 56.2391 55.2236 56.2391 55.0528C56.2391 54.882 56.1047 54.7435 55.9389 54.7435C55.7731 54.7435 55.6387 54.882 55.6387 55.0528C55.6387 55.2236 55.7731 55.362 55.9389 55.362Z" fill="#FCFAFC"/>
<path d="M57.4335 55.4436C57.5779 55.4436 57.695 55.323 57.695 55.1742C57.695 55.0254 57.5779 54.9048 57.4335 54.9048C57.289 54.9048 57.172 55.0254 57.172 55.1742C57.172 55.323 57.289 55.4436 57.4335 55.4436Z" fill="#FCFAFC"/>
<path d="M55.2103 56.0545C55.3695 56.0545 55.4986 55.9216 55.4986 55.7576C55.4986 55.5936 55.3695 55.4607 55.2103 55.4607C55.0511 55.4607 54.9221 55.5936 54.9221 55.7576C54.9221 55.9216 55.0511 56.0545 55.2103 56.0545Z" fill="#FCFAFC"/>
<path d="M54.6771 55.4142C54.7926 55.4142 54.8862 55.3177 54.8862 55.1988C54.8862 55.0799 54.7926 54.9835 54.6771 54.9835C54.5617 54.9835 54.4681 55.0799 54.4681 55.1988C54.4681 55.3177 54.5617 55.4142 54.6771 55.4142Z" fill="#FCFAFC"/>
</svg>
