<svg width="35" height="32" viewBox="0 0 35 32" fill="#4B0875" xmlns="http://www.w3.org/2000/svg">
<path d="M25.8245 8.56334C25.8247 7.19223 25.503 5.84139 24.8868 4.62609C24.2705 3.41079 23.3781 2.36709 22.2855 1.58405C21.1929 0.80101 19.9326 0.301866 18.6122 0.129205C17.2918 -0.0434555 15.9505 0.115492 14.7026 0.592487C13.4548 1.06948 12.3375 1.85037 11.446 2.86851C10.5546 3.88666 9.91543 5.11185 9.58315 6.43955C9.25087 7.76726 9.2353 9.15806 9.53778 10.4933C9.84026 11.8285 10.4518 13.0686 11.3202 14.1076C11.1403 14.4305 11.0239 14.7867 10.9776 15.156C10.9313 15.5252 10.9561 15.9002 11.0505 16.2596C11.1448 16.619 11.307 16.9557 11.5278 17.2505C11.7485 17.5453 12.0234 17.7924 12.3368 17.9778C12.6503 18.1632 12.9961 18.2831 13.3545 18.3308C13.7129 18.3785 14.077 18.353 14.4258 18.2557C14.7747 18.1585 15.1015 17.9914 15.3877 17.764C15.6739 17.5367 15.9138 17.2535 16.0937 16.9306C17.0722 17.1121 18.0742 17.1121 19.0526 16.9306C19.2306 17.2569 19.4696 17.5437 19.7558 17.7743C20.0419 18.005 20.3696 18.175 20.7199 18.2745C21.0702 18.3741 21.4361 18.4011 21.7966 18.3542C22.1571 18.3073 22.505 18.1873 22.8203 18.0011C23.1355 17.815 23.4118 17.5664 23.6333 17.2696C23.8548 16.9729 24.017 16.6339 24.1106 16.2722C24.2043 15.9105 24.2275 15.5333 24.1788 15.1624C24.1302 14.7915 24.0108 14.4341 23.8274 14.1109C25.119 12.5693 25.828 10.5998 25.8245 8.56334Z" />
<path d="M17.3225 0.824305C19.3573 0.825538 21.3084 1.65905 22.7468 3.14163C24.1853 4.62421 24.9934 6.63452 24.9936 8.73067" />
<path d="M13.7015 16.9206C14.4492 16.9206 15.0552 16.2962 15.0552 15.5261C15.0552 14.7559 14.4492 14.1315 13.7015 14.1315C12.9539 14.1315 12.3478 14.7559 12.3478 15.5261C12.3478 16.2962 12.9539 16.9206 13.7015 16.9206Z" />
<path d="M13.7015 16.3621C14.1579 16.3621 14.5279 15.981 14.5279 15.5108C14.5279 15.0406 14.1579 14.6595 13.7015 14.6595C13.2451 14.6595 12.8751 15.0406 12.8751 15.5108C12.8751 15.981 13.2451 16.3621 13.7015 16.3621Z" />
<path d="M13.3702 15.5261C13.5126 15.5261 13.628 15.4071 13.628 15.2604C13.628 15.1137 13.5126 14.9948 13.3702 14.9948C13.2278 14.9948 13.1123 15.1137 13.1123 15.2604C13.1123 15.4071 13.2278 15.5261 13.3702 15.5261Z" />
<path d="M21.4442 13.2257C21.7375 13.2256 22.0279 13.2851 22.2989 13.4006C22.5699 13.5162 22.8161 13.6856 23.0235 13.8992C23.231 14.1129 23.3955 14.3665 23.5078 14.6456C23.62 14.9247 23.6778 15.2239 23.6778 15.5261" />
<path d="M21.4443 16.9206C22.1919 16.9206 22.798 16.2962 22.798 15.5261C22.798 14.7559 22.1919 14.1315 21.4443 14.1315C20.6966 14.1315 20.0905 14.7559 20.0905 15.5261C20.0905 16.2962 20.6966 16.9206 21.4443 16.9206Z" />
<path d="M21.4443 16.3621C21.9007 16.3621 22.2707 15.981 22.2707 15.5108C22.2707 15.0406 21.9007 14.6595 21.4443 14.6595C20.9878 14.6595 20.6178 15.0406 20.6178 15.5108C20.6178 15.981 20.9878 16.3621 21.4443 16.3621Z" />
<path d="M21.1129 15.5261C21.2553 15.5261 21.3708 15.4071 21.3708 15.2604C21.3708 15.1137 21.2553 14.9948 21.1129 14.9948C20.9705 14.9948 20.8551 15.1137 20.8551 15.2604C20.8551 15.4071 20.9705 15.5261 21.1129 15.5261Z" />
<path d="M22.7928 16.9133H12.3537V18.9068H22.7928V16.9133Z"  />
<path d="M16.5489 16.1556H18.602V16.3621C18.602 16.6427 18.4938 16.9118 18.3013 17.1102C18.1087 17.3086 17.8475 17.42 17.5751 17.42C17.4403 17.4199 17.3068 17.3925 17.1822 17.3392C17.0576 17.286 16.9445 17.208 16.8492 17.1097C16.7539 17.0114 16.6783 16.8947 16.6268 16.7664C16.5753 16.638 16.5488 16.5004 16.5489 16.3615V16.1556Z" />
<path d="M33.3738 15.5221H29.5975C28.8544 15.5221 28.1414 15.825 27.6144 16.3648C27.0875 16.9046 26.7893 17.6373 26.785 18.4028V20.5829C26.785 20.7238 26.7307 20.8589 26.634 20.9586C26.5372 21.0582 26.4061 21.1142 26.2693 21.1142H25.2585C25.1272 21.1144 25.0008 21.0632 24.905 20.9707C24.8092 20.8783 24.7512 20.7517 24.7428 20.6168C24.8118 19.1558 23.6856 17.9034 22.2552 17.9087H12.8893C11.4576 17.9034 10.332 19.1565 10.4017 20.6188C10.3975 20.7568 10.3413 20.8877 10.245 20.9837C10.1488 21.0798 10.02 21.1335 9.88596 21.1334H8.87776C8.74098 21.1334 8.60981 21.0775 8.5131 20.9778C8.41639 20.8782 8.36205 20.7431 8.36205 20.6022V18.422C8.35796 17.6566 8.05991 16.9239 7.53302 16.3841C7.00613 15.8443 6.29325 15.5413 5.55017 15.5413H1.7752C1.58799 15.5372 1.40187 15.5716 1.22774 15.6426C1.05362 15.7135 0.894999 15.8196 0.761184 15.9545C0.627369 16.0894 0.521053 16.2505 0.448471 16.4283C0.375888 16.6061 0.338501 16.7971 0.338501 16.99C0.338501 17.1829 0.375888 17.3738 0.448471 17.5517C0.521053 17.7295 0.627369 17.8906 0.761184 18.0255C0.894999 18.1604 1.05362 18.2665 1.22774 18.3374C1.40187 18.4084 1.58799 18.4428 1.7752 18.4387H5.03382C5.17059 18.4387 5.30176 18.4946 5.39847 18.5942C5.49519 18.6939 5.54952 18.829 5.54952 18.9699V21.1354C5.5498 21.8841 5.8314 22.6036 6.33529 23.1431C6.83919 23.6826 7.52625 24.0002 8.25246 24.0294H10.5119C11.2317 24.0006 11.9133 23.6883 12.4162 23.157C12.9191 22.6257 13.205 21.9159 13.2148 21.1739V21.1779C13.2145 21.1082 13.2275 21.039 13.2531 20.9744C13.2787 20.9098 13.3164 20.8511 13.3641 20.8015C13.4117 20.7519 13.4684 20.7125 13.5308 20.6855C13.5933 20.6585 13.6602 20.6444 13.728 20.644C13.7957 20.6437 13.8628 20.6571 13.9255 20.6834C13.9882 20.7098 14.0453 20.7487 14.0934 20.7977C14.1415 20.8468 14.1798 20.9052 14.206 20.9695C14.2322 21.0338 14.2459 21.1028 14.2463 21.1726V28.5119C14.2463 28.6528 14.1919 28.7879 14.0952 28.8875C13.9985 28.9872 13.8673 29.0431 13.7305 29.0431H12.7185C12.5817 29.0431 12.4505 28.9872 12.3538 28.8875C12.2571 28.7879 12.2028 28.6528 12.2028 28.5119V27.5762C12.1994 26.8107 11.902 26.0776 11.3756 25.5372C10.8492 24.9968 10.1366 24.693 9.39346 24.6922H5.61656C5.42936 24.688 5.24323 24.7225 5.06911 24.7934C4.89498 24.8643 4.73636 24.9704 4.60255 25.1053C4.46873 25.2402 4.36242 25.4013 4.28983 25.5792C4.21725 25.757 4.17987 25.9479 4.17987 26.1408C4.17987 26.3337 4.21725 26.5247 4.28983 26.7025C4.36242 26.8803 4.46873 27.0414 4.60255 27.1763C4.73636 27.3113 4.89498 27.4173 5.06911 27.4882C5.24323 27.5592 5.42936 27.5936 5.61656 27.5895H8.87776C9.01453 27.5895 9.1457 27.6455 9.24242 27.7451C9.33913 27.8447 9.39346 27.9798 9.39346 28.1207V29.0431C9.39398 29.8107 9.69017 30.5468 10.217 31.0896C10.7438 31.6325 11.4583 31.9377 12.2034 31.9384H14.2443C14.6137 31.9385 14.9795 31.8637 15.3208 31.7181C15.6621 31.5725 15.9723 31.3591 16.2335 31.0901C16.4947 30.821 16.702 30.5016 16.8433 30.15C16.9847 29.7985 17.0575 29.4217 17.0575 29.0411V20.6453V23.1064C17.0571 22.9655 17.111 22.8302 17.2074 22.7302C17.3038 22.6303 17.4348 22.5739 17.5716 22.5735C17.7084 22.573 17.8397 22.6286 17.9367 22.7279C18.0337 22.8272 18.0885 22.9622 18.0889 23.1031V29.0371C18.0884 29.4179 18.1608 29.795 18.3018 30.147C18.4429 30.4989 18.6499 30.8187 18.9111 31.0882C19.1722 31.3577 19.4824 31.5714 19.8238 31.7173C20.1652 31.8632 20.5312 31.9384 20.9008 31.9384H22.9423C23.6883 31.9384 24.4037 31.6332 24.9311 31.0898C25.4586 30.5465 25.7549 29.8095 25.7549 29.0411V28.1174C25.7549 27.9765 25.8092 27.8414 25.9059 27.7418C26.0026 27.6421 26.1338 27.5862 26.2706 27.5862H29.5292C29.7164 27.5903 29.9025 27.5559 30.0767 27.4849C30.2508 27.414 30.4094 27.3079 30.5432 27.173C30.677 27.0381 30.7833 26.877 30.8559 26.6992C30.9285 26.5213 30.9659 26.3304 30.9659 26.1375C30.9659 25.9446 30.9285 25.7537 30.8559 25.5758C30.7833 25.398 30.677 25.2369 30.5432 25.102C30.4094 24.9671 30.2508 24.861 30.0767 24.7901C29.9025 24.7191 29.7164 24.6847 29.5292 24.6888H25.7549C25.0112 24.6888 24.2977 24.9923 23.7707 25.5327C23.2436 26.0732 22.9458 26.8068 22.9423 27.5729V28.5085C22.9423 28.6494 22.888 28.7846 22.7913 28.8842C22.6946 28.9838 22.5634 29.0398 22.4266 29.0398H21.4159C21.2791 29.0398 21.1479 28.9838 21.0512 28.8842C20.9545 28.7846 20.9002 28.6494 20.9002 28.5085V21.1646C20.9018 21.0374 20.9477 20.915 21.0296 20.8197C21.1115 20.7244 21.2238 20.6625 21.3462 20.6453H21.4835C21.6069 20.6627 21.7201 20.7254 21.8021 20.8219C21.8841 20.9185 21.9294 21.0423 21.9296 21.1706V21.1142C21.93 21.8826 22.2265 22.6194 22.754 23.1627C23.2815 23.706 23.9969 24.0113 24.7428 24.0115H26.7844C27.5303 24.0115 28.2458 23.7063 28.7733 23.1629C29.3009 22.6196 29.5974 21.8827 29.5975 21.1142V18.95C29.5975 18.8091 29.6519 18.674 29.7486 18.5743C29.8453 18.4747 29.9765 18.4187 30.1132 18.4187H33.3738C33.561 18.4229 33.7471 18.3884 33.9212 18.3175C34.0954 18.2465 34.254 18.1405 34.3878 18.0056C34.5216 17.8706 34.6279 17.7095 34.7005 17.5317C34.7731 17.3539 34.8105 17.163 34.8105 16.9701C34.8105 16.7772 34.7731 16.5862 34.7005 16.4084C34.6279 16.2306 34.5216 16.0695 34.3878 15.9346C34.254 15.7996 34.0954 15.6936 33.9212 15.6226C33.7471 15.5517 33.561 15.5179 33.3738 15.5221Z" />
<path d="M18.7078 13.4602C18.8214 13.4602 18.9135 13.3653 18.9135 13.2483C18.9135 13.1313 18.8214 13.0365 18.7078 13.0365C18.5943 13.0365 18.5022 13.1313 18.5022 13.2483C18.5022 13.3653 18.5943 13.4602 18.7078 13.4602Z" />
<path d="M20.1189 12.308C20.2008 12.308 20.2672 12.2396 20.2672 12.1553C20.2672 12.0709 20.2008 12.0025 20.1189 12.0025C20.037 12.0025 19.9707 12.0709 19.9707 12.1553C19.9707 12.2396 20.037 12.308 20.1189 12.308Z" />
<path d="M19.3331 12.5909C19.4677 12.5909 19.5768 12.4785 19.5768 12.3399C19.5768 12.2013 19.4677 12.0889 19.3331 12.0889C19.1985 12.0889 19.0894 12.2013 19.0894 12.3399C19.0894 12.4785 19.1985 12.5909 19.3331 12.5909Z" />
<path d="M19.5773 13.4296C19.6795 13.4296 19.7623 13.3443 19.7623 13.2391C19.7623 13.1338 19.6795 13.0485 19.5773 13.0485C19.4751 13.0485 19.3923 13.1338 19.3923 13.2391C19.3923 13.3443 19.4751 13.4296 19.5773 13.4296Z" />
<path d="M18.6498 14.4151C18.7317 14.4151 18.798 14.3467 18.798 14.2624C18.798 14.178 18.7317 14.1096 18.6498 14.1096C18.5679 14.1096 18.5015 14.178 18.5015 14.2624C18.5015 14.3467 18.5679 14.4151 18.6498 14.4151Z" />
<path d="M12.0699 22.8381C12.1835 22.8381 12.2756 22.7433 12.2756 22.6263C12.2756 22.5093 12.1835 22.4144 12.0699 22.4144C11.9564 22.4144 11.8643 22.5093 11.8643 22.6263C11.8643 22.7433 11.9564 22.8381 12.0699 22.8381Z" />
<path d="M11.1365 23.2883C11.2234 23.2883 11.2938 23.2152 11.2938 23.125C11.2938 23.0348 11.2234 22.9616 11.1365 22.9616C11.0496 22.9616 10.9792 23.0348 10.9792 23.125C10.9792 23.2152 11.0496 23.2883 11.1365 23.2883Z" />
<path d="M12.4909 22.1993C12.5727 22.1993 12.6391 22.1309 12.6391 22.0465C12.6391 21.9622 12.5727 21.8938 12.4909 21.8938C12.409 21.8938 12.3426 21.9622 12.3426 22.0465C12.3426 22.1309 12.409 22.1993 12.4909 22.1993Z" />
<path d="M11.3731 22.7C11.455 22.7 11.5214 22.6316 11.5214 22.5472C11.5214 22.4629 11.455 22.3945 11.3731 22.3945C11.2912 22.3945 11.2248 22.4629 11.2248 22.5472C11.2248 22.6316 11.2912 22.7 11.3731 22.7Z" />
<path d="M23.3677 22.9676C23.4813 22.9676 23.5734 22.8728 23.5734 22.7558C23.5734 22.6388 23.4813 22.5439 23.3677 22.5439C23.2542 22.5439 23.1621 22.6388 23.1621 22.7558C23.1621 22.8728 23.2542 22.9676 23.3677 22.9676Z" />
<path d="M24.4196 23.1531C24.4235 23.0629 24.3563 22.9866 24.2695 22.9826C24.1827 22.9786 24.1092 23.0485 24.1053 23.1386C24.1014 23.2287 24.1686 23.305 24.2553 23.309C24.3421 23.313 24.4156 23.2432 24.4196 23.1531Z" />
<path d="M22.8915 22.2949C22.9734 22.2949 23.0398 22.2265 23.0398 22.1422C23.0398 22.0578 22.9734 21.9894 22.8915 21.9894C22.8096 21.9894 22.7432 22.0578 22.7432 22.1422C22.7432 22.2265 22.8096 22.2949 22.8915 22.2949Z" />
<path d="M24.0506 22.7093C24.1324 22.7093 24.1988 22.6409 24.1988 22.5565C24.1988 22.4722 24.1324 22.4038 24.0506 22.4038C23.9687 22.4038 23.9023 22.4722 23.9023 22.5565C23.9023 22.6409 23.9687 22.7093 24.0506 22.7093Z" />
<path d="M2.18397 16.4757C2.30253 16.4757 2.39863 16.3767 2.39863 16.2546C2.39863 16.1324 2.30253 16.0334 2.18397 16.0334C2.06542 16.0334 1.96931 16.1324 1.96931 16.2546C1.96931 16.3767 2.06542 16.4757 2.18397 16.4757Z" />
<path d="M3.73099 17.1769C3.81644 17.1769 3.8857 17.1056 3.8857 17.0176C3.8857 16.9295 3.81644 16.8582 3.73099 16.8582C3.64555 16.8582 3.57628 16.9295 3.57628 17.0176C3.57628 17.1056 3.64555 17.1769 3.73099 17.1769Z" />
<path d="M3.88578 16.5355C4.02676 16.5355 4.14105 16.4177 4.14105 16.2725C4.14105 16.1272 4.02676 16.0095 3.88578 16.0095C3.74479 16.0095 3.6305 16.1272 3.6305 16.2725C3.6305 16.4177 3.74479 16.5355 3.88578 16.5355Z" />
<path d="M4.65088 16.6902C4.75769 16.6902 4.84427 16.601 4.84427 16.491C4.84427 16.381 4.75769 16.2918 4.65088 16.2918C4.54408 16.2918 4.45749 16.381 4.45749 16.491C4.45749 16.601 4.54408 16.6902 4.65088 16.6902Z" />
<path d="M2.9361 16.9478C3.07887 16.9478 3.1946 16.8286 3.1946 16.6815C3.1946 16.5345 3.07887 16.4152 2.9361 16.4152C2.79334 16.4152 2.6776 16.5345 2.6776 16.6815C2.6776 16.8286 2.79334 16.9478 2.9361 16.9478Z" />
<path d="M1.67846 16.8735C1.76391 16.8735 1.83317 16.8021 1.83317 16.7141C1.83317 16.6261 1.76391 16.5547 1.67846 16.5547C1.59302 16.5547 1.52375 16.6261 1.52375 16.7141C1.52375 16.8021 1.59302 16.8735 1.67846 16.8735Z" />
<path d="M12.3821 5.86126C12.5419 5.86126 12.6715 5.72777 12.6715 5.5631C12.6715 5.39842 12.5419 5.26493 12.3821 5.26493C12.2222 5.26493 12.0926 5.39842 12.0926 5.5631C12.0926 5.72777 12.2222 5.86126 12.3821 5.86126Z" />
<path d="M11.3454 5.89315C11.4604 5.89315 11.5536 5.79711 11.5536 5.67865C11.5536 5.56019 11.4604 5.46416 11.3454 5.46416C11.2304 5.46416 11.1372 5.56019 11.1372 5.67865C11.1372 5.79711 11.2304 5.89315 11.3454 5.89315Z" />
<path d="M10.8839 6.85669C11.0587 6.85669 11.2004 6.71071 11.2004 6.53063C11.2004 6.35055 11.0587 6.20457 10.8839 6.20457C10.7091 6.20457 10.5674 6.35055 10.5674 6.53063C10.5674 6.71071 10.7091 6.85669 10.8839 6.85669Z" />
<path d="M12.7481 3.54497C12.8919 3.54497 13.0085 3.42486 13.0085 3.27669C13.0085 3.12852 12.8919 3.00841 12.7481 3.00841C12.6042 3.00841 12.4876 3.12852 12.4876 3.27669C12.4876 3.42486 12.6042 3.54497 12.7481 3.54497Z" />
<path d="M12.9222 4.50788C13.066 4.50788 13.1826 4.38776 13.1826 4.2396C13.1826 4.09143 13.066 3.97131 12.9222 3.97131C12.7783 3.97131 12.6617 4.09143 12.6617 4.2396C12.6617 4.38776 12.7783 4.50788 12.9222 4.50788Z" />
<path d="M11.6458 4.90765C11.8601 4.90765 12.0339 4.72866 12.0339 4.50788C12.0339 4.28709 11.8601 4.10811 11.6458 4.10811C11.4315 4.10811 11.2577 4.28709 11.2577 4.50788C11.2577 4.72866 11.4315 4.90765 11.6458 4.90765Z" />
<path d="M11.3454 7.63365C11.4604 7.63365 11.5536 7.53762 11.5536 7.41916C11.5536 7.30069 11.4604 7.20466 11.3454 7.20466C11.2304 7.20466 11.1372 7.30069 11.1372 7.41916C11.1372 7.53762 11.2304 7.63365 11.3454 7.63365Z" />
<path d="M30.881 16.3688C31.0114 16.3688 31.117 16.2599 31.117 16.1257C31.117 15.9915 31.0114 15.8827 30.881 15.8827C30.7507 15.8827 30.6451 15.9915 30.6451 16.1257C30.6451 16.2599 30.7507 16.3688 30.881 16.3688Z" />
<path d="M32.4223 17.0693C32.5159 17.0693 32.5918 16.9912 32.5918 16.8947C32.5918 16.7982 32.5159 16.7201 32.4223 16.7201C32.3287 16.7201 32.2528 16.7982 32.2528 16.8947C32.2528 16.9912 32.3287 17.0693 32.4223 17.0693Z" />
<path d="M32.5325 16.4578C32.687 16.4578 32.8123 16.3287 32.8123 16.1696C32.8123 16.0104 32.687 15.8814 32.5325 15.8814C32.378 15.8814 32.2528 16.0104 32.2528 16.1696C32.2528 16.3287 32.378 16.4578 32.5325 16.4578Z" />
<path d="M33.263 16.8031C33.3801 16.8031 33.475 16.7053 33.475 16.5846C33.475 16.4639 33.3801 16.3661 33.263 16.3661C33.1458 16.3661 33.0509 16.4639 33.0509 16.5846C33.0509 16.7053 33.1458 16.8031 33.263 16.8031Z" />
<path d="M31.5391 16.7433C31.6812 16.7433 31.7963 16.6247 31.7963 16.4783C31.7963 16.332 31.6812 16.2134 31.5391 16.2134C31.397 16.2134 31.2819 16.332 31.2819 16.4783C31.2819 16.6247 31.397 16.7433 31.5391 16.7433Z" />
<path d="M30.3259 16.8057C30.4196 16.8057 30.4955 16.7275 30.4955 16.6311C30.4955 16.5346 30.4196 16.4564 30.3259 16.4564C30.2323 16.4564 30.1564 16.5346 30.1564 16.6311C30.1564 16.7275 30.2323 16.8057 30.3259 16.8057Z" />
<path d="M16.6468 22.9045C16.7839 22.9045 16.895 22.7901 16.895 22.6489C16.895 22.5077 16.7839 22.3932 16.6468 22.3932C16.5097 22.3932 16.3986 22.5077 16.3986 22.6489C16.3986 22.7901 16.5097 22.9045 16.6468 22.9045Z" />
<path d="M18.8154 24.1523C18.914 24.1523 18.994 24.0699 18.994 23.9683C18.994 23.8668 18.914 23.7844 18.8154 23.7844C18.7168 23.7844 18.6368 23.8668 18.6368 23.9683C18.6368 24.0699 18.7168 24.1523 18.8154 24.1523Z" />
<path d="M17.6003 22.093C17.6989 22.093 17.7788 22.0107 17.7788 21.9091C17.7788 21.8075 17.6989 21.7251 17.6003 21.7251C17.5016 21.7251 17.4217 21.8075 17.4217 21.9091C17.4217 22.0107 17.5016 22.093 17.6003 22.093Z" />
<path d="M18.6227 22.8421C18.7768 22.8421 18.9018 22.7133 18.9018 22.5545C18.9018 22.3957 18.7768 22.267 18.6227 22.267C18.4685 22.267 18.3435 22.3957 18.3435 22.5545C18.3435 22.7133 18.4685 22.8421 18.6227 22.8421Z" />
<path d="M19.0391 23.4105C19.1627 23.4105 19.2628 23.3074 19.2628 23.1801C19.2628 23.0529 19.1627 22.9497 19.0391 22.9497C18.9156 22.9497 18.8155 23.0529 18.8155 23.1801C18.8155 23.3074 18.9156 23.4105 19.0391 23.4105Z" />
<path d="M16.4709 24.1231C16.5891 24.1231 16.685 24.0244 16.685 23.9026C16.685 23.7809 16.5891 23.6821 16.4709 23.6821C16.3527 23.6821 16.2569 23.7809 16.2569 23.9026C16.2569 24.0244 16.3527 24.1231 16.4709 24.1231Z" />
<path d="M16.0628 23.3641C16.1614 23.3641 16.2414 23.2817 16.2414 23.1801C16.2414 23.0785 16.1614 22.9962 16.0628 22.9962C15.9642 22.9962 15.8842 23.0785 15.8842 23.1801C15.8842 23.2817 15.9642 23.3641 16.0628 23.3641Z" />
<path d="M11.5943 31.3627C11.71 31.3627 11.8038 31.2661 11.8038 31.1469C11.8038 31.0277 11.71 30.9311 11.5943 30.9311C11.4786 30.9311 11.3848 31.0277 11.3848 31.1469C11.3848 31.2661 11.4786 31.3627 11.5943 31.3627Z" />
<path d="M12.373 31.0479C12.5104 31.0479 12.6218 30.9332 12.6218 30.7916C12.6218 30.6501 12.5104 30.5353 12.373 30.5353C12.2356 30.5353 12.1242 30.6501 12.1242 30.7916C12.1242 30.9332 12.2356 31.0479 12.373 31.0479Z" />
<path d="M12.888 31.5759C12.9924 31.5759 13.0769 31.4888 13.0769 31.3813C13.0769 31.2738 12.9924 31.1867 12.888 31.1867C12.7837 31.1867 12.6992 31.2738 12.6992 31.3813C12.6992 31.4888 12.7837 31.5759 12.888 31.5759Z" />
<path d="M14.8205 31.4338C14.9249 31.4338 15.0094 31.3467 15.0094 31.2392C15.0094 31.1318 14.9249 31.0446 14.8205 31.0446C14.7162 31.0446 14.6317 31.1318 14.6317 31.2392C14.6317 31.3467 14.7162 31.4338 14.8205 31.4338Z" />
<path d="M14.0259 31.2771C14.1758 31.2771 14.2973 31.1519 14.2973 30.9975C14.2973 30.8431 14.1758 30.7179 14.0259 30.7179C13.876 30.7179 13.7545 30.8431 13.7545 30.9975C13.7545 31.1519 13.876 31.2771 14.0259 31.2771Z" />
<path d="M10.8922 30.9311C10.9755 30.9311 11.043 30.8615 11.043 30.7757C11.043 30.6899 10.9755 30.6203 10.8922 30.6203C10.8089 30.6203 10.7413 30.6899 10.7413 30.7757C10.7413 30.8615 10.8089 30.9311 10.8922 30.9311Z" />
<path d="M23.3981 30.9298C23.4743 30.9298 23.536 30.8661 23.536 30.7876C23.536 30.7092 23.4743 30.6455 23.3981 30.6455C23.3219 30.6455 23.2601 30.7092 23.2601 30.7876C23.2601 30.8661 23.3219 30.9298 23.3981 30.9298Z" />
<path d="M21.9 31.2007C22.0079 31.2007 22.0954 31.1106 22.0954 30.9995C22.0954 30.8883 22.0079 30.7982 21.9 30.7982C21.7922 30.7982 21.7047 30.8883 21.7047 30.9995C21.7047 31.1106 21.7922 31.2007 21.9 31.2007Z" />
<path d="M24.055 31.119C24.1806 31.119 24.2825 31.014 24.2825 30.8846C24.2825 30.7551 24.1806 30.6502 24.055 30.6502C23.9293 30.6502 23.8274 30.7551 23.8274 30.8846C23.8274 31.014 23.9293 31.119 24.055 31.119Z" />
<path d="M24.6326 30.5977C24.7277 30.5977 24.8047 30.5183 24.8047 30.4204C24.8047 30.3225 24.7277 30.2431 24.6326 30.2431C24.5376 30.2431 24.4605 30.3225 24.4605 30.4204C24.4605 30.5183 24.5376 30.5977 24.6326 30.5977Z" />
<path d="M20.5617 31.2956C20.6803 31.2956 20.7764 31.1966 20.7764 31.0745C20.7764 30.9524 20.6803 30.8534 20.5617 30.8534C20.4432 30.8534 20.347 30.9524 20.347 31.0745C20.347 31.1966 20.4432 31.2956 20.5617 31.2956Z" />
<path d="M21.2709 31.4849C21.347 31.4849 21.4088 31.4213 21.4088 31.3428C21.4088 31.2643 21.347 31.2007 21.2709 31.2007C21.1947 31.2007 21.1329 31.2643 21.1329 31.3428C21.1329 31.4213 21.1947 31.4849 21.2709 31.4849Z" />
<path d="M22.4859 31.6031C22.5902 31.6031 22.6748 31.516 22.6748 31.4085C22.6748 31.3011 22.5902 31.214 22.4859 31.214C22.3816 31.214 22.297 31.3011 22.297 31.4085C22.297 31.516 22.3816 31.6031 22.4859 31.6031Z" />
<path d="M5.76933 26.9494C5.8982 26.9494 6.00268 26.8417 6.00268 26.709C6.00268 26.5762 5.8982 26.4686 5.76933 26.4686C5.64045 26.4686 5.53597 26.5762 5.53597 26.709C5.53597 26.8417 5.64045 26.9494 5.76933 26.9494Z" />
<path d="M6.32762 26.2401C6.41093 26.2401 6.47846 26.1705 6.47846 26.0847C6.47846 25.9989 6.41093 25.9293 6.32762 25.9293C6.24431 25.9293 6.17677 25.9989 6.17677 26.0847C6.17677 26.1705 6.24431 26.2401 6.32762 26.2401Z" />
<path d="M7.39645 27.0775C7.50966 27.0775 7.60144 26.9829 7.60144 26.8663C7.60144 26.7497 7.50966 26.6551 7.39645 26.6551C7.28323 26.6551 7.19146 26.7497 7.19146 26.8663C7.19146 26.9829 7.28323 27.0775 7.39645 27.0775Z" />
<path d="M8.14285 26.8278C8.24717 26.8278 8.33173 26.7407 8.33173 26.6332C8.33173 26.5258 8.24717 26.4386 8.14285 26.4386C8.03854 26.4386 7.95398 26.5258 7.95398 26.6332C7.95398 26.7407 8.03854 26.8278 8.14285 26.8278Z" />
<path d="M6.75827 26.7714C6.86116 26.7714 6.94457 26.6854 6.94457 26.5795C6.94457 26.4735 6.86116 26.3875 6.75827 26.3875C6.65538 26.3875 6.57197 26.4735 6.57197 26.5795C6.57197 26.6854 6.65538 26.7714 6.75827 26.7714Z" />
<path d="M5.31932 26.2999C5.40263 26.2999 5.47016 26.2303 5.47016 26.1445C5.47016 26.0587 5.40263 25.9891 5.31932 25.9891C5.23601 25.9891 5.16847 26.0587 5.16847 26.1445C5.16847 26.2303 5.23601 26.2999 5.31932 26.2999Z" />
<path d="M27.7442 27.128C27.8367 27.128 27.9118 27.0507 27.9118 26.9553C27.9118 26.86 27.8367 26.7827 27.7442 26.7827C27.6516 26.7827 27.5766 26.86 27.5766 26.9553C27.5766 27.0507 27.6516 27.128 27.7442 27.128Z" />
<path d="M29.5827 27.0556C29.6635 27.0556 29.729 26.9881 29.729 26.9048C29.729 26.8216 29.6635 26.7541 29.5827 26.7541C29.5019 26.7541 29.4364 26.8216 29.4364 26.9048C29.4364 26.9881 29.5019 27.0556 29.5827 27.0556Z" />
<path d="M29.1573 26.7535C29.2734 26.7535 29.3675 26.6565 29.3675 26.537C29.3675 26.4174 29.2734 26.3205 29.1573 26.3205C29.0412 26.3205 28.9471 26.4174 28.9471 26.537C28.9471 26.6565 29.0412 26.7535 29.1573 26.7535Z" />
<path d="M30.2035 26.8106C30.3046 26.8106 30.3866 26.7261 30.3866 26.622C30.3866 26.5178 30.3046 26.4334 30.2035 26.4334C30.1024 26.4334 30.0204 26.5178 30.0204 26.622C30.0204 26.7261 30.1024 26.8106 30.2035 26.8106Z" />
<path d="M28.6473 27.2382C28.7587 27.2382 28.8491 27.1451 28.8491 27.0303C28.8491 26.9156 28.7587 26.8225 28.6473 26.8225C28.5359 26.8225 28.4455 26.9156 28.4455 27.0303C28.4455 27.1451 28.5359 27.2382 28.6473 27.2382Z" />
<path d="M28.274 26.7899C28.3549 26.7899 28.4204 26.7225 28.4204 26.6392C28.4204 26.5559 28.3549 26.4885 28.274 26.4885C28.1932 26.4885 28.1277 26.5559 28.1277 26.6392C28.1277 26.7225 28.1932 26.7899 28.274 26.7899Z" />
</svg>
